<?xml version="1.0" encoding="utf-8"?>
<!-- Generator: Adobe Illustrator 25.2.1, SVG Export Plug-In . SVG Version: 6.00 Build 0)  -->
<svg version="1.1" id="Capa_1" xmlns="http://www.w3.org/2000/svg" xmlns:xlink="http://www.w3.org/1999/xlink" x="0px" y="0px"
	 viewBox="0 0 500 500" style="enable-background:new 0 0 500 500;" xml:space="preserve">
<style type="text/css">
	.st0{fill:#E2B700;}
	.st1{fill:#EBEBEB;}
	.st2{fill:#C19C00;}
	.st3{fill:#FFC100;}
	.st4{opacity:0.15;}
	.st5{fill:#FFFFFF;}
	.st6{fill:#37474F;}
	.st7{fill:#455A64;}
	.st8{opacity:0.1;enable-background:new    ;}
	.st9{fill:#FAFAFA;}
	.st10{fill:#FFA8A7;}
	.st11{opacity:0.2;}
	.st12{opacity:0.2;enable-background:new    ;}
	.st13{fill:#F28F8F;}
	.st14{opacity:0.2;fill:#FFFFFF;enable-background:new    ;}
	.st15{opacity:0.7;fill:#FFFFFF;enable-background:new    ;}
	.st16{opacity:0.15;enable-background:new    ;}
	.st17{opacity:0.5;fill:#FFFFFF;enable-background:new    ;}
</style>
<g id="freepik--Floor--inject-38">
	<ellipse id="freepik--floor--inject-38" class="st0" cx="251.1" cy="349.3" rx="230.4" ry="133"/>
</g>
<g id="freepik--Clouds--inject-38">
	<g id="freepik--clouds--inject-38">
		<path id="freepik--Cloud--inject-38" class="st1" d="M436.8,69.5l-6.2-3.6c0-0.3,0-0.5,0-0.8v-1.8c-0.2-3.5-2-6.7-5-8.6
			c-0.9-0.6-2-0.8-3-0.6c-0.5-4.5-3.6-9.7-7.4-11.8c-4.1-2.4-7.5-0.5-7.5,4.3v2.7c0,1.3,0.2,2.6,0.6,3.8l-5.1-3
			c-1.5-0.9-2.8-0.2-2.8,1.6c0.1,2,1.1,3.7,2.8,4.8l33.5,19.3c1.5,0.9,2.8,0.2,2.8-1.6C439.4,72.3,438.4,70.6,436.8,69.5z"/>
		<path id="freepik--cloud--inject-38" class="st1" d="M354.2,49.8l3.4,1.3v-7.5c0-6,4.8-7.4,9.9-4.4l0,0c5.2,3,9.3,10.2,9.3,16.2
			v1.1c1.5-0.5,3.1-0.2,4.3,0.7l0,0c4,2.6,6.5,6.9,6.7,11.6v0.5l4.8,2.7c2.6,1.7,4.3,4.5,4.4,7.7c0,2.8-2,4-4.4,2.6L354.2,60
			c-2.6-1.7-4.3-4.6-4.4-7.7C349.8,49.6,351.8,48.4,354.2,49.8z"/>
	</g>
</g>
<g id="freepik--Shadows--inject-38">
	<ellipse id="freepik--Shadow--inject-38" class="st2" cx="366.2" cy="399.6" rx="69.4" ry="40"/>
	<path id="freepik--shadow--inject-38" class="st2" d="M101.1,403.9L214,338.7c0.7-0.2,1.1-1,0.9-1.7c-0.1-0.4-0.5-0.7-0.9-0.9
		l-8.1-4.7c-1.4-0.7-3.1-0.7-4.5,0l-45.8,26.5c-1.4,0.7-3.1,0.7-4.5,0l-83.6-48.2c-1.4-0.7-3.1-0.7-4.5,0l-3.9,2.3
		c-0.7,0.2-1.1,1-0.9,1.7c0.1,0.4,0.5,0.7,0.9,0.9l83.6,48.3c0.7,0.2,1.1,1,0.9,1.7c-0.1,0.4-0.5,0.7-0.9,0.9l-54.3,31.3
		c-0.7,0.2-1.1,1-0.8,1.7c0.1,0.4,0.4,0.7,0.8,0.8l8.1,4.7C98,404.6,99.7,404.6,101.1,403.9z"/>
</g>
<g id="freepik--Plants--inject-38">
	<g id="freepik--plants--inject-38">
		<path class="st3" d="M109.7,391l8-4.5c0,0,3.8-21,1-39.1c-4-25.4-21.3-34.2-27.6-31.7s-7.8,10.1,3.6,24.8
			C101.2,349.1,109.9,367.4,109.7,391z"/>
		<g class="st4">
			<path d="M109.7,391l8-4.5c0,0,3.8-21,1-39.1c-4-25.4-21.3-34.2-27.6-31.7s-7.8,10.1,3.6,24.8C101.2,349.1,109.9,367.4,109.7,391z
				"/>
		</g>
		<path class="st5" d="M112.5,380.9L112.5,380.9c-0.4,0-0.6-0.3-0.6-0.6c3.3-23.8-6.3-49.9-17-60.4c-0.2-0.2-0.2-0.6,0-0.8
			c0.2-0.2,0.6-0.2,0.8,0c11,10.7,20.7,37.2,17.4,61.4C113.1,380.8,112.8,381,112.5,380.9z"/>
		<path class="st3" d="M87.6,403.8c-1.3,0.7-3.8-0.9-4.8-1.5c-1.7-1.2-3.1-2.7-4-4.6c-1-2.1-1.4-4.5-1-6.8c0.2-1.2,0.5-2.4,0.8-3.6
			c0.3-1.2,0.7-2.3,1-3.5c0.4-1.1,0.6-2.3,0.5-3.5c-0.3-2.4-2.4-4.1-4.3-5.5c-2.1-1.6-4.3-3.7-4.3-6.6c0.2-2.2,1.1-4.3,2.5-6
			c1.4-1.7,3-3.3,4.2-5.1c1-1.3,1.5-2.9,1.4-4.5c-0.1-1-0.5-1.9-1-2.8c-1-1.9-2.3-3.6-3-5.6s-0.6-4.5,1-5.9c1.3-1.2,3.2-1.4,4.9-1.2
			c1.6,0.2,3.2,0.7,4.6,1.6c4.6,2.5,7.2,7.9,12,9.9c1.9,0.6,3.9,1.1,5.9,1.4c2,0.5,3.9,1.5,4.8,3.3c1.8,3.5-1.5,7.9-0.3,11.7
			c1.1,3.3,4.3,4.6,6.2,7.6c0.7,1.3,1,2.9,0.8,4.4c-0.2,2.5-0.8,5-1.8,7.4c-1.2,2.3-2.5,4.5-4,6.6
			C109.6,391.1,87.7,403.7,87.6,403.8z"/>
		<path class="st5" d="M100.5,396.9L100.5,396.9c-0.3,0-0.6-0.3-0.6-0.6c0,0,0,0,0,0c0.9-22.5-9.7-47.4-17.4-54.7
			c-0.2-0.2-0.2-0.6,0-0.8c0.2-0.2,0.6-0.2,0.8,0c7.9,7.4,18.7,32.7,17.8,55.5C101.1,396.7,100.8,396.9,100.5,396.9z"/>
		<path class="st5" d="M97.1,370.3c-0.1,0-0.1,0-0.2,0c-5.3-1.5-10.8-2.4-16.4-2.6c-0.3,0-0.6-0.3-0.5-0.6c0-0.3,0.3-0.6,0.6-0.5
			c5.6,0.3,11.2,1.2,16.7,2.7c0.3,0.1,0.5,0.4,0.4,0.7c0,0,0,0,0,0C97.6,370.1,97.3,370.3,97.1,370.3z"/>
	</g>
</g>
<g id="freepik--Target--inject-38">
	<g id="freepik--target--inject-38">
		<g id="freepik--Canvas--inject-38">
			<polygon class="st6" points="176.2,317.7 176.2,314.8 123.8,345 126.3,346.5 			"/>
			<path class="st6" d="M110.9,118.4c0.3,0.1,0.4,0.5,0.3,0.8L67.9,311.7l-1.2,5.5c-0.6,0-1.2-0.1-1.7-0.3l0,0l-2.9-1.7
				c-0.3-0.2-0.4-0.5-0.3-0.8l44.5-197.6c0.1-0.4,0.5-0.6,0.8-0.5c0.1,0,0.1,0,0.2,0.1L110.9,118.4z"/>
			<path class="st7" d="M116.3,115.8L71.6,314.3c-0.1,0.3-0.3,0.6-0.6,0.8l-2.9,1.7c-0.5,0.3-1,0.4-1.5,0.4l1.2-5.5l43.5-193
				L116.3,115.8z"/>
			<path class="st6" d="M121.3,383.4v5.7c-0.6,0-1.1-0.1-1.6-0.4l0,0l-2.7-1.6c-0.4-0.2-0.6-0.5-0.7-0.9V213.8l5,2.9L121.3,383.4z"
				/>
			<path class="st7" d="M126.3,213.8v172.5c-0.1,0.4-0.3,0.7-0.7,0.9l-2.7,1.6c-0.5,0.3-1.1,0.4-1.6,0.4V216.7L126.3,213.8z"/>
			<path class="st6" d="M186.1,351.8c-0.5,0-1.1-0.2-1.6-0.5l-2.8-1.6c-0.4-0.2-0.6-0.6-0.7-1l-29.7-155.1l5,2.9L185,346.2
				L186.1,351.8z"/>
			<path class="st7" d="M191.1,348.9L191.1,348.9c0,0.4-0.3,0.8-0.7,0.9l-2.5,1.5l-0.1,0.1c-0.5,0.3-1.1,0.4-1.6,0.4l-1.1-5.6
				l-28.7-149.7l5-2.9l29.7,155l0,0L191.1,348.9z"/>
			<polygon class="st7" points="124.6,353.2 181.2,320.6 181.2,314.8 124.6,347.5 			"/>
		</g>
		<path class="st3" d="M183.6,45.5L183.6,45.5l-0.1-0.1l-0.3-0.2c-1.4-0.8-7.4-4.2-20.4-11.6c-10.3-5.9-23.1-5.6-37,2.4
			c-34.2,19.8-62,78.4-61.9,131.1c0,31.2,9.8,53.4,24.9,62c9.1,5.2,18.4,10.5,20.5,11.7c0.1,0,0.2,0.1,0.2,0.1l0.2,0.1l0,0
			c10.3,5.7,22.9,5.3,36.7-2.6c34.2-19.8,61.9-78.4,61.9-131.1C208.3,76.2,198.6,54.2,183.6,45.5z"/>
		<path class="st8" d="M183.6,45.5L183.6,45.5l-0.1-0.1l-0.3-0.2c-1.4-0.8-7.4-4.2-20.4-11.6c-10.3-5.9-23.1-5.6-37,2.4
			c-34.2,19.8-62,78.4-61.9,131.1c0,31.2,9.8,53.4,24.9,62c9.1,5.2,18.4,10.5,20.5,11.7c0.1,0,0.2,0.1,0.2,0.1l0.2,0.1l0,0
			c10.3,5.7,22.9,5.3,36.7-2.6c34.2-19.8,61.9-78.4,61.9-131.1C208.3,76.2,198.6,54.2,183.6,45.5z"/>
		<path class="st8" d="M195.1,173.9l-119.6-69c-7.3,19.9-11.6,41.5-11.6,62.3c0,31.2,9.8,53.4,24.9,62c9.1,5.2,18.4,10.5,20.5,11.7
			c0.1,0,0.2,0.1,0.2,0.1l0.2,0.1l0,0c10.3,5.7,22.9,5.3,36.7-2.6C166.2,227.1,183.8,202.6,195.1,173.9z"/>
		<path class="st8" d="M64,173.1c1.2,28.1,10.6,48,24.8,56.1c9.1,5.2,18.4,10.5,20.5,11.7c0.1,0,0.2,0.1,0.2,0.1l0.2,0.1l0,0
			c10.3,5.7,22.9,5.3,36.7-2.6c4.8-2.9,9.4-6.2,13.5-10.1L64,173.1z"/>
		<path class="st3" d="M146.4,47.8c-34.2,19.7-61.9,78.4-61.9,131.1s27.7,79.3,61.9,59.6s61.9-78.5,61.9-131.1
			S180.6,28.1,146.4,47.8z"/>
		<path class="st9" d="M146.4,66.8c-27.4,15.8-49.6,62.9-49.6,105s22.2,63.6,49.6,47.8s49.6-62.8,49.6-105S173.8,50.9,146.4,66.8z"
			/>
		<path class="st3" d="M146.4,85.7c-20.6,11.9-37.3,47.3-37.3,79s16.7,47.8,37.3,35.9s37.3-47.3,37.3-79S167,73.8,146.4,85.7z"/>
		<path class="st9" d="M146.4,104.6c-13.8,8-25,31.7-25,53s11.2,32.1,25,24.1s25-31.7,25-53S160.2,96.6,146.4,104.6z"/>
		<path class="st7" d="M146.4,123.5c-7,4.1-12.7,16.1-12.7,27s5.7,16.3,12.7,12.3s12.7-16.1,12.7-27S153.4,119.5,146.4,123.5z"/>
	</g>
</g>
<g id="freepik--Character--inject-38">
	<g id="freepik--character--inject-38_2_">
		<g id="freepik--character--inject-38_1_">
			<g id="freepik--character--inject-38">
				<path class="st6" d="M379.4,378.9c-0.3,1.9-1.1,3.4,1.3,7.8c1.9,3.4,4.7,4.8,6.5,6c2,1.4,3.8,3.1,5.4,5c1.6,2.1,3.5,3.9,5.6,5.4
					c1.7,1.1,6,0.7,7.9-0.4s2.5-2.9,2-6.2s-10.6-3.1-10.6-3.1L379.4,378.9z"/>
				<path class="st10" d="M406.3,359l-0.5,30.6c0,1.8-9.9,4-12-0.1c-0.3-3.2-0.8-6.3-1.5-9.4c-0.8-3.1-2.1-8.4-2.1-8.4
					c-1.1-6.4-1.6-11.1-1.6-11.1L406.3,359z"/>
				<path class="st10" d="M360.9,373.1c0,0-4.6,28.3-4.8,29.9s-4.5,2.6-7.8,2.5s-5.2-1.6-5.1-2.3l-0.8-30.2L360.9,373.1z"/>
				<path class="st6" d="M365,335.4c0,0,0.4-5.5,3.6-21.9c2.2-11.4,4.1-23.6,4.1-23.6s4,14.8,6.4,26.4c1.7,8.5,3.4,16.4,6.6,32.5
					c1.4,7.1,3.1,14.1,5.2,21c6.3,3.3,15.4-0.5,15.4-0.5s0.4-9.8,0.2-22c-0.2-15.8-3.6-21.9-3.6-21.9s-1.3-21.2-2-36.9
					c-0.9-22.2-0.2-43-5.5-60.3c-0.8-0.2-50-21.7-51.3,7.7c-0.3,7.3-0.9,26.6-1.4,42.1c-0.9,26.3-0.6,45.9-0.7,54.9
					c-0.2,8.6-0.3,16.7-0.1,32.8c0.1,7,0.5,13,0.5,13c5.9,4,18.5-0.9,18.5-0.9s0.6-6.9,2.3-16.7C366.5,344,365,335.4,365,335.4z"/>
				<g class="st11">
					<path d="M364.9,270.1c-2.8-0.8-8.3-4.1-9.4-6.1c-1.2-2.4-1.5-14.9-1.5-15.5V248l20.2-1.4l0.1,0.4c0.6,4.6,1,9.2,1.2,13.8v0.6
						c0.1,2-7.9,8.1-8.7,8.6c-0.2,0.1-0.4,0.2-0.7,0.2C365.7,270.3,365.3,270.2,364.9,270.1z M355,248.9c0.1,3.9,0.5,12.9,1.4,14.6
						s6,4.9,8.8,5.7c1,0.3,1.2,0.1,1.2,0.1c1.7-1.1,8.3-6.7,8.2-7.8v-0.7c-0.1-4.4-0.5-8.9-1.1-13.3L355,248.9z"/>
				</g>
				<g class="st11">
					<path d="M400.3,264.7l0.2-1c-3.4-1.6-8.4-4.4-8.8-5.3c-0.5-1.1-1.4-9.1-1.7-12.6c1-0.3,4.1-1,8.8-2l-0.2-0.9
						c-5.9,1.2-9.2,2.1-9.3,2.1L389,245v0.4c0.1,1.2,1.2,11.8,1.8,13.3S398.9,264,400.3,264.7z"/>
				</g>
				<path class="st3" d="M342.3,370.6l0.1,2.2c0,0,1.8,2.4,9.6,2.5s9.8-1.9,9.8-1.9l0.2-1.9c1.2,0.3,1,1.8,0.2,5.4s-1.5,6.8-2.3,7.6
					s-5,2.1-9.5,1.9s-7.5-2.1-8.3-3.2s-1.1-5.5-1.3-7.9S340.9,370.7,342.3,370.6z"/>
				<path class="st3" d="M387.9,358.6l0.5,2.2c0,0,1.8,2,9.5,1.3s8.6-2.8,8.6-2.8v-1.8c1.6,0.2,2.1,1.5,1.7,5.3s-0.8,7-1.5,7.8
					s-4.7,2.5-9.3,2.8s-6.7-1.1-7.6-2.2s-1.7-5.8-2.2-8.2S386.6,358.9,387.9,358.6z"/>
				<path class="st12" d="M372.7,289.9l3.5-17.5c4.6-2.2,7.9-6.3,9.1-11.3c0,0,0.6,8-6.4,12l-4.3,16.6l1.7,14.3L372.7,289.9z"/>
				<path class="st6" d="M315.2,413.4c-0.7-0.1-0.6,2-0.4,2.9s3.1,3.9,8.3,5s12.2,0.1,15.3,0s8.3,1.4,11.3,1.8s8.5-0.6,10.3-2.3
					c0.6-0.7,0.9-1.6,0.7-2.5c-0.1-2-0.2-2.4-0.5-2.4L315.2,413.4z"/>
				<path class="st7" d="M359.3,399.7c0.3-1.1,0.5-2.2,0.6-3.3c0.1-0.9-0.1-1.9-0.4-2.8c-0.4-0.7-1.1-1.2-1.8-1.4l-0.4,2.8
					c-0.6,0.6-2.2,0.8-2.9,1.3c-1.5,1-1.8,3.1-2.2,4.9c-0.1,0.4-0.2,0.8-0.5,1.2c-1.4,1.7-1.8-1.3-1.9-2.1c-0.1-1.2-0.2-2.5-1.1-3.2
					c-0.9-0.6-1.9-1-3-1c-1-0.1-2.3,0-2.9-1l-0.1-1.8c-0.9-0.1-2.2,0.1-2.5,1c-0.1,0.5-0.2,1-0.1,1.4c0.1,1.3,0.3,2.7,0.6,4
					c0.3,1,0.4,2,0.5,3c0,0.2,0,0.4,0,0.6c-0.2,0.4-0.6,0.8-1,1.1c-1.6,0.8-3.4,1.2-5.2,1.2c-2.6,0.2-4.9-0.2-7.9-0.3
					c-2.7-0.2-5.4,0.4-7.9,1.6c-2.7,1.3-4.2,4.1-4,7c1.1,1.9,2.7,3.4,4.7,4.3c2.5,1,5.1,1.5,7.8,1.7c3.1,0.3,7.5-0.2,10.6-0.4
					c2.6-0.1,5.3,0.2,7.8,0.8c4,0.8,6.7,1,10.3-0.1c1.4-0.4,3.1-1.2,3.7-2.7c0.2-2.1,0.1-4.2-0.4-6.2c-0.1-0.4-0.1-0.8-0.2-1.2
					s-0.2-1-0.4-1.5c-0.2-0.8-0.2-1.6-0.3-2.3c0-0.3-0.2-1-0.4-1.9c0.1-0.9,0.2-1.7,0.4-2.6C359,401,359.2,400.3,359.3,399.7z"/>
				<path class="st9" d="M339.4,404.6c-1.8,1.5-2.9,3.7-3.2,6c0.1,1.5-2.6,1.6-2.7,0.1c0.4-1.9,1.2-3.8,2.4-5.3
					C337,404.7,338.2,404.4,339.4,404.6z"/>
				<path class="st9" d="M333.6,405.5c-1.5,1.3-2.5,3.1-2.9,5.1c0,1.1-2.4,1-2.3-0.1c0,0,0.4-3.6,2.9-5.1
					C332,404.9,333.4,405,333.6,405.5z"/>
				<path class="st9" d="M329,405.2c-1.2,0-3.8,1.6-5.1,5.4c-0.8,2.8-1,5.7-0.6,8.5c-2.6-0.3-4.9-1.5-6.8-3.2
					c-0.7-0.6-1.3-1.3-1.7-2.2c-0.4-2,0.1-4.1,1.3-5.7c1.8-2.1,4.5-3.5,8.9-3.7c4.9-0.2,5.3,1,5.3,1L329,405.2z"/>
				<path class="st7" d="M382.1,374.9c2.4-1.4,9.4,1.8,9.4,1.8l0.4,1.6c0,0,0.3,1.2,0.4,1.7c0.4,1.3,2,1.7,3.2,1.9
					c3.1,0.3,6.3-0.3,9.1-1.6c1.3-0.7,1.4-1.5,1.4-1.5c0-0.5,0-1.7,0-1.7c0.8,0,1.7,0.4,1.5,2c-0.2,2.9-0.5,8.1,0,10.7
					c0.2,1.3,0.6,2.9,0.8,4.2c0.1,0.9,0.1,3.5-1.1,4.6l0,0c-0.3,0.4-0.7,0.7-1.2,1c-2.5,1.6-7,1.3-9.1-0.7c-2.6-2.6-4.5-4.9-8.2-8
					c-2.2-1.8-4.3-2.7-6.1-4.9l0,0c-1-1.3-1.7-2.7-2.2-4.3C379.2,378,379.6,376.3,382.1,374.9z"/>
				<path class="st9" d="M389.1,384.4c0.6-1.7,1.7-3.2,3.2-4.3c-0.1-0.6-0.3-1.2-0.5-1.9c-2.3,1-4,3-4.8,5.3
					C386.7,384.7,388.3,385.4,389.1,384.4z"/>
				<path class="st9" d="M392.7,386c0.2-0.5,0.4-1,0.7-1.5c-0.2-0.8-0.4-1.7-0.7-2.7c-0.9,1-1.6,2.1-2.1,3.4
					C390.3,386.3,391.9,386.9,392.7,386z"/>
				<path class="st9" d="M382.7,386.1L382.7,386.1c0-0.3-0.4-7.2,8.8-9.4c0,0-0.2-0.6-0.2-0.9l0,0c-1.2-1.1-2.6-1.8-4.2-2
					c-3.4-0.5-5.8,0.7-7.2,3.1S380.8,384.9,382.7,386.1z"/>
			</g>
			<path class="st10" d="M329.2,186.7c-3.9-0.9-10.8-3-18.5-5.7c-8.5-3-17.3-5.6-18.8-5.9c-2.8-0.5-6.9-0.2-9.4-0.9
				c-3-0.8-6-1.1-8.7-3c-0.8-0.5-1.4-1.3-1.5-2.2c0-0.5,0.1-0.9,0.1-1.4c0-0.7-0.5-1.4-0.4-2.1c0.1-1,1.2-1.7,1.2-2.8
				c0-0.4-0.1-0.9-0.2-1.3c-0.1-0.8,0.7-1.9,1.1-2.5c0.2-0.3,0.9-0.9,0.5-1.4c-1.3-1.5-2.7-2.8-4.2-4c-2.8-2.3-4.3-4.5-3.1-5.8
				c1.6-1.9,4.5,0.5,8.3,3.1c2.1,1.4,4.1,3,6.2,4.4c0.8,0.6,4.1,3.3,5,1.9c0.2-0.4,0.3-1,0.2-1.4c-0.1-1-0.3-2.1-0.3-3.1
				c-0.1-1,0.1-2.1,0.6-3c0.2-0.4,0.4-0.7,0.8-0.9c0.3-0.2,0.8-0.2,1.1-0.1c0.3,0.2,0.6,0.6,0.7,1c0.5,1.2,1,2.5,1.4,3.8
				c0.6,2.1,1.5,4.1,2.6,6.1c0.9,1.4,2.1,2.6,3.6,3.5c1,0.5,7.7,2.1,9.8,2.6c3.8,0.9,25.1,5.3,25.5,5.4l57.5-6.3l-0.8,18.7
				C389.4,183.4,336.8,188.5,329.2,186.7z"/>
			<path class="st3" d="M387.4,162.8c3.9-0.5,9.8-0.5,13.2,3.9s3.3,7.9,3.3,13.5s-2.8,15.6-2.8,15.6L387.4,162.8z"/>
			<path class="st13" d="M282.8,163.5c0,0.3,0,0.6-0.2,0.8c-0.2,0.2-0.5,0.3-0.8,0.3c-0.3,0-0.6,0-0.9-0.1c-0.2,0-0.5,0-0.6,0.2
				c0,0.1,0,0.3,0.1,0.4c0.4,0.4,0.8,0.7,1.3,1.1c0.5,0.5,1.2,1.4,0.6,2c-0.4,0.4-0.9,0.6-1.4,0.5c-0.4,0-0.8-0.1-1.2-0.2
				c-0.1,0-0.2,0-0.1,0.1c0,0,0,0.1,0,0.1c0.6,0.4,1.1,0.8,1.5,1.4c0.3,0.3,0.4,0.8,0.2,1.2c-0.2,0.5-1,0.7-1.4,0.8h-0.2
				c0,0,0,0,0,0.1h0.1c0.1,0.1,0.3,0.1,0.4,0.1c0.8,0.1,1.5-0.4,1.7-1.1c0.2-0.6,0-1.4-0.5-1.8c0.7,0.1,1.4-0.2,1.8-0.7
				c1-1.1,0.4-2.1-0.5-2.9c0.3-0.1,0.6-0.2,0.8-0.4c0.1,2,0.8,4,2,5.6c-0.8-2.1-1.1-4.4-1.1-6.6c0-0.6,0.1-1.1,0.2-1.6
				c0.1-0.5,0.2-1,0.3-1.5c0.2-0.8,0.4-1.6,0.7-2.3c-0.5,0.3-1,0.7-1.3,1.2c-0.3,0.4-0.3,1.1-0.9,1.1c-0.4,0-0.7-0.1-1.1-0.3
				c-0.3-0.2-0.6-0.4-1-0.5c-0.1,0-0.2,0-0.2,0.1c-0.1,0.1,0,0.2,0.1,0.3c0.8,0.6,1.4,1.5,1.8,2.4
				C282.8,163.2,282.8,163.3,282.8,163.5z"/>
			<polygon class="st10" points="362.4,156 364.3,174.3 382.6,175.3 381.1,154.1 			"/>
			<path class="st13" d="M351.7,134.1c0,0-4.6,6.3-4.2,7s3.6,1.4,3.6,1.4L351.7,134.1z"/>
			<path class="st10" d="M364.6,116.7c-8.8,1.4-11.5,5-13.1,18.8c-1.6,14.4-0.4,19,1.4,21.1c1.2,1.4,8.3,2,12,1.2
				c4.6-1,14.9-4.1,20-11.1c6-8.2,8.1-19.7,2.4-24.8C379.2,114.7,368.1,116.1,364.6,116.7z"/>
			<path class="st6" d="M350.5,121.3c0.6,0.7,1.3,1.3,2.1,1.9c1.1,0.8,2.3,1.6,3.5,2.2c1.2,0.5,2.3,1.1,3.4,1.8
				c1.5,1.2,1.6,2.7,1.6,4.5c0,1.2-0.1,2.7-0.2,4.2c-0.1,2.4,1.3,4.3,2.2,1.1c0,0,1.7-5.3,6.1-4.4s4.6,6,2.2,9.9
				c-1.4,2.4-4.9,1.5-4.9,1.5c-0.5,4.5,1,9,4,12.4c0,0,3.5,2.1,10.6,0.9c5.2-6.4,8.4-9.5,11.3-15.1c6.1-11.9,3.9-19.7-0.2-23.1
				c-0.5-5.7-4.8-8.4-9.8-9.8c-7.4-2.1-14.7,2-22.1-0.1c-1.2-0.3-2.4-0.7-3.6-1.1c-0.4-0.2-1-0.3-1.5-0.2c-0.6,0.3-0.9,1-0.8,1.6
				c0,1.5,0.8,2.8,2,3.7c-0.1-0.1-0.9,0.1-1.1,0.1c-0.4,0-0.8,0-1.2,0c-0.8-0.1-1.7-0.1-2.5-0.3c-0.6-0.1-1.1-0.1-1.7,0
				c-1.3,0.4-2.1,1.6-2.1,3c0.1,1.3,0.5,2.6,1.1,3.7c0.2,0.5,0.5,0.9,0.8,1.3C350.3,121.1,350.4,121.2,350.5,121.3z"/>
			<path class="st13" d="M352.9,156.5c1,1.1,5.8,1.7,9.5,1.5h0.3l-0.3-2C362.5,156,356.5,157.4,352.9,156.5z"/>
			<path class="st7" d="M399.5,172.5c-2.2-5.4-7.1-10.6-13.4-9.5c-1.5,0.2-2.9,0.4-4.2,0.6c-0.7,3.1-10.5,3.4-18.6,1.5l-9.4,1.1
				c-5.8,1.9-10.4,13.1-11.2,30s0.1,43,0.4,54.8c11.6,4.8,24.3,6.1,36.6,3.8c17.3-3.4,20.1-10.9,20.1-10.9l-1.3-30.3
				c0-6.6,2.4-15.5,2.9-19.7C402.9,180.9,400.9,175.8,399.5,172.5z"/>
		</g>
		<g id="freepik--Dart--inject-38">
			<path class="st7" d="M228.5,184.7c-0.8,0.6-1.2,1.5-1.2,2.4c0,0.3,0.2,0.7,0.5,0.9l32.8,16.3l1.7-3.4l-32.8-16.3
				C229.1,184.4,228.7,184.5,228.5,184.7z"/>
			<path class="st7" d="M227.7,188c-4-2-12.2-8.2-12.2-8.2s11.9,3.7,13.9,4.8L227.7,188z"/>
			<polygon class="st14" points="261.3,201 229,185.1 215.5,179.8 228.5,186.4 261.1,202.6 			"/>
			<path class="st6" d="M261.3,201c-0.8,0.6-1.2,1.5-1.2,2.4c0.1,0.9,0.7,1.2,1.4,0.7c0.8-0.6,1.2-1.5,1.2-2.4
				C262.6,200.8,262,200.5,261.3,201z"/>
			<path class="st3" d="M260.1,201.8c4.6-8.4,27.1-19.6,45.7-10.4s53.1,44.9,62.2,63.5c-21.8,3.8-66.5,0.3-84.5-8.6
				S256.2,221.4,260.1,201.8z"/>
			<path class="st15" d="M260.1,201.8c4.6-8.4,27.1-19.6,45.7-10.4s53.1,44.9,62.2,63.5c-21.8,3.8-66.5,0.3-84.5-8.6
				S256.2,221.4,260.1,201.8z"/>
			<path class="st3" d="M276,231.3c-0.9-14.2,6.7-31.3,16.9-38.1c4.3-2.9,8.5-3.5,11.9-2.1c-18.4-8.4-40.2,2.6-44.7,10.8
				c-3.9,19.6,5.5,35.7,23.5,44.6l0,0C279.4,244.3,276.5,239,276,231.3z"/>
			<path class="st16" d="M283.6,246.4c18,8.9,62.6,12.3,84.4,8.6c-19.1,0.4-54.1-5.8-73.9-16.2c-16.4-8.6-30.8-23.8-34-36.9
				C256.2,221.4,265.6,237.5,283.6,246.4z"/>
			<path class="st17" d="M260.1,201.8c17.6-7.1,35.9-3.3,48.3,3.4s50.1,35.9,59.6,49.8c0,0-27.1-37.6-56.5-55
				S260.1,201.8,260.1,201.8z"/>
			<path class="st3" d="M406.8,290.8c-2.9,4.1-13.6-1.1-25.1-10.5l0,0l-6.1-13l2.1,9.6c-7.2-6.3-13.7-13.2-19.5-20.8
				c3.4-0.2,6.6-0.6,9.8-1.1l16.1,7.8C384.2,262.8,411.8,283.8,406.8,290.8z"/>
			<path class="st16" d="M406.8,290.8c-2.9,4.1-13.6-1.1-25.1-10.5l0,0l-6.1-13l2.1,9.6c-7.2-6.3-13.7-13.2-19.5-20.8
				c3.4-0.2,6.6-0.6,9.8-1.1l16.1,7.8C384.2,262.8,411.8,283.8,406.8,290.8z"/>
			<g class="st4">
				<path d="M358.3,256.1c2.8,3.7,5.8,7.3,9,10.6c-2.3-2.6-4.1-5.6-5.6-8.8l6.4-1.1l16,5.9L368,255
					C364.9,255.5,361.6,255.9,358.3,256.1z"/>
			</g>
			<path class="st3" d="M384.1,262.8L368,255c-4.3-3.7-5.2-5.5-9.5-8.8c7.2-0.7,14.5-1,21.8-0.8l-3.8,5.4l10-5
				c8.8,0.9,14.5,2.9,17.7,5.6C413.9,259.6,401.8,266.5,384.1,262.8z"/>
			<path class="st17" d="M376.6,250.8l3.8-5.4c-7.3-0.2-14.6,0.1-21.8,0.8c0,0,16.7-0.2,19.4,0.3L376.6,250.8z"/>
			<path class="st17" d="M393,263.8c12.4,0.2,19.2-5.6,11.3-12.4c-3.2-2.7-8.9-4.7-17.7-5.6l-5,2.5l5.6-1.5c0,0,11.4,1.1,16.5,6.8
				C406.7,257,403.2,263.7,393,263.8z"/>
		</g>
		<path class="st10" d="M351.3,191.5c-10.5,19.9-16.6,33.4-19.9,36.7s-28.3,23-37.3,23.9s-17.1-1.9-17.9-6.5c-0.3-1.3-0.3-2.6,0-3.9
			c0,0,2.2,1.5,2.3,1.6c2.8,0.9,6.9,0.6,8.9-0.9c2.9-2.2-3.7-4-5.2-5.9c-2-2.4-1.1-4.9,3.9-2.7c4.3,1.9,8.2,3.4,11.3,3.3
			s20.8-18.7,20.8-18.7s9.5-20.1,14-30.9c8.3-20.2,16.5-20.1,20.9-20.2L351.3,191.5z"/>
		<path class="st3" d="M353.9,166.2c-4.3,0.4-7.6,0.6-11.2,2.5c-4.4,2.3-5.9,6.4-7.9,11c-3.8,8.6-7.4,16.5-7.4,16.5
			c1.4,3.9,9.5,13.3,16.8,10.5c0,0,6.1-10.6,9.3-17.4C356.5,182.9,357.1,171.5,353.9,166.2z"/>
	</g>
</g>
</svg>
