<?xml version="1.0" encoding="utf-8"?>
<!-- Generator: Adobe Illustrator 25.2.1, SVG Export Plug-In . SVG Version: 6.00 Build 0)  -->
<svg version="1.1" id="Capa_1" xmlns="http://www.w3.org/2000/svg" xmlns:xlink="http://www.w3.org/1999/xlink" x="0px" y="0px"
	 viewBox="0 0 500 500" style="enable-background:new 0 0 500 500;" xml:space="preserve">
<style type="text/css">
	.st0{fill:#37474F;}
	.st1{fill:#FFFFFF;}
	.st2{fill:#455A64;}
	.st3{fill:#E2B700;}
	.st4{fill:#C19C00;}
	.st5{fill:#263238;}
	.st6{fill:#FFC100;}
	.st7{opacity:0.6;fill:#FFFFFF;enable-background:new    ;}
	.st8{opacity:0.5;}
	.st9{opacity:0.3;enable-background:new    ;}
	.st10{opacity:0.15;enable-background:new    ;}
	.st11{opacity:0.4;fill:#FFFFFF;enable-background:new    ;}
</style>
<g id="freepik--Plants--inject-4">
	<g id="freepik--plants--inject-4">
		<g id="freepik--Plant--inject-4">
			<path class="st0" d="M328.7,271.9c-5.4-16.6-7.8-34.1-7-51.5c1.2-31.9,15.1-54.7,32.2-50.8c9.8,2.2,15.5,9.2,1.5,33.1
				c-9.4,16.2-12.7,28.7-16.9,58.5L328.7,271.9z"/>
			<path class="st1" d="M331.7,255.8l-0.3,0.1c-0.5,0.1-1-0.2-1.1-0.7c0,0,0,0,0,0c-9.1-43,11.1-70.1,17.4-77.3
				c0.3-0.4,0.9-0.6,1.3-0.3c0.4,0.3,0.6,0.9,0.3,1.3c0,0.1-0.1,0.1-0.2,0.2c-12.9,14.7-24.1,42.3-17,75.8
				C332.2,255.3,332,255.6,331.7,255.8z"/>
		</g>
		<g id="freepik--plant--inject-4">
			<path class="st2" d="M353.9,223.1c-1.7-0.1-3.5,0.1-5.1,0.6c-2.9,1-5.5,2.8-7.3,5.3c-0.6,0.7-1.1,1.5-1.5,2.4
				c-0.9,2.8-1.5,5.7-1.6,8.6c-0.2,2.1-1,4-2.3,5.6c-2.4,2.6-6.7,3.1-8.4,6.2c-0.5,1-0.7,2-0.8,3c-0.4,2.8-0.2,5.6,0.6,8.3
				c0.8,3,1.6,5.9,2.5,8.9c1.9,6.5,4.7,12.9,5.3,19.8c0.1,1.1-0.3,3.2,0.5,3.9s4.1,0.3,5.1,0.3c3.7,0,7.3-0.5,10.9-1.5
				c4.2-0.9,8-3,10.9-6.1c2.2-2.6,4-7.1,2-10.2c-0.8-1.1-1.5-2.3-1.8-3.7c-0.1-2,0.9-3.9,2.7-4.8c1.7-0.9,3.6-1.5,5.6-1.7
				c4.7-0.8,9.5-1.8,13.4-4.6c3.9-2.8,6.5-7.9,4.9-12.4c-0.7-1.5-1.4-3.1-1.8-4.7c-0.4-3.3,2.6-6.2,5.6-7.7c3.3-1.3,5.2-4.8,4.7-8.3
				c-0.3-2.2-1.4-4.2-3.1-5.7c-3.9-3.7-10.5-4.1-15.5-2.6c-3.6,1.1-6.7,3.3-10.3,4.3c-1.9,0.6-3.9,0.7-5.8,0.3
				c-1.9-0.8-3.8-1.7-5.5-2.8C356.5,223.5,355.2,223.2,353.9,223.1z"/>
			<path class="st1" d="M333.3,280.1c0.4,0,0.7-0.2,0.8-0.6c6.2-25.4,37.6-44.2,53.5-47.5c0.4-0.1,0.7-0.5,0.6-1
				c-0.1-0.4-0.5-0.7-1-0.6c-16.3,3.4-48.4,22.6-54.7,48.7c-0.1,0.4,0.2,0.9,0.6,1c0,0,0,0,0,0L333.3,280.1z"/>
			<path class="st1" d="M374.5,253.9c0.4,0,0.8-0.4,0.7-0.9c0-0.3-0.2-0.6-0.5-0.7c-0.5-0.2-12.8-5.6-23.7-1.1
				c-0.4,0.2-0.6,0.6-0.4,1.1c0.2,0.4,0.6,0.6,1.1,0.4c0,0,0,0,0,0c10.3-4.2,22.3,1,22.4,1.1C374.2,253.9,374.3,253.9,374.5,253.9z"
				/>
			<path class="st1" d="M346,257.9h-0.3c-0.4-0.2-0.6-0.6-0.4-1.1c3-6.9,3.7-14.5,1.9-21.8c-0.1-0.4,0.1-0.9,0.5-1
				c0.4-0.1,0.9,0.1,1,0.5c0.1,0.4,3.1,10.2-2,22.9C346.5,257.7,346.2,257.9,346,257.9z"/>
		</g>
	</g>
</g>
<g id="freepik--Floor--inject-4">
	<ellipse id="freepik--floor--inject-4" class="st3" cx="266.6" cy="358.9" rx="157.9" ry="91.2"/>
</g>
<g id="freepik--Shadows--inject-4">
	<path id="freepik--Shadow--inject-4" class="st4" d="M225.8,439.1c-2.4,0-4.7-0.5-6.8-1.7l-100.7-58.2c-3.5-1.7-5-5.8-3.3-9.3
		c0.7-1.5,1.9-2.7,3.3-3.3l177.3-102.4c4.2-2.2,9.3-2.2,13.5,0l100.7,58.2c3.5,1.6,5,5.8,3.4,9.3c-0.7,1.5-1.9,2.7-3.4,3.4
		L232.6,437.4C230.5,438.5,228.2,439.1,225.8,439.1z"/>
</g>
<g id="freepik--Device--inject-4">
	<g id="freepik--Laptop--inject-4">
		<g id="freepik--laptop--inject-4">
			<path class="st0" d="M115.8,365.5c0.2,3.2,2,6,4.7,7.7l100.7,58.2c2.9,1.5,6.3,1.5,9.3,0l177.3-102.4c4.2-2.2,5.9-7.5,3.6-11.8
				c-0.8-1.5-2.1-2.8-3.6-3.6l-100.8-58.2c-2.9-1.5-6.3-1.5-9.3,0L120.5,357.8C117.8,359.5,116.1,362.3,115.8,365.5z"/>
			<path class="st5" d="M225.8,422.4v10c-1.6,0-3.2-0.3-4.6-1.1l-100.7-58.2c-4.2-2.2-5.9-7.5-3.6-11.7c0.7-1.4,1.8-2.6,3.2-3.4
				c-2.1,1.5-1.9,3.7,0.5,5l100.7,58.2C222.6,422.1,224.2,422.4,225.8,422.4z"/>
			<path class="st2" d="M111.5,357.9c-2.3-1.4-2.3-3.7-2.3-6.7V212.2c0.2-3.3,1.9-6.2,4.7-8l177.3-102.4c2.8-1.5,6.1-1.5,9-0.2
				c2.3,1.4,2.3,3.7,2.3,6.7v139.2c-0.2,3.3-1.9,6.2-4.7,8L120.5,357.8C117.7,359.3,114.4,359.3,111.5,357.9z"/>
			<path class="st5" d="M119.9,358.1c-2.7,1.2-5.8,1.2-8.4-0.1c-2.3-1.4-2.3-3.7-2.3-6.7V212.2c0.1-1.6,0.5-3.1,1.4-4.5l6.6,3.8l0,0
				c-0.8,1.4-1.3,2.9-1.4,4.6v139.1C115.8,357.9,117.6,359.1,119.9,358.1z"/>
			<path class="st0" d="M115.8,216v139.1c0,2.9,2.1,4.1,4.7,2.7l177.3-102.4c2.8-1.8,4.5-4.7,4.7-8V108.3c0-2.9-2.1-4.1-4.7-2.7
				L120.5,208C117.7,209.8,116,212.8,115.8,216z"/>
			<path class="st2" d="M120.5,363.1l100.7,58.2c2.9,1.5,6.3,1.5,9.3,0l177.3-102.4c2.6-1.5,2.6-3.9,0-5.3l-100.7-58.2
				c-2.9-1.5-6.3-1.5-9.3,0L120.5,357.8C117.9,359.3,117.9,361.7,120.5,363.1z"/>
			<path class="st6" d="M123,213.3l171-98.7c1.5-0.9,2.8-0.2,2.8,1.6v128.1c-0.1,2-1.1,3.7-2.8,4.8l-171,98.7
				c-1.5,0.9-2.8,0.2-2.8-1.6v-128C120.3,216.2,121.3,214.4,123,213.3z"/>
			<path class="st7" d="M123,213.3l171-98.7c1.5-0.9,2.8-0.2,2.8,1.6v128.1c-0.1,2-1.1,3.7-2.8,4.8l-171,98.7
				c-1.5,0.9-2.8,0.2-2.8-1.6v-128C120.3,216.2,121.3,214.4,123,213.3z"/>
			<path class="st5" d="M133.3,358.1l164.7-95c1.5-0.8,3.2-0.8,4.7,0l2.7,1.5c0.7,0.2,1.1,1,0.9,1.8c-0.1,0.4-0.5,0.8-0.9,0.9
				l-164.8,95c-1.5,0.8-3.2,0.8-4.7,0l-2.7-1.5c-0.7-0.3-1.1-1.1-0.9-1.8C132.5,358.5,132.8,358.2,133.3,358.1z"/>
			<path class="st5" d="M146.2,365.7l164.6-95c1.3-0.7,2.9-0.8,4.2-0.2l42.8,24.7c1.1,0.6,0.9,1.7-0.4,2.4l-164.4,94.9
				c-1.3,0.7-2.9,0.8-4.2,0.2l-43-24.6C144.7,367.6,144.9,366.5,146.2,365.7z"/>
			<path class="st6" d="M288.8,310.6l5.2-3c0.2-0.1,0.2-0.3,0-0.4l-4.9-2.8c-0.2-0.1-0.5-0.1-0.7,0l-5.1,3c-0.2,0.1-0.2,0.3,0,0.4
				l4.9,2.8C288.3,310.7,288.6,310.7,288.8,310.6z M281.3,300.3l-5.2,3c-0.2,0.1-0.2,0.3,0,0.4l4.9,2.8c0.2,0.1,0.5,0.1,0.7,0l5.2-3
				c0.2-0.1,0.2-0.3,0-0.4l-4.9-2.8C281.8,300.2,281.5,300.2,281.3,300.3L281.3,300.3z M264.6,309.9l-8.7,5c-0.2,0.1-0.2,0.3,0,0.4
				l4.9,2.8c0.2,0.1,0.5,0.1,0.7,0l8.7-5c0.2-0.1,0.2-0.3,0-0.4l-4.9-2.8C265.2,309.8,264.9,309.8,264.6,309.9L264.6,309.9z
				 M273.8,304.7l-5.1,3c-0.2,0.1-0.2,0.3,0,0.4l4.9,2.8c0.2,0.1,0.5,0.1,0.7,0l5.2-3c0.2-0.1,0.2-0.3,0-0.4l-4.9-2.9
				C274.3,304.5,274,304.5,273.8,304.7L273.8,304.7z M253.5,316.4l-5.1,3c-0.2,0.1-0.2,0.3,0,0.4l4.9,2.9c0.2,0.1,0.5,0.1,0.7,0
				l5.2-3c0.2-0.1,0.2-0.3,0-0.4l-4.9-2.8C254.1,316.2,253.8,316.2,253.5,316.4L253.5,316.4z M246,320.7l-5.1,3
				c-0.2,0.1-0.2,0.3,0,0.4l4.9,2.8c0.2,0.1,0.5,0.1,0.7,0l5.2-3c0.2-0.1,0.2-0.3,0-0.4l-4.9-2.8C246.5,320.6,246.2,320.6,246,320.7
				L246,320.7z M265.3,332.3l5.2-3c0.2-0.1,0.2-0.3,0-0.4l-4.9-2.8c-0.2-0.1-0.5-0.1-0.7,0l-5.1,3c-0.2,0.1-0.2,0.3,0,0.4l4.9,2.8
				C264.8,332.4,265.1,332.4,265.3,332.3L265.3,332.3z M257.8,336.7l5.2-3c0.2-0.1,0.2-0.3,0-0.4l-4.9-2.8c-0.2-0.1-0.5-0.1-0.7,0
				l-5.1,3c-0.2,0.1-0.2,0.3,0,0.4l4.9,2.9C257.3,336.8,257.6,336.8,257.8,336.7L257.8,336.7z M250.3,341.1l5.1-3
				c0.2-0.1,0.2-0.3,0-0.4l-4.9-2.9c-0.2-0.1-0.5-0.1-0.7,0l-5.1,3c-0.2,0.1-0.2,0.3,0,0.4l4.9,2.8
				C249.8,341.2,250,341.2,250.3,341.1z M242.7,345.4l5.1-3c0.2-0.1,0.2-0.3,0-0.4l-4.9-2.8c-0.2-0.1-0.5-0.1-0.7,0l-5.1,3
				c-0.2,0.1-0.2,0.3,0,0.4l4.9,2.8C242.3,345.5,242.5,345.5,242.7,345.4L242.7,345.4z M281.3,315l5.2-3c0.2-0.1,0.2-0.3,0-0.4
				l-4.9-2.9c-0.2-0.1-0.5-0.1-0.7,0l-5.1,3c-0.2,0.1-0.2,0.3,0,0.4l4.9,2.9C280.8,315.1,281.1,315.1,281.3,315L281.3,315z
				 M272.9,328l11.5-6.6c0.2-0.1,0.2-0.3,0-0.4l-12-6.9c-0.2-0.1-0.5-0.1-0.7,0l-5.9,3.4c-0.2,0.1-0.2,0.3,0,0.4l6.3,3.7
				c0.2,0.1,0.2,0.3,0,0.4l-4.8,2.7c-0.2,0.1-0.2,0.3,0,0.4l4.9,2.8C272.4,328.1,272.6,328.1,272.9,328L272.9,328z M238.5,325.1
				l-5.2,3c-0.2,0.1-0.2,0.3,0,0.4l4.9,2.8c0.2,0.1,0.5,0.1,0.7,0l5.1-3c0.2-0.1,0.2-0.3,0-0.4l-4.9-2.9
				C239,324.9,238.7,324.9,238.5,325.1L238.5,325.1z M231,329.4l-5.2,3c-0.2,0.1-0.2,0.3,0,0.4l4.9,2.8c0.2,0.1,0.5,0.1,0.7,0l5.1-3
				c0.2-0.1,0.2-0.3,0-0.4l-4.9-2.8C231.5,329.2,231.2,329.2,231,329.4z M189.3,375.8c0.2,0.1,0.5,0.1,0.7,0l5.2-3
				c0.2-0.1,0.2-0.3,0-0.4l-4.9-2.8c-0.2-0.1-0.5-0.1-0.7,0l-5.2,3c-0.2,0.1-0.2,0.3,0,0.4L189.3,375.8z M170.7,364.1l-5.1,3
				c-0.2,0.1-0.2,0.3,0,0.4l4.9,2.8c0.2,0.1,0.5,0.1,0.7,0l5.2-3c0.2-0.1,0.2-0.3,0-0.4l-4.9-2.8C171.2,364,170.9,364,170.7,364.1
				L170.7,364.1z M180.2,372.8c0.2,0.1,0.5,0.1,0.7,0l5.1-3c0.2-0.1,0.2-0.3,0-0.4l-4.9-2.9c-0.2-0.1-0.5-0.1-0.7,0l-5.1,3
				c-0.2,0.1-0.2,0.3,0,0.4L180.2,372.8z M201,377.5l5.1-3c0.2-0.1,0.2-0.3,0-0.4l-4.9-2.8c-0.2-0.1-0.5-0.1-0.7,0l-5.2,3
				c-0.2,0.1-0.2,0.3,0,0.4l4.9,2.8C200.5,377.6,200.8,377.7,201,377.5L201,377.5z M192.7,382c0.2,0.1,0.5,0.1,0.7,0l5.2-3
				c0.2-0.1,0.2-0.3,0-0.4l-4.8-2.9c-0.2-0.1-0.5-0.1-0.7,0l-5.2,3c-0.2,0.1-0.2,0.3,0,0.4L192.7,382z M178.2,359.9l-5.1,3
				c-0.2,0.1-0.2,0.3,0,0.4l4.9,2.9c0.2,0.1,0.5,0.1,0.7,0l5.2-3c0.2-0.1,0.2-0.3,0-0.4l-4.9-3C178.7,359.7,178.4,359.7,178.2,359.9
				L178.2,359.9z M215.9,338.2l-5.1,3c-0.2,0.1-0.2,0.3,0,0.4l4.9,2.8c0.2,0.1,0.5,0.1,0.7,0l5.2-3c0.2-0.1,0.2-0.3,0-0.4l-4.9-2.9
				C216.4,338,216.1,338,215.9,338.2L215.9,338.2z M185.8,355.5l-5.2,3c-0.2,0.1-0.2,0.3,0,0.4l4.9,2.8c0.2,0.1,0.5,0.1,0.7,0l5.1-3
				c0.2-0.1,0.2-0.3,0-0.4l-4.9-2.9C186.3,355.4,186,355.4,185.8,355.5L185.8,355.5z M223.4,333.8l-5.2,3c-0.2,0.1-0.2,0.3,0,0.4
				l4.9,2.9c0.2,0.1,0.5,0.1,0.7,0l5.1-3c0.2-0.1,0.2-0.3,0-0.4l-4.9-2.8C223.9,333.7,223.7,333.6,223.4,333.8L223.4,333.8z
				 M208.3,342.5l-5.1,3c-0.2,0.1-0.2,0.3,0,0.4l4.9,2.8c0.2,0.1,0.5,0.1,0.7,0l5.2-3c0.2-0.1,0.2-0.3,0-0.4l-4.9-2.8
				C208.9,342.4,208.6,342.3,208.3,342.5L208.3,342.5z M200.8,346.8l-5.1,3c-0.2,0.1-0.2,0.3,0,0.4l4.9,2.9c0.2,0.1,0.5,0.1,0.7,0
				l5.1-3c0.2-0.1,0.2-0.3,0-0.4l-4.9-2.8C201.3,346.7,201.1,346.7,200.8,346.8z M193.3,351.1l-5.2,3c-0.2,0.1-0.2,0.3,0,0.4
				l4.9,2.8c0.2,0.1,0.5,0.1,0.7,0l5.1-3c0.2-0.1,0.2-0.3,0-0.4l-4.9-2.8C193.8,351,193.5,351,193.3,351.1L193.3,351.1z
				 M227.7,354.1l5.2-3c0.2-0.1,0.2-0.3,0-0.4l-4.9-2.8c-0.2-0.1-0.5-0.1-0.7,0l-5.2,3c-0.2,0.1-0.2,0.3,0,0.4l4.9,2.8
				C227.2,354.2,227.4,354.2,227.7,354.1L227.7,354.1z M297.9,290.7l-5.1,3c-0.2,0.1-0.2,0.3,0,0.4l4.9,2.9c0.2,0.1,0.5,0.1,0.7,0
				l5.2-3c0.2-0.1,0.2-0.3,0-0.4l-4.9-2.9C298.5,290.6,298.2,290.6,297.9,290.7z M288.8,296l-5.2,2.9c-0.2,0.1-0.2,0.3,0,0.4
				l4.9,2.9c0.2,0.1,0.5,0.1,0.7,0l5.1-3c0.2-0.1,0.2-0.3,0-0.4l-4.9-2.8C289.3,295.9,289.1,295.9,288.8,296L288.8,296z
				 M305.5,286.4l-5.2,2.9c-0.2,0.1-0.2,0.3,0,0.4l4.9,2.8c0.2,0.1,0.5,0.1,0.7,0l5.2-3c0.2-0.1,0.2-0.3,0-0.4l-4.9-2.8
				C306,286.3,305.7,286.3,305.5,286.4L305.5,286.4z M263.8,325.1l5.2-3c0.2-0.1,0.2-0.3,0-0.4l-4.9-2.8c-0.2-0.1-0.5-0.1-0.7,0
				l-5.1,3c-0.2,0.1-0.2,0.3,0,0.4l4.9,2.8C263.4,325.2,263.6,325.2,263.8,325.1L263.8,325.1z M313.8,282c-0.2-0.1-0.5-0.1-0.7,0
				l-5.2,3c-0.2,0.1-0.2,0.3,0,0.4l4.9,2.8c0.2,0.1,0.5,0.1,0.7,0l5.1-3c0.2-0.1,0.2-0.3,0-0.4L313.8,282z M235.2,349.7l5.1-3
				c0.2-0.1,0.2-0.3,0-0.4l-4.9-2.8c-0.2-0.1-0.5-0.1-0.7,0l-5.2,3c-0.2,0.1-0.2,0.3,0,0.4l4.9,2.9
				C234.7,349.8,235,349.8,235.2,349.7L235.2,349.7z M327.6,296.4l5.1-3c0.2-0.1,0.2-0.3,0-0.4l-4.9-2.8c-0.2-0.1-0.5-0.1-0.7,0
				l-5.2,2.9c-0.2,0.1-0.2,0.3,0,0.4l4.9,2.8C327.1,296.5,327.4,296.5,327.6,296.4L327.6,296.4z M313.1,296.7l5.2-3
				c0.2-0.1,0.2-0.3,0-0.4l-4.9-2.8c-0.2-0.1-0.5-0.1-0.7,0l-5.1,3c-0.2,0.1-0.2,0.3,0,0.4l4.9,2.9
				C312.5,296.8,312.8,296.8,313.1,296.7L313.1,296.7z M320.9,286.1c-0.2-0.1-0.5-0.1-0.7,0l-5.2,3c-0.2,0.1-0.2,0.3,0,0.4l4.9,2.9
				c0.2,0.1,0.5,0.1,0.7,0l5.1-3c0.2-0.1,0.2-0.3,0-0.4L320.9,286.1z M322.4,285.2l12,6.9c0.2,0.1,0.5,0.1,0.7,0l5.1-3
				c0.2-0.1,0.2-0.3,0-0.4l-12-7c-0.2-0.1-0.5-0.1-0.7,0l-5.2,3C322.2,284.9,322.2,285,322.4,285.2L322.4,285.2z M305,294.8l-5.1,3
				c-0.2,0.1-0.2,0.3,0,0.4l4.9,2.8c0.2,0.1,0.5,0.1,0.7,0l5.2-3c0.2-0.1,0.2-0.3,0-0.4l-4.9-2.9C305.5,294.7,305.2,294.7,305,294.8
				z M248.3,327.5l-5.1,3c-0.2,0.1-0.2,0.3,0,0.4l4.9,2.9c0.2,0.1,0.5,0.1,0.7,0l5.1-3c0.2-0.1,0.2-0.3,0-0.4l-4.9-2.8
				C248.8,327.4,248.5,327.4,248.3,327.5L248.3,327.5z M319.3,300.8c0.2,0.1,0.5,0.1,0.7,0l5.2-3c0.2-0.1,0.2-0.3,0-0.4l-4.9-2.9
				c-0.2-0.1-0.5-0.1-0.7,0l-5.1,3c-0.2,0.1-0.2,0.3,0,0.4L319.3,300.8z M255.8,323.2l-5.2,3c-0.2,0.1-0.2,0.3,0,0.4l4.9,2.8
				c0.2,0.1,0.5,0.1,0.7,0l5.1-3c0.2-0.1,0.2-0.3,0-0.4l-4.9-2.9C256.3,323,256.1,323,255.8,323.2z M196.8,371.5
				c0.2,0.1,0.5,0.1,0.7,0l5.1-3c0.2-0.1,0.2-0.3,0-0.4l-4.9-2.9c-0.2-0.1-0.5-0.1-0.7,0l-5.2,3c-0.2,0.1-0.2,0.3,0,0.4L196.8,371.5
				z M188,362.3l-5.1,3c-0.2,0.1-0.2,0.3,0,0.4l4.9,2.8c0.2,0.1,0.5,0.1,0.7,0l5.2-3c0.2-0.1,0.2-0.3,0-0.4l-4.9-2.8
				C188.5,362.2,188.3,362.2,188,362.3z M205.1,367.1l5.1-3c0.2-0.1,0.2-0.3,0-0.4l-4.9-2.8c-0.2-0.1-0.5-0.1-0.7,0l-5.2,3
				c-0.2,0.1-0.2,0.3,0,0.4l4.9,2.8C204.6,367.2,204.8,367.2,205.1,367.1z M212.6,362.8l5.2-3c0.2-0.1,0.2-0.3,0-0.4l-4.9-2.8
				c-0.2-0.1-0.5-0.1-0.7,0l-5.1,3c-0.2,0.1-0.2,0.3,0,0.4l4.9,2.9C212.1,362.9,212.4,362.9,212.6,362.8L212.6,362.8z M220.1,358.4
				l5.2-3c0.2-0.1,0.2-0.3,0-0.4l-4.9-2.9c-0.2-0.1-0.5-0.1-0.7,0l-5.1,3c-0.2,0.1-0.2,0.3,0,0.4l4.9,2.8
				C219.6,358.5,219.9,358.5,220.1,358.4L220.1,358.4z M195.6,357.9l-5.1,3c-0.2,0.1-0.2,0.3,0,0.4l4.9,2.9c0.2,0.1,0.5,0.1,0.7,0
				l5.2-3c0.2-0.1,0.2-0.3,0-0.4l-4.9-2.8C196.1,357.8,195.8,357.8,195.6,357.9z M203.1,353.6l-5.2,3c-0.2,0.1-0.2,0.3,0,0.4
				l4.9,2.8c0.2,0.1,0.5,0.1,0.7,0l5.2-3c0.2-0.1,0.2-0.3,0-0.4l-4.9-2.9C203.6,353.5,203.3,353.5,203.1,353.6z M233.2,336.2l-5.1,3
				c-0.2,0.1-0.2,0.3,0,0.4l4.9,2.8c0.2,0.1,0.5,0.1,0.7,0l5.2-3c0.2-0.1,0.2-0.3,0-0.4l-4.9-2.9
				C233.7,336.1,233.5,336.1,233.2,336.2L233.2,336.2z M225.7,340.6l-5.1,3c-0.2,0.1-0.2,0.3,0,0.4l4.9,2.8c0.2,0.1,0.5,0.1,0.7,0
				l5.2-3c0.2-0.1,0.2-0.3,0-0.4l-4.9-2.8C226.2,340.4,225.9,340.4,225.7,340.6z M240.8,331.9l-5.2,3c-0.2,0.1-0.2,0.3,0,0.4
				l4.9,2.8c0.2,0.1,0.5,0.1,0.7,0l5.2-3c0.2-0.1,0.2-0.3,0-0.4l-4.9-2.8C241.3,331.7,241,331.7,240.8,331.9z M210.6,349.2l-5.1,3
				c-0.2,0.1-0.2,0.3,0,0.4l4.9,2.8c0.2,0.1,0.5,0.1,0.7,0l5.1-3c0.2-0.1,0.2-0.3,0-0.4l-5-2.9C211.1,349.1,210.9,349.1,210.6,349.2
				z M218.2,344.9l-5.1,3c-0.2,0.1-0.2,0.3,0,0.4l4.9,2.9c0.2,0.1,0.5,0.1,0.7,0l5.1-3c0.2-0.1,0.2-0.3,0-0.4l-4.9-2.8
				C218.7,344.8,218.4,344.8,218.2,344.9L218.2,344.9z M208.6,373.2l5.1-2.9c0.2-0.1,0.2-0.3,0-0.4l-4.9-2.9c-0.2-0.1-0.5-0.1-0.7,0
				l-5.2,3c-0.2,0.1-0.2,0.3,0,0.4l4.9,2.8C208,373.4,208.3,373.4,208.6,373.2z M168.8,371.4l-4.9-2.9c-0.2-0.1-0.5-0.1-0.7,0
				l-5.1,3c-0.2,0.1-0.2,0.3,0,0.4l4.9,2.8c0.2,0.1,0.5,0.1,0.7,0l5.1-3C169,371.7,169,371.5,168.8,371.4z M178.6,373.8l-4.9-2.8
				c-0.2-0.1-0.5-0.1-0.7,0l-7.9,4.6c-0.2,0.1-0.2,0.3,0,0.4l4.9,2.9c0.2,0.1,0.5,0.1,0.7,0l7.9-4.6
				C178.8,374.1,178.8,373.9,178.6,373.8z M161.4,365.7l-4.9-2.8c-0.2-0.1-0.5-0.1-0.7,0l-6.3,3.7c-0.2,0.1-0.2,0.3,0,0.4l4.9,2.8
				c0.2,0.1,0.5,0.1,0.7,0l6.3-3.7C161.6,366,161.7,365.8,161.4,365.7L161.4,365.7z M166.3,362.9c0.2,0.1,0.5,0.1,0.7,0l5.2-3
				c0.2-0.1,0.2-0.3,0-0.4l-4.9-2.9c-0.2-0.1-0.5-0.1-0.7,0l-5.1,3c-0.2,0.1-0.2,0.3,0,0.4L166.3,362.9z M187.6,376.7l-4.9-2.8
				c-0.2-0.1-0.5-0.1-0.7,0l-9.9,5.8c-0.2,0.1-0.2,0.3,0,0.4l4.9,2.8c0.2,0.1,0.5,0.1,0.7,0l9.9-5.7
				C187.8,377,187.9,376.9,187.6,376.7L187.6,376.7z M191.1,382.9l-4.9-2.9c-0.2-0.1-0.5-0.1-0.7,0l-6.3,3.7c-0.2,0.1-0.2,0.3,0,0.4
				l4.9,2.8c0.2,0.1,0.5,0.1,0.7,0l6.3-3.7C191.3,383.2,191.3,383,191.1,382.9L191.1,382.9z M222.3,330.6c0.2,0.1,0.5,0.1,0.7,0
				l5.2-3c0.2-0.1,0.2-0.3,0-0.4l-4.9-2.8c-0.2-0.1-0.5-0.1-0.7,0l-5.1,3c-0.2,0.1-0.2,0.3,0,0.4L222.3,330.6z M207.3,339.3
				c0.2,0.1,0.5,0.1,0.7,0l5.1-3c0.2-0.1,0.2-0.3,0-0.4l-4.9-2.9c-0.2-0.1-0.5-0.1-0.7,0l-5.1,3c-0.2,0.1-0.2,0.3,0,0.4L207.3,339.3
				z M173.9,358.6c0.2,0.1,0.5,0.1,0.7,0l5.2-3c0.2-0.1,0.2-0.3,0-0.4l-4.9-2.8c-0.2-0.1-0.5-0.1-0.7,0l-5.1,3
				c-0.2,0.1-0.2,0.3,0,0.4L173.9,358.6z M214.9,335c0.2,0.1,0.5,0.1,0.7,0l5.2-3c0.2-0.1,0.2-0.3,0-0.4l-4.9-2.9
				c-0.2-0.1-0.5-0.1-0.7,0l-5.1,3c-0.2,0.1-0.2,0.3,0,0.4L214.9,335z M199.8,343.7c0.2,0.1,0.5,0.1,0.7,0l5.1-3
				c0.2-0.1,0.2-0.3,0-0.4l-4.9-2.8c-0.2-0.1-0.5-0.1-0.7,0l-5.2,3c-0.2,0.1-0.2,0.3,0,0.4L199.8,343.7z M194.9,383.2
				c-0.2-0.1-0.5-0.1-0.7,0l-7.9,4.6c-0.2,0.1-0.2,0.3,0,0.4l4.9,2.8c0.2,0.1,0.5,0.1,0.7,0l7.9-4.6c0.2-0.1,0.2-0.3,0-0.4
				L194.9,383.2z M188.9,349.9c0.2,0.1,0.5,0.1,0.7,0l5.1-3c0.2-0.1,0.2-0.3,0-0.4l-4.9-2.9c-0.2-0.1-0.5-0.1-0.7,0l-5.2,3
				c-0.2,0.1-0.2,0.3,0,0.4L188.9,349.9z M181.4,354.2c0.2,0.1,0.5,0.1,0.7,0l5.2-3c0.2-0.1,0.2-0.3,0-0.4l-4.9-2.8
				c-0.2-0.1-0.5-0.1-0.7,0l-5.2,3c-0.2,0.1-0.2,0.3,0,0.4L181.4,354.2z M334.4,302.6c-0.2-0.1-0.5-0.1-0.7,0l-12.7,7.3
				c-0.2,0.1-0.2,0.3,0,0.4l4.9,2.8c0.2,0.1,0.5,0.1,0.7,0l12.7-7.3c0.2-0.1,0.2-0.3,0-0.4L334.4,302.6z M317.8,312.2
				c-0.2-0.1-0.5-0.1-0.7,0l-5.2,3c-0.2,0.1-0.2,0.3,0,0.4l4.9,2.8c0.2,0.1,0.5,0.1,0.7,0l5.2-3c0.2-0.1,0.2-0.3,0-0.4L317.8,312.2z
				 M216,368.9l5.1-3c0.2-0.1,0.2-0.3,0-0.4l-4.9-2.8c-0.2-0.1-0.5-0.1-0.7,0l-5.1,3c-0.2,0.1-0.2,0.3,0,0.4l4.9,2.8
				C215.5,369,215.8,369,216,368.9z M302.6,320.9c-0.2-0.1-0.5-0.1-0.7,0l-5.1,3c-0.2,0.1-0.2,0.3,0,0.4l4.9,2.8
				c0.2,0.1,0.5,0.1,0.7,0l5.2-3c0.2-0.1,0.2-0.3,0-0.4L302.6,320.9z M341.9,298.2c-0.2-0.1-0.5-0.1-0.7,0l-5.1,3
				c-0.2,0.1-0.2,0.3,0,0.4l4.9,2.9c0.2,0.1,0.5,0.1,0.7,0l5.2-3c0.2-0.1,0.2-0.3,0-0.4L341.9,298.2z M354.3,296.7l-11.9-6.9
				c-0.2-0.1-0.5-0.1-0.7,0l-5.1,3c-0.2,0.1-0.2,0.3,0,0.4l12,6.9c0.2,0.1,0.5,0.1,0.7,0l5.1-3C354.6,297.1,354.6,296.9,354.3,296.7
				L354.3,296.7z M274.5,337.2c-0.2-0.1-0.5-0.1-0.7,0l-6.4,3.7c-0.2,0.1-0.2,0.3,0,0.4l4.9,2.8c0.2,0.1,0.5,0.1,0.7,0l6.3-3.7
				c0.2-0.1,0.2-0.3,0-0.4L274.5,337.2z M293.6,326.2c-0.2-0.1-0.5-0.1-0.7,0l-7.9,4.6c-0.2,0.1-0.2,0.3,0,0.4l4.9,2.8
				c0.2,0.1,0.5,0.1,0.7,0l7.9-4.6c0.2-0.1,0.2-0.3,0-0.4L293.6,326.2z M257.1,347.2c-0.2-0.1-0.5-0.1-0.7,0l-42.4,24.5
				c-0.2,0.1-0.2,0.3,0,0.4l4.9,2.8c0.2,0.1,0.5,0.1,0.7,0l42.4-24.5c0.2-0.1,0.2-0.3,0-0.4L257.1,347.2z M212.3,373.1
				c-0.2-0.1-0.5-0.1-0.7,0l-6.3,3.7c-0.2,0.1-0.2,0.3,0,0.4l4.9,2.8c0.2,0.1,0.5,0.1,0.7,0l6.3-3.7c0.2-0.1,0.2-0.3,0-0.4
				L212.3,373.1z M265.8,342.2c-0.2-0.1-0.5-0.1-0.7,0l-6.3,3.7c-0.2,0.1-0.2,0.3,0,0.4l4.9,2.8c0.2,0.1,0.5,0.1,0.7,0l6.3-3.7
				c0.2-0.1,0.2-0.3,0-0.4L265.8,342.2z M203.6,378.2c-0.2-0.1-0.5-0.1-0.7,0l-6.3,3.7c-0.2,0.1-0.2,0.3,0,0.4l4.9,2.8
				c0.2,0.1,0.5,0.1,0.7,0l6.3-3.7c0.2-0.1,0.2-0.3,0-0.4L203.6,378.2z M283.3,332.1c-0.2-0.1-0.5-0.1-0.7,0l-6.3,3.7
				c-0.2,0.1-0.2,0.3,0,0.4l4.9,2.9c0.2,0.1,0.5,0.1,0.7,0l6.4-3.7c0.2-0.1,0.2-0.3,0-0.4L283.3,332.1z M310.2,316.6
				c-0.2-0.1-0.5-0.1-0.7,0l-5.1,3c-0.2,0.1-0.2,0.3,0,0.4l4.9,2.9c0.2,0.1,0.5,0.1,0.7,0l5.2-3c0.2-0.1,0.2-0.3,0-0.4L310.2,316.6z
				 M327.1,304.8l5.2-3c0.2-0.1,0.2-0.3,0-0.4l-4.9-2.8c-0.2-0.1-0.5-0.1-0.7,0l-5.1,3c-0.2,0.1-0.2,0.3,0,0.4l4.9,2.9
				C326.6,304.9,326.9,304.9,327.1,304.8z M296.4,306.3l5.1-3c0.2-0.1,0.2-0.3,0-0.4l-4.9-2.9c-0.2-0.1-0.5-0.1-0.7,0l-5.2,3
				c-0.2,0.1-0.2,0.3,0,0.4l4.9,2.8C295.8,306.4,296.1,306.4,296.4,306.3z M276.3,334.1l15.1-8.7c0.2-0.1,0.2-0.3,0-0.4l-4.9-2.8
				c-0.2-0.1-0.5-0.1-0.7,0l-15.1,8.7c-0.2,0.1-0.2,0.3,0,0.4l4.9,2.9C275.8,334.2,276.1,334.2,276.3,334.1z M318.8,309.2
				c0.2,0.1,0.5,0.1,0.7,0l5.2-3c0.2-0.1,0.2-0.3,0-0.4l-4.9-2.8c-0.2-0.1-0.5-0.1-0.7,0l-5.1,3c-0.2,0.1-0.2,0.3,0,0.4L318.8,309.2
				z M312.5,305.1l5.2-3c0.2-0.1,0.2-0.3,0-0.4l-4.9-2.8c-0.2-0.1-0.5-0.1-0.7,0l-5.1,3c-0.2,0.1-0.2,0.3,0,0.4l4.9,2.9
				C312,305.2,312.3,305.2,312.5,305.1L312.5,305.1z M268.8,338.4l5.2-3c0.2-0.1,0.2-0.3,0-0.4l-4.9-2.8c-0.2-0.1-0.5-0.1-0.7,0
				l-5.1,3c-0.2,0.1-0.2,0.3,0,0.4l4.9,2.8C268.3,338.6,268.6,338.6,268.8,338.4z M302.2,318.8c0.2,0.1,0.5,0.1,0.7,0l5.2-3
				c0.2-0.1,0.2-0.3,0-0.4l-4.9-2.9c-0.2-0.1-0.5-0.1-0.7,0l-5.1,3c-0.2,0.1-0.2,0.3,0,0.4L302.2,318.8z M231.1,360.2l5.2-3
				c0.2-0.1,0.2-0.3,0-0.4l-4.9-2.9c-0.2-0.1-0.5-0.1-0.7,0l-5.1,3c-0.2,0.1-0.2,0.3,0,0.4l4.9,2.8
				C230.7,360.3,230.9,360.3,231.1,360.2L231.1,360.2z M238.7,355.9l5.1-3c0.2-0.1,0.2-0.3,0-0.4l-4.9-2.8c-0.2-0.1-0.5-0.1-0.7,0
				l-5.2,3c-0.2,0.1-0.2,0.3,0,0.4l4.9,2.8C238.2,356,238.5,356,238.7,355.9L238.7,355.9z M223.6,364.6l5.2-3c0.2-0.1,0.2-0.3,0-0.4
				l-4.9-2.8c-0.2-0.1-0.5-0.1-0.7,0l-5.1,3c-0.2,0.1-0.2,0.3,0,0.4l4.9,2.9C223.1,364.7,223.4,364.7,223.6,364.6L223.6,364.6z
				 M253.8,347.2l5.1-3c0.2-0.1,0.2-0.3,0-0.4l-4.9-2.8c-0.2-0.1-0.5-0.1-0.7,0l-5.1,3c-0.2,0.1-0.2,0.3,0,0.4l4.9,2.8
				C253.2,347.3,253.5,347.3,253.8,347.2L253.8,347.2z M246.2,351.5l5.1-3c0.2-0.1,0.2-0.3,0-0.4l-4.9-2.9c-0.2-0.1-0.5-0.1-0.7,0
				l-5.1,3c-0.2,0.1-0.2,0.3,0,0.4l4.9,2.9C245.8,351.6,246,351.6,246.2,351.5L246.2,351.5z M261.3,342.8l5.2-3
				c0.2-0.1,0.2-0.3,0-0.4l-4.9-2.9c-0.2-0.1-0.5-0.1-0.7,0l-5.1,3c-0.2,0.1-0.2,0.3,0,0.4l4.9,2.8
				C260.7,342.9,261,342.9,261.3,342.8L261.3,342.8z M302.4,282.3c0.2,0.1,0.5,0.1,0.7,0l5.1-3c0.2-0.1,0.2-0.3,0-0.4l-1.3-0.8
				c-0.2-0.1-0.5-0.1-0.7,0l-5.2,3c-0.2,0.1-0.2,0.3,0,0.4L302.4,282.3z M265,306c0.2,0.1,0.5,0.1,0.7,0l5.1-3
				c0.2-0.1,0.2-0.3,0-0.4l-4.9-2.9c-0.2-0.1-0.5-0.1-0.7,0l-5.2,3c-0.2,0.1-0.2,0.3,0,0.4L265,306z M280,297.3
				c0.2,0.1,0.5,0.1,0.7,0l5.2-3c0.2-0.1,0.2-0.3,0-0.4L281,291c-0.2-0.1-0.5-0.1-0.7,0l-5.1,3c-0.2,0.1-0.2,0.3,0,0.4L280,297.3z
				 M255.8,311.3c0.2,0.1,0.5,0.1,0.7,0l5.2-3c0.2-0.1,0.2-0.3,0-0.4l-4.9-2.9c-0.2-0.1-0.5-0.1-0.7,0l-5.1,3
				c-0.2,0.1-0.2,0.3,0,0.4L255.8,311.3z M272.5,301.6c0.2,0.1,0.5,0.1,0.7,0l5.1-3c0.2-0.1,0.2-0.3,0-0.4l-4.9-2.8
				c-0.2-0.1-0.5-0.1-0.7,0l-5.1,3c-0.2,0.1-0.2,0.3,0,0.4L272.5,301.6z M240.7,320c0.2,0.1,0.5,0.1,0.7,0l5.1-3
				c0.2-0.1,0.2-0.3,0-0.4l-4.9-2.8c-0.2-0.1-0.5-0.1-0.7,0l-5.2,3c-0.2,0.1-0.2,0.3,0,0.4L240.7,320z M248.2,315.7
				c0.2,0.1,0.5,0.1,0.7,0l5.1-3c0.2-0.1,0.2-0.3,0-0.4l-4.9-2.8c-0.2-0.1-0.5-0.1-0.7,0l-5.2,3c-0.2,0.1-0.2,0.3,0,0.4L248.2,315.7
				z M287.3,291c0.2,0.1,0.5,0.1,0.7,0l5.2-3c0.2-0.1,0.2-0.3,0-0.4l-1.3-0.8c-0.2-0.1-0.5-0.1-0.7,0l-5.1,3c-0.2,0.1-0.2,0.3,0,0.4
				L287.3,291z M309.9,277.9c0.2,0.1,0.5,0.1,0.7,0l5.2-3c0.2-0.1,0.2-0.3,0-0.4l-1.3-0.8c-0.2-0.1-0.5-0.1-0.7,0l-5.1,2.9
				c-0.2,0.1-0.2,0.3,0,0.4L309.9,277.9z M320.3,283.9c0.2,0.1,0.5,0.1,0.7,0l5.1-3c0.2-0.1,0.2-0.3,0-0.4l-4.8-2.9
				c-0.2-0.1-0.5-0.1-0.7,0l-5.2,3c-0.2,0.1-0.2,0.3,0,0.4L320.3,283.9z M334.6,300.4l5.2-3c0.2-0.1,0.2-0.3,0-0.4l-4.9-2.9
				c-0.2-0.1-0.5-0.1-0.7,0l-5.2,3c-0.2,0.1-0.2,0.3,0,0.4l4.9,2.8C334.1,300.6,334.4,300.6,334.6,300.4L334.6,300.4z M294.8,286.6
				c0.2,0.1,0.5,0.1,0.7,0l5.1-3c0.2-0.1,0.2-0.3,0-0.4l-1.3-0.7c-0.2-0.1-0.5-0.1-0.7,0l-5.2,3c-0.2,0.1-0.2,0.3,0,0.4L294.8,286.6
				z M233.1,324.3c0.2,0.1,0.5,0.1,0.7,0l5.2-3c0.2-0.1,0.2-0.3,0-0.4l-4.9-2.9c-0.2-0.1-0.5-0.1-0.7,0l-5.2,3
				c-0.2,0.1-0.2,0.3,0,0.4L233.1,324.3z"/>
			<path class="st2" d="M288.8,310.6l5.2-3c0.2-0.1,0.2-0.3,0-0.4l-4.9-2.8c-0.2-0.1-0.5-0.1-0.7,0l-5.1,3c-0.2,0.1-0.2,0.3,0,0.4
				l4.9,2.8C288.3,310.7,288.6,310.7,288.8,310.6z M281.3,300.3l-5.2,3c-0.2,0.1-0.2,0.3,0,0.4l4.9,2.8c0.2,0.1,0.5,0.1,0.7,0l5.2-3
				c0.2-0.1,0.2-0.3,0-0.4l-4.9-2.8C281.8,300.2,281.5,300.2,281.3,300.3L281.3,300.3z M264.6,309.9l-8.7,5c-0.2,0.1-0.2,0.3,0,0.4
				l4.9,2.8c0.2,0.1,0.5,0.1,0.7,0l8.7-5c0.2-0.1,0.2-0.3,0-0.4l-4.9-2.8C265.2,309.8,264.9,309.8,264.6,309.9L264.6,309.9z
				 M273.8,304.7l-5.1,3c-0.2,0.1-0.2,0.3,0,0.4l4.9,2.8c0.2,0.1,0.5,0.1,0.7,0l5.2-3c0.2-0.1,0.2-0.3,0-0.4l-4.9-2.9
				C274.3,304.5,274,304.5,273.8,304.7L273.8,304.7z M253.5,316.4l-5.1,3c-0.2,0.1-0.2,0.3,0,0.4l4.9,2.9c0.2,0.1,0.5,0.1,0.7,0
				l5.2-3c0.2-0.1,0.2-0.3,0-0.4l-4.9-2.8C254.1,316.2,253.8,316.2,253.5,316.4L253.5,316.4z M246,320.7l-5.1,3
				c-0.2,0.1-0.2,0.3,0,0.4l4.9,2.8c0.2,0.1,0.5,0.1,0.7,0l5.2-3c0.2-0.1,0.2-0.3,0-0.4l-4.9-2.8C246.5,320.6,246.2,320.6,246,320.7
				L246,320.7z M265.3,332.3l5.2-3c0.2-0.1,0.2-0.3,0-0.4l-4.9-2.8c-0.2-0.1-0.5-0.1-0.7,0l-5.1,3c-0.2,0.1-0.2,0.3,0,0.4l4.9,2.8
				C264.8,332.4,265.1,332.4,265.3,332.3L265.3,332.3z M257.8,336.7l5.2-3c0.2-0.1,0.2-0.3,0-0.4l-4.9-2.8c-0.2-0.1-0.5-0.1-0.7,0
				l-5.1,3c-0.2,0.1-0.2,0.3,0,0.4l4.9,2.9C257.3,336.8,257.6,336.8,257.8,336.7L257.8,336.7z M250.3,341.1l5.1-3
				c0.2-0.1,0.2-0.3,0-0.4l-4.9-2.9c-0.2-0.1-0.5-0.1-0.7,0l-5.1,3c-0.2,0.1-0.2,0.3,0,0.4l4.9,2.8
				C249.8,341.2,250,341.2,250.3,341.1z M242.7,345.4l5.1-3c0.2-0.1,0.2-0.3,0-0.4l-4.9-2.8c-0.2-0.1-0.5-0.1-0.7,0l-5.1,3
				c-0.2,0.1-0.2,0.3,0,0.4l4.9,2.8C242.3,345.5,242.5,345.5,242.7,345.4L242.7,345.4z M281.3,315l5.2-3c0.2-0.1,0.2-0.3,0-0.4
				l-4.9-2.9c-0.2-0.1-0.5-0.1-0.7,0l-5.1,3c-0.2,0.1-0.2,0.3,0,0.4l4.9,2.9C280.8,315.1,281.1,315.1,281.3,315L281.3,315z
				 M272.9,328l11.5-6.6c0.2-0.1,0.2-0.3,0-0.4l-12-6.9c-0.2-0.1-0.5-0.1-0.7,0l-5.9,3.4c-0.2,0.1-0.2,0.3,0,0.4l6.3,3.7
				c0.2,0.1,0.2,0.3,0,0.4l-4.8,2.7c-0.2,0.1-0.2,0.3,0,0.4l4.9,2.8C272.4,328.1,272.6,328.1,272.9,328L272.9,328z M238.5,325.1
				l-5.2,3c-0.2,0.1-0.2,0.3,0,0.4l4.9,2.8c0.2,0.1,0.5,0.1,0.7,0l5.1-3c0.2-0.1,0.2-0.3,0-0.4l-4.9-2.9
				C239,324.9,238.7,324.9,238.5,325.1L238.5,325.1z M231,329.4l-5.2,3c-0.2,0.1-0.2,0.3,0,0.4l4.9,2.8c0.2,0.1,0.5,0.1,0.7,0l5.1-3
				c0.2-0.1,0.2-0.3,0-0.4l-4.9-2.8C231.5,329.2,231.2,329.2,231,329.4z M189.3,375.8c0.2,0.1,0.5,0.1,0.7,0l5.2-3
				c0.2-0.1,0.2-0.3,0-0.4l-4.9-2.8c-0.2-0.1-0.5-0.1-0.7,0l-5.2,3c-0.2,0.1-0.2,0.3,0,0.4L189.3,375.8z M170.7,364.1l-5.1,3
				c-0.2,0.1-0.2,0.3,0,0.4l4.9,2.8c0.2,0.1,0.5,0.1,0.7,0l5.2-3c0.2-0.1,0.2-0.3,0-0.4l-4.9-2.8C171.2,364,170.9,364,170.7,364.1
				L170.7,364.1z M180.2,372.8c0.2,0.1,0.5,0.1,0.7,0l5.1-3c0.2-0.1,0.2-0.3,0-0.4l-4.9-2.9c-0.2-0.1-0.5-0.1-0.7,0l-5.1,3
				c-0.2,0.1-0.2,0.3,0,0.4L180.2,372.8z M201,377.5l5.1-3c0.2-0.1,0.2-0.3,0-0.4l-4.9-2.8c-0.2-0.1-0.5-0.1-0.7,0l-5.2,3
				c-0.2,0.1-0.2,0.3,0,0.4l4.9,2.8C200.5,377.6,200.8,377.7,201,377.5L201,377.5z M192.7,382c0.2,0.1,0.5,0.1,0.7,0l5.2-3
				c0.2-0.1,0.2-0.3,0-0.4l-4.8-2.9c-0.2-0.1-0.5-0.1-0.7,0l-5.2,3c-0.2,0.1-0.2,0.3,0,0.4L192.7,382z M178.2,359.9l-5.1,3
				c-0.2,0.1-0.2,0.3,0,0.4l4.9,2.9c0.2,0.1,0.5,0.1,0.7,0l5.2-3c0.2-0.1,0.2-0.3,0-0.4l-4.9-3C178.7,359.7,178.4,359.7,178.2,359.9
				L178.2,359.9z M215.9,338.2l-5.1,3c-0.2,0.1-0.2,0.3,0,0.4l4.9,2.8c0.2,0.1,0.5,0.1,0.7,0l5.2-3c0.2-0.1,0.2-0.3,0-0.4l-4.9-2.9
				C216.4,338,216.1,338,215.9,338.2L215.9,338.2z M185.8,355.5l-5.2,3c-0.2,0.1-0.2,0.3,0,0.4l4.9,2.8c0.2,0.1,0.5,0.1,0.7,0l5.1-3
				c0.2-0.1,0.2-0.3,0-0.4l-4.9-2.9C186.3,355.4,186,355.4,185.8,355.5L185.8,355.5z M223.4,333.8l-5.2,3c-0.2,0.1-0.2,0.3,0,0.4
				l4.9,2.9c0.2,0.1,0.5,0.1,0.7,0l5.1-3c0.2-0.1,0.2-0.3,0-0.4l-4.9-2.8C223.9,333.7,223.7,333.6,223.4,333.8L223.4,333.8z
				 M208.3,342.5l-5.1,3c-0.2,0.1-0.2,0.3,0,0.4l4.9,2.8c0.2,0.1,0.5,0.1,0.7,0l5.2-3c0.2-0.1,0.2-0.3,0-0.4l-4.9-2.8
				C208.9,342.4,208.6,342.3,208.3,342.5L208.3,342.5z M200.8,346.8l-5.1,3c-0.2,0.1-0.2,0.3,0,0.4l4.9,2.9c0.2,0.1,0.5,0.1,0.7,0
				l5.1-3c0.2-0.1,0.2-0.3,0-0.4l-4.9-2.8C201.3,346.7,201.1,346.7,200.8,346.8z M193.3,351.1l-5.2,3c-0.2,0.1-0.2,0.3,0,0.4
				l4.9,2.8c0.2,0.1,0.5,0.1,0.7,0l5.1-3c0.2-0.1,0.2-0.3,0-0.4l-4.9-2.8C193.8,351,193.5,351,193.3,351.1L193.3,351.1z
				 M227.7,354.1l5.2-3c0.2-0.1,0.2-0.3,0-0.4l-4.9-2.8c-0.2-0.1-0.5-0.1-0.7,0l-5.2,3c-0.2,0.1-0.2,0.3,0,0.4l4.9,2.8
				C227.2,354.2,227.4,354.2,227.7,354.1L227.7,354.1z M297.9,290.7l-5.1,3c-0.2,0.1-0.2,0.3,0,0.4l4.9,2.9c0.2,0.1,0.5,0.1,0.7,0
				l5.2-3c0.2-0.1,0.2-0.3,0-0.4l-4.9-2.9C298.5,290.6,298.2,290.6,297.9,290.7z M288.8,296l-5.2,2.9c-0.2,0.1-0.2,0.3,0,0.4
				l4.9,2.9c0.2,0.1,0.5,0.1,0.7,0l5.1-3c0.2-0.1,0.2-0.3,0-0.4l-4.9-2.8C289.3,295.9,289.1,295.9,288.8,296L288.8,296z
				 M305.5,286.4l-5.2,2.9c-0.2,0.1-0.2,0.3,0,0.4l4.9,2.8c0.2,0.1,0.5,0.1,0.7,0l5.2-3c0.2-0.1,0.2-0.3,0-0.4l-4.9-2.8
				C306,286.3,305.7,286.3,305.5,286.4L305.5,286.4z M263.8,325.1l5.2-3c0.2-0.1,0.2-0.3,0-0.4l-4.9-2.8c-0.2-0.1-0.5-0.1-0.7,0
				l-5.1,3c-0.2,0.1-0.2,0.3,0,0.4l4.9,2.8C263.4,325.2,263.6,325.2,263.8,325.1L263.8,325.1z M313.8,282c-0.2-0.1-0.5-0.1-0.7,0
				l-5.2,3c-0.2,0.1-0.2,0.3,0,0.4l4.9,2.8c0.2,0.1,0.5,0.1,0.7,0l5.1-3c0.2-0.1,0.2-0.3,0-0.4L313.8,282z M235.2,349.7l5.1-3
				c0.2-0.1,0.2-0.3,0-0.4l-4.9-2.8c-0.2-0.1-0.5-0.1-0.7,0l-5.2,3c-0.2,0.1-0.2,0.3,0,0.4l4.9,2.9
				C234.7,349.8,235,349.8,235.2,349.7L235.2,349.7z M327.6,296.4l5.1-3c0.2-0.1,0.2-0.3,0-0.4l-4.9-2.8c-0.2-0.1-0.5-0.1-0.7,0
				l-5.2,2.9c-0.2,0.1-0.2,0.3,0,0.4l4.9,2.8C327.1,296.5,327.4,296.5,327.6,296.4L327.6,296.4z M313.1,296.7l5.2-3
				c0.2-0.1,0.2-0.3,0-0.4l-4.9-2.8c-0.2-0.1-0.5-0.1-0.7,0l-5.1,3c-0.2,0.1-0.2,0.3,0,0.4l4.9,2.9
				C312.5,296.8,312.8,296.8,313.1,296.7L313.1,296.7z M320.9,286.1c-0.2-0.1-0.5-0.1-0.7,0l-5.2,3c-0.2,0.1-0.2,0.3,0,0.4l4.9,2.9
				c0.2,0.1,0.5,0.1,0.7,0l5.1-3c0.2-0.1,0.2-0.3,0-0.4L320.9,286.1z M322.4,285.2l12,6.9c0.2,0.1,0.5,0.1,0.7,0l5.1-3
				c0.2-0.1,0.2-0.3,0-0.4l-12-7c-0.2-0.1-0.5-0.1-0.7,0l-5.2,3C322.2,284.9,322.2,285,322.4,285.2L322.4,285.2z M305,294.8l-5.1,3
				c-0.2,0.1-0.2,0.3,0,0.4l4.9,2.8c0.2,0.1,0.5,0.1,0.7,0l5.2-3c0.2-0.1,0.2-0.3,0-0.4l-4.9-2.9C305.5,294.7,305.2,294.7,305,294.8
				z M248.3,327.5l-5.1,3c-0.2,0.1-0.2,0.3,0,0.4l4.9,2.9c0.2,0.1,0.5,0.1,0.7,0l5.1-3c0.2-0.1,0.2-0.3,0-0.4l-4.9-2.8
				C248.8,327.4,248.5,327.4,248.3,327.5L248.3,327.5z M319.3,300.8c0.2,0.1,0.5,0.1,0.7,0l5.2-3c0.2-0.1,0.2-0.3,0-0.4l-4.9-2.9
				c-0.2-0.1-0.5-0.1-0.7,0l-5.1,3c-0.2,0.1-0.2,0.3,0,0.4L319.3,300.8z M255.8,323.2l-5.2,3c-0.2,0.1-0.2,0.3,0,0.4l4.9,2.8
				c0.2,0.1,0.5,0.1,0.7,0l5.1-3c0.2-0.1,0.2-0.3,0-0.4l-4.9-2.9C256.3,323,256.1,323,255.8,323.2z M196.8,371.5
				c0.2,0.1,0.5,0.1,0.7,0l5.1-3c0.2-0.1,0.2-0.3,0-0.4l-4.9-2.9c-0.2-0.1-0.5-0.1-0.7,0l-5.2,3c-0.2,0.1-0.2,0.3,0,0.4L196.8,371.5
				z M188,362.3l-5.1,3c-0.2,0.1-0.2,0.3,0,0.4l4.9,2.8c0.2,0.1,0.5,0.1,0.7,0l5.2-3c0.2-0.1,0.2-0.3,0-0.4l-4.9-2.8
				C188.5,362.2,188.3,362.2,188,362.3z M205.1,367.1l5.1-3c0.2-0.1,0.2-0.3,0-0.4l-4.9-2.8c-0.2-0.1-0.5-0.1-0.7,0l-5.2,3
				c-0.2,0.1-0.2,0.3,0,0.4l4.9,2.8C204.6,367.2,204.8,367.2,205.1,367.1z M212.6,362.8l5.2-3c0.2-0.1,0.2-0.3,0-0.4l-4.9-2.8
				c-0.2-0.1-0.5-0.1-0.7,0l-5.1,3c-0.2,0.1-0.2,0.3,0,0.4l4.9,2.9C212.1,362.9,212.4,362.9,212.6,362.8L212.6,362.8z M220.1,358.4
				l5.2-3c0.2-0.1,0.2-0.3,0-0.4l-4.9-2.9c-0.2-0.1-0.5-0.1-0.7,0l-5.1,3c-0.2,0.1-0.2,0.3,0,0.4l4.9,2.8
				C219.6,358.5,219.9,358.5,220.1,358.4L220.1,358.4z M195.6,357.9l-5.1,3c-0.2,0.1-0.2,0.3,0,0.4l4.9,2.9c0.2,0.1,0.5,0.1,0.7,0
				l5.2-3c0.2-0.1,0.2-0.3,0-0.4l-4.9-2.8C196.1,357.8,195.8,357.8,195.6,357.9z M203.1,353.6l-5.2,3c-0.2,0.1-0.2,0.3,0,0.4
				l4.9,2.8c0.2,0.1,0.5,0.1,0.7,0l5.2-3c0.2-0.1,0.2-0.3,0-0.4l-4.9-2.9C203.6,353.5,203.3,353.5,203.1,353.6z M233.2,336.2l-5.1,3
				c-0.2,0.1-0.2,0.3,0,0.4l4.9,2.8c0.2,0.1,0.5,0.1,0.7,0l5.2-3c0.2-0.1,0.2-0.3,0-0.4l-4.9-2.9
				C233.7,336.1,233.5,336.1,233.2,336.2L233.2,336.2z M225.7,340.6l-5.1,3c-0.2,0.1-0.2,0.3,0,0.4l4.9,2.8c0.2,0.1,0.5,0.1,0.7,0
				l5.2-3c0.2-0.1,0.2-0.3,0-0.4l-4.9-2.8C226.2,340.4,225.9,340.4,225.7,340.6z M240.8,331.9l-5.2,3c-0.2,0.1-0.2,0.3,0,0.4
				l4.9,2.8c0.2,0.1,0.5,0.1,0.7,0l5.2-3c0.2-0.1,0.2-0.3,0-0.4l-4.9-2.8C241.3,331.7,241,331.7,240.8,331.9z M210.6,349.2l-5.1,3
				c-0.2,0.1-0.2,0.3,0,0.4l4.9,2.8c0.2,0.1,0.5,0.1,0.7,0l5.1-3c0.2-0.1,0.2-0.3,0-0.4l-5-2.9C211.1,349.1,210.9,349.1,210.6,349.2
				z M218.2,344.9l-5.1,3c-0.2,0.1-0.2,0.3,0,0.4l4.9,2.9c0.2,0.1,0.5,0.1,0.7,0l5.1-3c0.2-0.1,0.2-0.3,0-0.4l-4.9-2.8
				C218.7,344.8,218.4,344.8,218.2,344.9L218.2,344.9z M208.6,373.2l5.1-2.9c0.2-0.1,0.2-0.3,0-0.4l-4.9-2.9c-0.2-0.1-0.5-0.1-0.7,0
				l-5.2,3c-0.2,0.1-0.2,0.3,0,0.4l4.9,2.8C208,373.4,208.3,373.4,208.6,373.2z M168.8,371.4l-4.9-2.9c-0.2-0.1-0.5-0.1-0.7,0
				l-5.1,3c-0.2,0.1-0.2,0.3,0,0.4l4.9,2.8c0.2,0.1,0.5,0.1,0.7,0l5.1-3C169,371.7,169,371.5,168.8,371.4z M178.6,373.8l-4.9-2.8
				c-0.2-0.1-0.5-0.1-0.7,0l-7.9,4.6c-0.2,0.1-0.2,0.3,0,0.4l4.9,2.9c0.2,0.1,0.5,0.1,0.7,0l7.9-4.6
				C178.8,374.1,178.8,373.9,178.6,373.8z M161.4,365.7l-4.9-2.8c-0.2-0.1-0.5-0.1-0.7,0l-6.3,3.7c-0.2,0.1-0.2,0.3,0,0.4l4.9,2.8
				c0.2,0.1,0.5,0.1,0.7,0l6.3-3.7C161.6,366,161.7,365.8,161.4,365.7L161.4,365.7z M166.3,362.9c0.2,0.1,0.5,0.1,0.7,0l5.2-3
				c0.2-0.1,0.2-0.3,0-0.4l-4.9-2.9c-0.2-0.1-0.5-0.1-0.7,0l-5.1,3c-0.2,0.1-0.2,0.3,0,0.4L166.3,362.9z M187.6,376.7l-4.9-2.8
				c-0.2-0.1-0.5-0.1-0.7,0l-9.9,5.8c-0.2,0.1-0.2,0.3,0,0.4l4.9,2.8c0.2,0.1,0.5,0.1,0.7,0l9.9-5.7
				C187.8,377,187.9,376.9,187.6,376.7L187.6,376.7z M191.1,382.9l-4.9-2.9c-0.2-0.1-0.5-0.1-0.7,0l-6.3,3.7c-0.2,0.1-0.2,0.3,0,0.4
				l4.9,2.8c0.2,0.1,0.5,0.1,0.7,0l6.3-3.7C191.3,383.2,191.3,383,191.1,382.9L191.1,382.9z M222.3,330.6c0.2,0.1,0.5,0.1,0.7,0
				l5.2-3c0.2-0.1,0.2-0.3,0-0.4l-4.9-2.8c-0.2-0.1-0.5-0.1-0.7,0l-5.1,3c-0.2,0.1-0.2,0.3,0,0.4L222.3,330.6z M207.3,339.3
				c0.2,0.1,0.5,0.1,0.7,0l5.1-3c0.2-0.1,0.2-0.3,0-0.4l-4.9-2.9c-0.2-0.1-0.5-0.1-0.7,0l-5.1,3c-0.2,0.1-0.2,0.3,0,0.4L207.3,339.3
				z M173.9,358.6c0.2,0.1,0.5,0.1,0.7,0l5.2-3c0.2-0.1,0.2-0.3,0-0.4l-4.9-2.8c-0.2-0.1-0.5-0.1-0.7,0l-5.1,3
				c-0.2,0.1-0.2,0.3,0,0.4L173.9,358.6z M214.9,335c0.2,0.1,0.5,0.1,0.7,0l5.2-3c0.2-0.1,0.2-0.3,0-0.4l-4.9-2.9
				c-0.2-0.1-0.5-0.1-0.7,0l-5.1,3c-0.2,0.1-0.2,0.3,0,0.4L214.9,335z M199.8,343.7c0.2,0.1,0.5,0.1,0.7,0l5.1-3
				c0.2-0.1,0.2-0.3,0-0.4l-4.9-2.8c-0.2-0.1-0.5-0.1-0.7,0l-5.2,3c-0.2,0.1-0.2,0.3,0,0.4L199.8,343.7z M194.9,383.2
				c-0.2-0.1-0.5-0.1-0.7,0l-7.9,4.6c-0.2,0.1-0.2,0.3,0,0.4l4.9,2.8c0.2,0.1,0.5,0.1,0.7,0l7.9-4.6c0.2-0.1,0.2-0.3,0-0.4
				L194.9,383.2z M188.9,349.9c0.2,0.1,0.5,0.1,0.7,0l5.1-3c0.2-0.1,0.2-0.3,0-0.4l-4.9-2.9c-0.2-0.1-0.5-0.1-0.7,0l-5.2,3
				c-0.2,0.1-0.2,0.3,0,0.4L188.9,349.9z M181.4,354.2c0.2,0.1,0.5,0.1,0.7,0l5.2-3c0.2-0.1,0.2-0.3,0-0.4l-4.9-2.8
				c-0.2-0.1-0.5-0.1-0.7,0l-5.2,3c-0.2,0.1-0.2,0.3,0,0.4L181.4,354.2z M334.4,302.6c-0.2-0.1-0.5-0.1-0.7,0l-12.7,7.3
				c-0.2,0.1-0.2,0.3,0,0.4l4.9,2.8c0.2,0.1,0.5,0.1,0.7,0l12.7-7.3c0.2-0.1,0.2-0.3,0-0.4L334.4,302.6z M317.8,312.2
				c-0.2-0.1-0.5-0.1-0.7,0l-5.2,3c-0.2,0.1-0.2,0.3,0,0.4l4.9,2.8c0.2,0.1,0.5,0.1,0.7,0l5.2-3c0.2-0.1,0.2-0.3,0-0.4L317.8,312.2z
				 M216,368.9l5.1-3c0.2-0.1,0.2-0.3,0-0.4l-4.9-2.8c-0.2-0.1-0.5-0.1-0.7,0l-5.1,3c-0.2,0.1-0.2,0.3,0,0.4l4.9,2.8
				C215.5,369,215.8,369,216,368.9z M302.6,320.9c-0.2-0.1-0.5-0.1-0.7,0l-5.1,3c-0.2,0.1-0.2,0.3,0,0.4l4.9,2.8
				c0.2,0.1,0.5,0.1,0.7,0l5.2-3c0.2-0.1,0.2-0.3,0-0.4L302.6,320.9z M341.9,298.2c-0.2-0.1-0.5-0.1-0.7,0l-5.1,3
				c-0.2,0.1-0.2,0.3,0,0.4l4.9,2.9c0.2,0.1,0.5,0.1,0.7,0l5.2-3c0.2-0.1,0.2-0.3,0-0.4L341.9,298.2z M354.3,296.7l-11.9-6.9
				c-0.2-0.1-0.5-0.1-0.7,0l-5.1,3c-0.2,0.1-0.2,0.3,0,0.4l12,6.9c0.2,0.1,0.5,0.1,0.7,0l5.1-3C354.6,297.1,354.6,296.9,354.3,296.7
				L354.3,296.7z M274.5,337.2c-0.2-0.1-0.5-0.1-0.7,0l-6.4,3.7c-0.2,0.1-0.2,0.3,0,0.4l4.9,2.8c0.2,0.1,0.5,0.1,0.7,0l6.3-3.7
				c0.2-0.1,0.2-0.3,0-0.4L274.5,337.2z M293.6,326.2c-0.2-0.1-0.5-0.1-0.7,0l-7.9,4.6c-0.2,0.1-0.2,0.3,0,0.4l4.9,2.8
				c0.2,0.1,0.5,0.1,0.7,0l7.9-4.6c0.2-0.1,0.2-0.3,0-0.4L293.6,326.2z M257.1,347.2c-0.2-0.1-0.5-0.1-0.7,0l-42.4,24.5
				c-0.2,0.1-0.2,0.3,0,0.4l4.9,2.8c0.2,0.1,0.5,0.1,0.7,0l42.4-24.5c0.2-0.1,0.2-0.3,0-0.4L257.1,347.2z M212.3,373.1
				c-0.2-0.1-0.5-0.1-0.7,0l-6.3,3.7c-0.2,0.1-0.2,0.3,0,0.4l4.9,2.8c0.2,0.1,0.5,0.1,0.7,0l6.3-3.7c0.2-0.1,0.2-0.3,0-0.4
				L212.3,373.1z M265.8,342.2c-0.2-0.1-0.5-0.1-0.7,0l-6.3,3.7c-0.2,0.1-0.2,0.3,0,0.4l4.9,2.8c0.2,0.1,0.5,0.1,0.7,0l6.3-3.7
				c0.2-0.1,0.2-0.3,0-0.4L265.8,342.2z M203.6,378.2c-0.2-0.1-0.5-0.1-0.7,0l-6.3,3.7c-0.2,0.1-0.2,0.3,0,0.4l4.9,2.8
				c0.2,0.1,0.5,0.1,0.7,0l6.3-3.7c0.2-0.1,0.2-0.3,0-0.4L203.6,378.2z M283.3,332.1c-0.2-0.1-0.5-0.1-0.7,0l-6.3,3.7
				c-0.2,0.1-0.2,0.3,0,0.4l4.9,2.9c0.2,0.1,0.5,0.1,0.7,0l6.4-3.7c0.2-0.1,0.2-0.3,0-0.4L283.3,332.1z M310.2,316.6
				c-0.2-0.1-0.5-0.1-0.7,0l-5.1,3c-0.2,0.1-0.2,0.3,0,0.4l4.9,2.9c0.2,0.1,0.5,0.1,0.7,0l5.2-3c0.2-0.1,0.2-0.3,0-0.4L310.2,316.6z
				 M327.1,304.8l5.2-3c0.2-0.1,0.2-0.3,0-0.4l-4.9-2.8c-0.2-0.1-0.5-0.1-0.7,0l-5.1,3c-0.2,0.1-0.2,0.3,0,0.4l4.9,2.9
				C326.6,304.9,326.9,304.9,327.1,304.8z M296.4,306.3l5.1-3c0.2-0.1,0.2-0.3,0-0.4l-4.9-2.9c-0.2-0.1-0.5-0.1-0.7,0l-5.2,3
				c-0.2,0.1-0.2,0.3,0,0.4l4.9,2.8C295.8,306.4,296.1,306.4,296.4,306.3z M276.3,334.1l15.1-8.7c0.2-0.1,0.2-0.3,0-0.4l-4.9-2.8
				c-0.2-0.1-0.5-0.1-0.7,0l-15.1,8.7c-0.2,0.1-0.2,0.3,0,0.4l4.9,2.9C275.8,334.2,276.1,334.2,276.3,334.1z M318.8,309.2
				c0.2,0.1,0.5,0.1,0.7,0l5.2-3c0.2-0.1,0.2-0.3,0-0.4l-4.9-2.8c-0.2-0.1-0.5-0.1-0.7,0l-5.1,3c-0.2,0.1-0.2,0.3,0,0.4L318.8,309.2
				z M312.5,305.1l5.2-3c0.2-0.1,0.2-0.3,0-0.4l-4.9-2.8c-0.2-0.1-0.5-0.1-0.7,0l-5.1,3c-0.2,0.1-0.2,0.3,0,0.4l4.9,2.9
				C312,305.2,312.3,305.2,312.5,305.1L312.5,305.1z M268.8,338.4l5.2-3c0.2-0.1,0.2-0.3,0-0.4l-4.9-2.8c-0.2-0.1-0.5-0.1-0.7,0
				l-5.1,3c-0.2,0.1-0.2,0.3,0,0.4l4.9,2.8C268.3,338.6,268.6,338.6,268.8,338.4z M302.2,318.8c0.2,0.1,0.5,0.1,0.7,0l5.2-3
				c0.2-0.1,0.2-0.3,0-0.4l-4.9-2.9c-0.2-0.1-0.5-0.1-0.7,0l-5.1,3c-0.2,0.1-0.2,0.3,0,0.4L302.2,318.8z M231.1,360.2l5.2-3
				c0.2-0.1,0.2-0.3,0-0.4l-4.9-2.9c-0.2-0.1-0.5-0.1-0.7,0l-5.1,3c-0.2,0.1-0.2,0.3,0,0.4l4.9,2.8
				C230.7,360.3,230.9,360.3,231.1,360.2L231.1,360.2z M238.7,355.9l5.1-3c0.2-0.1,0.2-0.3,0-0.4l-4.9-2.8c-0.2-0.1-0.5-0.1-0.7,0
				l-5.2,3c-0.2,0.1-0.2,0.3,0,0.4l4.9,2.8C238.2,356,238.5,356,238.7,355.9L238.7,355.9z M223.6,364.6l5.2-3c0.2-0.1,0.2-0.3,0-0.4
				l-4.9-2.8c-0.2-0.1-0.5-0.1-0.7,0l-5.1,3c-0.2,0.1-0.2,0.3,0,0.4l4.9,2.9C223.1,364.7,223.4,364.7,223.6,364.6L223.6,364.6z
				 M253.8,347.2l5.1-3c0.2-0.1,0.2-0.3,0-0.4l-4.9-2.8c-0.2-0.1-0.5-0.1-0.7,0l-5.1,3c-0.2,0.1-0.2,0.3,0,0.4l4.9,2.8
				C253.2,347.3,253.5,347.3,253.8,347.2L253.8,347.2z M246.2,351.5l5.1-3c0.2-0.1,0.2-0.3,0-0.4l-4.9-2.9c-0.2-0.1-0.5-0.1-0.7,0
				l-5.1,3c-0.2,0.1-0.2,0.3,0,0.4l4.9,2.9C245.8,351.6,246,351.6,246.2,351.5L246.2,351.5z M261.3,342.8l5.2-3
				c0.2-0.1,0.2-0.3,0-0.4l-4.9-2.9c-0.2-0.1-0.5-0.1-0.7,0l-5.1,3c-0.2,0.1-0.2,0.3,0,0.4l4.9,2.8
				C260.7,342.9,261,342.9,261.3,342.8L261.3,342.8z M302.4,282.3c0.2,0.1,0.5,0.1,0.7,0l5.1-3c0.2-0.1,0.2-0.3,0-0.4l-1.3-0.8
				c-0.2-0.1-0.5-0.1-0.7,0l-5.2,3c-0.2,0.1-0.2,0.3,0,0.4L302.4,282.3z M265,306c0.2,0.1,0.5,0.1,0.7,0l5.1-3
				c0.2-0.1,0.2-0.3,0-0.4l-4.9-2.9c-0.2-0.1-0.5-0.1-0.7,0l-5.2,3c-0.2,0.1-0.2,0.3,0,0.4L265,306z M280,297.3
				c0.2,0.1,0.5,0.1,0.7,0l5.2-3c0.2-0.1,0.2-0.3,0-0.4L281,291c-0.2-0.1-0.5-0.1-0.7,0l-5.1,3c-0.2,0.1-0.2,0.3,0,0.4L280,297.3z
				 M255.8,311.3c0.2,0.1,0.5,0.1,0.7,0l5.2-3c0.2-0.1,0.2-0.3,0-0.4l-4.9-2.9c-0.2-0.1-0.5-0.1-0.7,0l-5.1,3
				c-0.2,0.1-0.2,0.3,0,0.4L255.8,311.3z M272.5,301.6c0.2,0.1,0.5,0.1,0.7,0l5.1-3c0.2-0.1,0.2-0.3,0-0.4l-4.9-2.8
				c-0.2-0.1-0.5-0.1-0.7,0l-5.1,3c-0.2,0.1-0.2,0.3,0,0.4L272.5,301.6z M240.7,320c0.2,0.1,0.5,0.1,0.7,0l5.1-3
				c0.2-0.1,0.2-0.3,0-0.4l-4.9-2.8c-0.2-0.1-0.5-0.1-0.7,0l-5.2,3c-0.2,0.1-0.2,0.3,0,0.4L240.7,320z M248.2,315.7
				c0.2,0.1,0.5,0.1,0.7,0l5.1-3c0.2-0.1,0.2-0.3,0-0.4l-4.9-2.8c-0.2-0.1-0.5-0.1-0.7,0l-5.2,3c-0.2,0.1-0.2,0.3,0,0.4L248.2,315.7
				z M287.3,291c0.2,0.1,0.5,0.1,0.7,0l5.2-3c0.2-0.1,0.2-0.3,0-0.4l-1.3-0.8c-0.2-0.1-0.5-0.1-0.7,0l-5.1,3c-0.2,0.1-0.2,0.3,0,0.4
				L287.3,291z M309.9,277.9c0.2,0.1,0.5,0.1,0.7,0l5.2-3c0.2-0.1,0.2-0.3,0-0.4l-1.3-0.8c-0.2-0.1-0.5-0.1-0.7,0l-5.1,2.9
				c-0.2,0.1-0.2,0.3,0,0.4L309.9,277.9z M320.3,283.9c0.2,0.1,0.5,0.1,0.7,0l5.1-3c0.2-0.1,0.2-0.3,0-0.4l-4.8-2.9
				c-0.2-0.1-0.5-0.1-0.7,0l-5.2,3c-0.2,0.1-0.2,0.3,0,0.4L320.3,283.9z M334.6,300.4l5.2-3c0.2-0.1,0.2-0.3,0-0.4l-4.9-2.9
				c-0.2-0.1-0.5-0.1-0.7,0l-5.2,3c-0.2,0.1-0.2,0.3,0,0.4l4.9,2.8C334.1,300.6,334.4,300.6,334.6,300.4L334.6,300.4z M294.8,286.6
				c0.2,0.1,0.5,0.1,0.7,0l5.1-3c0.2-0.1,0.2-0.3,0-0.4l-1.3-0.7c-0.2-0.1-0.5-0.1-0.7,0l-5.2,3c-0.2,0.1-0.2,0.3,0,0.4L294.8,286.6
				z M233.1,324.3c0.2,0.1,0.5,0.1,0.7,0l5.2-3c0.2-0.1,0.2-0.3,0-0.4l-4.9-2.9c-0.2-0.1-0.5-0.1-0.7,0l-5.2,3
				c-0.2,0.1-0.2,0.3,0,0.4L233.1,324.3z"/>
			<polygon class="st5" points="255.4,363.2 256.5,363.8 284.6,380 334.5,351.2 335.5,350.6 306.4,333.8 			"/>
			<polygon class="st0" points="256.5,363.8 284.6,380 334.5,351.2 306.4,335 			"/>
			<g class="st8">
				<polygon class="st5" points="256.5,363.8 284.6,380 334.5,351.2 306.4,335 				"/>
			</g>
			<path class="st6" d="M111.5,357.9c0.5,0.3,0.9,0.5,1.4,0.6C112.4,358.4,112,358.2,111.5,357.9l-0.4-0.3L111.5,357.9z"/>
			<path class="st6" d="M119.6,358.4C119.6,358.4,119.6,358.3,119.6,358.4L119.6,358.4L119.6,358.4z"/>
		</g>
	</g>
</g>
<g id="freepik--wifi-icon--inject-4_1_">
	<path class="st6" d="M202.8,103.9c-2.8-1.6-6.2-1.5-9,0.2c-8.5,4.4-15.8,18.3-16.4,31c-0.3,7.5,1.8,13,5.4,15.2
		c1.5,1,7.6,4.9,9.3,5.9c2.8,1.6,6.2,1.5,8.9-0.2c8.5-4.4,15.8-18.3,16.4-31c0.3-7.5-1.8-12.9-5.3-15.2L202.8,103.9z"/>
	<path class="st9" d="M202.8,103.9c-2.8-1.6-6.2-1.5-9,0.2c-8.5,4.4-15.8,18.3-16.4,31c-0.3,7.5,1.8,13,5.4,15.2
		c1.5,1,7.6,4.9,9.3,5.9c2.8,1.6,6.2,1.5,8.9-0.2c8.5-4.4,15.8-18.3,16.4-31c0.3-7.5-1.8-12.9-5.3-15.2L202.8,103.9z"/>
	<path class="st6" d="M214.2,69.5c-6.4-4-14.5-4.1-23.6,0.5c-15.5,8-29.5,28.1-37.1,50.7c-1.5,4.6-1,9.1,1.1,10.6l0,0
		c2.5,1.8,7,4.3,9.2,5.8l0,0c2.7,1.9,7.1-1.6,9-7.5c5.4-15.9,15.4-30,26.1-35.6c3.5-2,7.6-2.8,11.6-2.3c1.4,1.9,2.5,4,3.3,6.2
		c0.3,0.8,0.8,1.5,1.5,2l9.2,5.8c2,1.2,5-0.2,7.3-4l0,0c2.4-3.6,3.1-8,2.1-12.2c-1.9-5.7-5.6-10.6-10.5-14.1L214.2,69.5z"/>
	<path class="st9" d="M214.2,69.5c-6.4-4-14.5-4.1-23.6,0.5c-15.5,8-29.5,28.1-37.1,50.7c-1.5,4.6-1,9.1,1.1,10.6l0,0
		c2.5,1.8,7,4.3,9.2,5.8l0,0c2.7,1.9,7.1-1.6,9-7.5c5.4-15.9,15.4-30,26.1-35.6c3.5-2,7.6-2.8,11.6-2.3c1.4,1.9,2.5,4,3.3,6.2
		c0.3,0.8,0.8,1.5,1.5,2l9.2,5.8c2,1.2,5-0.2,7.3-4l0,0c2.4-3.6,3.1-8,2.1-12.2c-1.9-5.7-5.6-10.6-10.5-14.1L214.2,69.5z"/>
	<path class="st6" d="M249.9,53.7c-3.2-7.1-8.3-13.1-14.8-17.5l-9.5-5.9c-10.3-6.5-23.4-6.7-37.9,0.8c-23,12-44,40.5-56.8,73.7
		c-1.9,5-1.6,10,0.7,11.5l0,0c2.6,1.9,6.8,4.1,9.2,5.8l0,0c2.7,1.9,6.8-1.4,8.9-6.9c10.3-27.1,27.5-50.5,46.3-60.3
		c9.7-5,18.6-5.8,26.1-3c3.2,3.2,5.9,6.9,7.8,11c0.3,0.7,0.8,1.3,1.4,1.7l9.2,5.8c2,1.3,5-0.1,7.3-3.9
		C250.7,62.3,251.4,56.8,249.9,53.7z"/>
	<path class="st9" d="M249.9,53.7c-3.2-7.1-8.3-13.1-14.8-17.5l-9.5-5.9c-10.3-6.5-23.4-6.7-37.9,0.8c-23,12-44,40.5-56.8,73.7
		c-1.9,5-1.6,10,0.7,11.5l0,0c2.6,1.9,6.8,4.1,9.2,5.8l0,0c2.7,1.9,6.8-1.4,8.9-6.9c10.3-27.1,27.5-50.5,46.3-60.3
		c9.7-5,18.6-5.8,26.1-3c3.2,3.2,5.9,6.9,7.8,11c0.3,0.7,0.8,1.3,1.4,1.7l9.2,5.8c2,1.3,5-0.1,7.3-3.9
		C250.7,62.3,251.4,56.8,249.9,53.7z"/>
	<path class="st6" d="M217.4,124.9c-0.5,12.7-7.9,26.6-16.4,31c-8.5,4.4-15-2.3-14.3-15c0.6-12.6,7.9-26.6,16.4-31
		S217.9,112.2,217.4,124.9z"/>
	<path class="st6" d="M199.8,75.9c-15.5,8-29.5,28.2-37.1,50.6c-1.5,4.6-1,9.1,1.1,10.6l0,0c2.7,1.9,7.1-1.6,9-7.5
		c5.4-15.9,15.4-30,26.1-35.5c10.8-5.6,20-1.4,24.1,9.7c1.5,4,5.8,3,8.8-1.9l0,0c2.4-3.6,3.1-8,2.1-12.2
		C228.2,73.9,215.3,67.8,199.8,75.9z"/>
	<path class="st6" d="M197.1,36.9c-23,12-44,40.5-56.8,73.7c-1.9,4.9-1.6,10,0.7,11.5l0,0c2.7,1.9,6.8-1.4,8.9-6.9
		c10.3-27.1,27.5-50.5,46.3-60.3s34.7-3.6,43.1,13.7c1.7,3.5,5.7,2.5,8.7-2.2l0,0c2.5-4.2,3.3-9.7,1.8-12.8
		C239.6,32.5,220.1,24.9,197.1,36.9z"/>
</g>
<g id="freepik--live-box--inject-4">
	<path class="st6" d="M163,291.4l-9.2-5.3c-1.5-1-2.4-2.6-2.5-4.4v-43.5c0.1-1.8,1-3.4,2.5-4.4l113.7-65.7c1.6-0.8,3.5-0.8,5.1,0
		l9.2,5.3c1.5,1,2.4,2.6,2.5,4.4v43.5c-0.1,1.8-1,3.4-2.5,4.4L168,291.4C166.4,292.2,164.5,292.2,163,291.4z"/>
	<path class="st6" d="M168,242l113.7-65.7c1.4-0.8,2.5-0.2,2.5,1.5v43.5c-0.1,1.8-1,3.4-2.5,4.4L168,291.4c-1.4,0.8-2.5,0.2-2.5-1.5
		v-43.5C165.6,244.6,166.5,243,168,242z"/>
	<path class="st10" d="M167.4,291.7c-1.5,0.5-3.1,0.4-4.5-0.3l-9.2-5.3c-1.5-1-2.4-2.6-2.5-4.4v-43.5c0-0.9,0.3-1.7,0.7-2.5
		l14.3,8.2c-0.5,0.8-0.7,1.6-0.7,2.5v43.5C165.5,291.4,166.3,292,167.4,291.7z"/>
	<path class="st11" d="M284.3,177.4c-0.2-1.3-1.2-1.8-2.5-1.1L168,242c-0.7,0.5-1.4,1.1-1.8,1.9l-14.3-8.2c0.4-0.8,1-1.4,1.8-1.9
		l113.7-65.7c1.6-0.8,3.5-0.8,5.1,0l9.2,5.3C283.1,174.4,284.1,175.8,284.3,177.4z"/>
	<path class="st1" d="M194.7,261.2c0.2-0.2,0.5-0.2,0.6,0c0.2,0.2,0.3,0.5,0.3,0.8v5.5c0,0.4-0.1,0.8-0.3,1.2
		c-0.1,0.3-0.4,0.6-0.6,0.8l-15.6,9c-0.2,0.2-0.5,0.2-0.6,0c-0.2-0.2-0.3-0.5-0.3-0.8v-33.5c0-0.4,0.1-0.8,0.3-1.2
		c0.1-0.3,0.3-0.6,0.6-0.8l4.4-2.6c0.2-0.2,0.4-0.2,0.6,0c0.2,0.2,0.3,0.5,0.3,0.8V267L194.7,261.2z"/>
	<path class="st1" d="M201.1,265.8c-0.2,0.2-0.5,0.2-0.6,0c-0.2-0.2-0.3-0.5-0.3-0.8v-33.5c0-0.4,0.1-0.8,0.3-1.2
		c0.1-0.3,0.4-0.6,0.6-0.8l4.4-2.5c0.2-0.2,0.5-0.2,0.6,0c0.2,0.2,0.3,0.5,0.3,0.8v33.5c0,0.4-0.1,0.8-0.3,1.2
		c-0.1,0.3-0.3,0.6-0.6,0.8L201.1,265.8z"/>
	<path class="st1" d="M219.9,254.9c-0.9,0.5-1.5,0.2-1.8-1l-6.9-28.4c0-0.2-0.1-0.4-0.1-0.4c0-0.1,0-0.1,0-0.2
		c0-0.3,0.1-0.6,0.2-0.9c0.1-0.3,0.3-0.5,0.5-0.6l4.2-2.4c0.4-0.3,0.8-0.3,1-0.1c0.2,0.2,0.3,0.4,0.4,0.6l4.7,20.1l4.7-25.5
		c0.1-0.4,0.2-0.7,0.4-1.1c0.2-0.4,0.5-0.8,1-1l4.2-2.4c0.1-0.1,0.4-0.1,0.5,0c0.2,0.2,0.2,0.4,0.2,0.7c0,0.1,0,0.1,0,0.2
		c0,0.1,0,0.2-0.1,0.5l-6.9,36.3c-0.1,1.2-0.8,2.4-1.8,3.1L219.9,254.9z"/>
	<path class="st1" d="M254.7,226.5c0.2-0.2,0.5-0.2,0.6,0c0.2,0.2,0.3,0.5,0.3,0.8v5.5c0,0.4-0.1,0.8-0.3,1.2
		c-0.1,0.3-0.4,0.6-0.6,0.8l-15.9,9.2c-0.2,0.2-0.5,0.2-0.6,0c-0.2-0.2-0.3-0.5-0.3-0.8v-33.5c0-0.4,0.1-0.8,0.3-1.2
		c0.1-0.3,0.4-0.6,0.6-0.8l15.7-9.1c0.2-0.2,0.5-0.2,0.6,0c0.2,0.2,0.3,0.5,0.3,0.8v5.5c0,0.4-0.1,0.8-0.3,1.2
		c-0.1,0.3-0.4,0.6-0.6,0.8l-10.4,6v5.6l9.6-5.6c0.2-0.2,0.5-0.2,0.6,0c0.2,0.2,0.3,0.5,0.3,0.8v5.5c0,0.4-0.1,0.8-0.3,1.2
		c-0.1,0.3-0.3,0.6-0.6,0.8l-9.6,5.6v5.8L254.7,226.5z"/>
	<path class="st1" d="M269,200c4.1-2.3,7.5-0.4,7.5,4.3c-0.3,5.3-3.1,10.1-7.5,13c-4.1,2.3-7.5,0.5-7.5-4.3
		C261.8,207.7,264.6,202.8,269,200z"/>
</g>
</svg>
