<?xml version="1.0" encoding="utf-8"?>
<!-- Generator: Adobe Illustrator 25.2.1, SVG Export Plug-In . SVG Version: 6.00 Build 0)  -->
<svg version="1.1" id="Capa_1" xmlns="http://www.w3.org/2000/svg" xmlns:xlink="http://www.w3.org/1999/xlink" x="0px" y="0px"
	 viewBox="0 0 500 500" style="enable-background:new 0 0 500 500;" xml:space="preserve">
<style type="text/css">
	.st0{fill:#E2B700;}
	.st1{fill:#C19C00;}
	.st2{fill:#FFC100;}
	.st3{opacity:0.15;}
	.st4{fill:#FFFFFF;}
	.st5{fill:#37474F;}
	.st6{fill:#263238;}
	.st7{fill:#455A64;}
	.st8{fill:#FAFAFA;}
	.st9{fill:#EBEBEB;}
	.st10{fill:#E6E6E6;}
	.st11{opacity:0.5;fill:#455A64;enable-background:new    ;}
	.st12{fill:none;stroke:#E0E0E0;stroke-width:0.75;stroke-miterlimit:10;}
	.st13{opacity:0.5;}
	.st14{opacity:0.15;enable-background:new    ;}
	.st15{opacity:0.4;fill:#FFFFFF;enable-background:new    ;}
	.st16{clip-path:url(#SVGID_2_);}
	.st17{fill:#FFA8A7;}
	.st18{fill:#F0F0F0;}
	.st19{opacity:0.4;enable-background:new    ;}
	.st20{fill:#F28F8F;}
	.st21{opacity:0.1;enable-background:new    ;}
</style>
<g id="freepik--Floor--inject-1">
	<ellipse id="freepik--floor--inject-1" class="st0" cx="272" cy="338.9" rx="214.9" ry="122.2"/>
</g>
<g id="freepik--Shadow--inject-1">
	<ellipse id="freepik--shadow--inject-1" class="st1" cx="408.3" cy="363.5" rx="51.4" ry="32.2"/>
</g>
<g id="freepik--Plants--inject-1">
	<path class="st2" d="M69,270c-0.6-7.4-2.3-14.7-5.1-21.6c-4.5-11.2-13.2-22.4-23.2-24.5s-14.2,4.6-12.1,11.2
		c1.8,5.7,9.2,10.4,14.9,15.4s16.2,17,19.1,28.5l5.6,0.6L69,270z"/>
	<g class="st3">
		<path d="M69,270c-0.6-7.4-2.3-14.7-5.1-21.6c-4.5-11.2-13.2-22.4-23.2-24.5s-14.2,4.6-12.1,11.2c1.8,5.7,9.2,10.4,14.9,15.4
			s16.2,17,19.1,28.5l5.6,0.6L69,270z"/>
	</g>
	<path class="st4" d="M65.1,275.2c-0.3,0-0.6-0.3-0.6-0.6c-1-29.1-29.5-45.4-29.8-45.6c-0.3-0.2-0.4-0.6-0.2-0.9
		c0.2-0.3,0.5-0.4,0.8-0.2c0.3,0.2,29.4,16.8,30.5,46.6C65.8,274.9,65.5,275.1,65.1,275.2L65.1,275.2z"/>
	<path class="st2" d="M73.5,321.3c0,0-5.8,3.7-14.9,2.1c-2.9-0.4-5.7-1.7-7.8-3.8c-2.3-2.4-2.7-4.9-3.4-8.1
		c-0.2-1.4-0.6-2.7-1.4-3.8c-2-2.7-5.8-2.6-9.1-3.3c-4.6-1-8.8-4.3-10.2-8.8s0.8-10,5.2-11.8l-5.4-3.4c-1.7-1-3.2-2.2-4.6-3.5
		c-1.4-1.4-2.2-3.2-2.3-5.1c0-2.8,2.1-5.4,4.7-6.5c2.7-1,5.6-1.3,8.4-0.9c2.9,0.3,5.7,1,8.4,2c0.7,0.3,1.5,0.5,2.3,0.5
		c1.1-0.2,2-0.6,2.9-1.3c6.1-4,16.1-3.7,19.4,3.9c0.5,1.1,0.8,2.3,1.3,3.4c1.9,4.1,7.2,2.9,10.7,4.8c2.2,1.4,3.7,3.7,4,6.3
		c0.7,4.1-0.4,8.7-1.2,12.7s-1.7,7.7-2.8,11.5c-0.9,3.1-1.9,6.2-2.9,9.3C74.6,318.1,74.1,320.9,73.5,321.3z"/>
	<path class="st4" d="M77.2,311.9c-3-8.4-8.1-15.9-14.6-22c-0.1-0.1-0.2-0.3-0.3-0.3c-1.9-1.8-3.9-3.4-5.9-5c-0.8-5.4-0.1-10.9,2-16
		c0.1-0.3,0-0.7-0.3-0.8c-0.3-0.1-0.7,0-0.8,0.3c-2.1,4.9-2.9,10.2-2.3,15.4c-8.4-6-17.7-10.7-27.5-13.8c-0.3-0.1-0.7,0.1-0.8,0.4
		c-0.1,0.3,0.1,0.7,0.4,0.8c0,0,0,0,0,0c0.3,0.1,18,5.1,32.7,18c-9-1.6-19.7,2.8-20.2,3c-0.3,0.1-0.5,0.5-0.4,0.8
		c0.1,0.2,0.3,0.4,0.6,0.4c0.1,0,0.2,0,0.2,0c0.1-0.1,12.7-5.2,21.6-2.4C68,296.7,73,304,76,312.3c0.1,0.3,0.3,0.4,0.6,0.4h0.2
		C77.1,312.6,77.3,312.2,77.2,311.9C77.2,311.9,77.2,311.9,77.2,311.9z"/>
</g>
<g id="freepik--Device--inject-1">
	<g id="freepik--Laptop--inject-1">
		<path class="st5" d="M73.7,320.4c0.2,3,1.8,5.7,4.4,7.2L200,398c2.7,1.4,6,1.4,8.7,0l166.8-96.3c4-2.1,5.5-7.1,3.4-11.1
			c-0.8-1.4-1.9-2.6-3.4-3.4l-121.9-70.4c-2.7-1.4-6-1.4-8.7,0L78.1,313.2C75.5,314.7,73.9,317.4,73.7,320.4z"/>
		<path class="st6" d="M204.3,389.6v9.4c-1.5,0-3-0.3-4.4-1L78,327.6c-4-2.1-5.5-7-3.4-11c0.7-1.3,1.7-2.4,3-3.2
			c-1.9,1.4-1.8,3.5,0.4,4.7l122,70.4C201.3,389.3,202.8,389.7,204.3,389.6z"/>
		<path class="st7" d="M69.6,313.3c-2.5-1.7-4-4.4-4.1-7.4V160.4c0.2-3.1,1.8-5.9,4.3-7.5l166.8-96.3c2.6-1.4,5.8-1.5,8.4-0.2
			c2.5,1.7,4,4.4,4.1,7.4v145.5c-0.2,3.1-1.8,5.9-4.4,7.5L78.1,313.2C75.4,314.6,72.3,314.6,69.6,313.3z"/>
		<path class="st6" d="M77.5,313.4c-2.5,1.1-5.4,1.1-7.9-0.1c-2.5-1.7-4-4.4-4.1-7.4V160.4c0-1.5,0.5-3,1.3-4.3l8.2,4.7l0,0
			c-0.8,1.3-1.2,2.8-1.3,4.3v145.5C73.7,313.2,75.4,314.4,77.5,313.4z"/>
		<path class="st5" d="M73.7,165.1v145.5c0,2.8,2,3.9,4.4,2.5l166.8-96.3c2.6-1.7,4.2-4.5,4.4-7.5V63.8c0-2.8-1.9-3.9-4.4-2.5
			L78.1,157.6C75.5,159.3,73.9,162.1,73.7,165.1z"/>
		<path class="st7" d="M78.1,318.2L200,388.6c2.7,1.4,6,1.4,8.7,0l166.8-96.3c2.4-1.4,2.4-3.6,0-5l-121.9-70.4c-2.7-1.4-6-1.4-8.7,0
			L78.1,313.2C75.6,314.5,75.6,316.8,78.1,318.2z"/>
		<path class="st8" d="M80.4,165.7l160.9-92.9c1.4-0.8,2.6-0.2,2.6,1.5v126c-0.1,1.8-1.1,3.5-2.6,4.5L80.4,297.7
			c-1.4,0.8-2.6,0.2-2.6-1.5v-126C77.9,168.3,78.9,166.7,80.4,165.7z"/>
		<path class="st5" d="M92.2,314.4L247.1,225c1.4-0.7,3-0.7,4.4,0l7.9,4.6c0.7,0.2,1.1,1,0.8,1.7c-0.1,0.4-0.4,0.7-0.8,0.8
			l-154.9,89.4c-1.4,0.7-3,0.7-4.3,0l-7.9-4.6c-0.7-0.2-1.1-1-0.8-1.7C91.5,314.9,91.8,314.6,92.2,314.4z"/>
		<path class="st6" d="M112.6,326.2l154.9-89.4c1.4-0.7,3-0.7,4.4,0l48.7,28.1c0.7,0.2,1.1,1,0.8,1.7c-0.1,0.4-0.4,0.7-0.8,0.8
			l-154.7,89.3c-1.4,0.7-3,0.7-4.4,0l-48.9-28c-0.7-0.2-1.1-1-0.9-1.7C111.9,326.7,112.2,326.3,112.6,326.2z"/>
		<path class="st7" d="M251.4,277l4.8-2.8c0.2-0.1,0.2-0.3,0-0.5l-5.6-3.2c-0.2-0.1-0.5-0.1-0.8,0l-4.9,2.8c-0.2,0.1-0.2,0.3,0,0.4
			l5.6,3.2C250.9,277.1,251.2,277.1,251.4,277z M241.9,265.9l-4.9,2.8c-0.2,0.1-0.2,0.3,0,0.5l5.6,3.2c0.2,0.1,0.5,0.1,0.8,0
			l4.9-2.8c0.2-0.1,0.2-0.3,0-0.5l-5.6-3.2C242.4,265.8,242.1,265.8,241.9,265.9L241.9,265.9z M226.2,275l-8.2,4.7
			c-0.2,0.1-0.2,0.3,0,0.5l5.6,3.2c0.2,0.1,0.5,0.1,0.8,0l8.2-4.7c0.2-0.1,0.2-0.3,0-0.5L227,275C226.7,274.9,226.4,274.9,226.2,275
			z M234.8,270l-4.9,2.8c-0.2,0.1-0.2,0.3,0,0.5l5.6,3.2c0.2,0.1,0.5,0.1,0.8,0l4.9-2.8c0.2-0.1,0.2-0.3,0-0.4l-5.6-3.2
			C235.3,269.9,235,269.9,234.8,270z M215.8,281l-4.9,2.8c-0.2,0.1-0.2,0.3,0,0.5l5.6,3.2c0.2,0.1,0.5,0.1,0.8,0l4.9-2.8
			c0.2-0.1,0.2-0.3,0-0.4l-5.6-3.2C216.3,280.9,216,280.9,215.8,281L215.8,281z M208.7,285.1l-4.8,2.8c-0.2,0.1-0.2,0.3,0,0.4
			l5.6,3.2c0.2,0.1,0.5,0.1,0.8,0l4.9-2.8c0.2-0.1,0.2-0.3,0-0.5l-5.6-3.2C209.2,284.9,208.9,284.9,208.7,285.1L208.7,285.1z
			 M230.7,298.2l4.9-2.8c0.2-0.1,0.2-0.3,0-0.5l-5.6-3.2c-0.2-0.1-0.5-0.1-0.8,0l-4.9,2.8c-0.2,0.1-0.2,0.3,0,0.5l5.6,3.2
			C230.2,298.4,230.5,298.4,230.7,298.2L230.7,298.2z M223.7,302.3l4.9-2.8c0.2-0.1,0.2-0.3,0-0.5l-5.6-3.2c-0.2-0.1-0.5-0.1-0.8,0
			l-4.9,2.8c-0.2,0.1-0.2,0.3,0,0.5l5.6,3.2C223.1,302.5,223.4,302.4,223.7,302.3L223.7,302.3z M216.6,306.4l4.9-2.8
			c0.2-0.1,0.2-0.3,0-0.4l-5.6-3.2c-0.2-0.1-0.5-0.1-0.8,0l-4.9,2.8c-0.2,0.1-0.2,0.3,0,0.5l5.6,3.2
			C216,306.5,216.3,306.5,216.6,306.4L216.6,306.4z M209.5,310.5l4.9-2.8c0.2-0.1,0.2-0.3,0-0.4l-5.7-3.3c-0.2-0.1-0.5-0.1-0.8,0
			l-4.9,2.8c-0.2,0.1-0.2,0.3,0,0.5l5.6,3.2C208.9,310.6,209.2,310.6,209.5,310.5L209.5,310.5z M244.4,281.1l4.9-2.8
			c0.2-0.1,0.2-0.3,0-0.5l-5.6-3.2c-0.2-0.1-0.5-0.1-0.8,0l-4.9,2.8c-0.2,0.1-0.2,0.3,0,0.4l5.6,3.2
			C243.8,281.2,244.1,281.2,244.4,281.1L244.4,281.1z M237.8,294.1l10.8-6.2c0.2-0.1,0.2-0.3,0-0.4l-13.6-7.9
			c-0.2-0.1-0.5-0.1-0.8,0l-5.6,3.2c-0.2,0.1-0.2,0.3,0,0.5l7.2,4.2c0.2,0.1,0.2,0.3,0,0.4l-4.5,2.6c-0.2,0.1-0.2,0.3,0,0.5l5.6,3.2
			C237.2,294.3,237.5,294.3,237.8,294.1L237.8,294.1z M201.6,289.1l-4.9,2.8c-0.2,0.1-0.2,0.3,0,0.4l5.6,3.2c0.2,0.1,0.5,0.1,0.8,0
			l4.8-2.8c0.2-0.1,0.2-0.3,0-0.5l-5.6-3.2C202.1,289,201.8,289,201.6,289.1L201.6,289.1z M194.5,293.2l-4.9,2.8
			c-0.2,0.1-0.2,0.3,0,0.5l5.6,3.2c0.2,0.1,0.5,0.1,0.8,0l4.9-2.8c0.2-0.1,0.2-0.3,0-0.5l-5.6-3.2
			C195,293.1,194.7,293.1,194.5,293.2L194.5,293.2z M159.1,339.1c0.2,0.1,0.5,0.1,0.8,0l4.9-2.8c0.2-0.1,0.2-0.3,0-0.4l-5.6-3.2
			c-0.2-0.1-0.5-0.1-0.8,0l-4.8,2.8c-0.2,0.1-0.2,0.3,0,0.5L159.1,339.1z M137.8,326l-4.9,2.8c-0.2,0.1-0.2,0.3,0,0.5l5.6,3.2
			c0.2,0.1,0.5,0.1,0.8,0l4.9-2.8c0.2-0.1,0.2-0.3,0-0.5l-5.6-3.2C138.3,325.9,138,325.9,137.8,326z M149.2,335.6
			c0.2,0.1,0.5,0.1,0.8,0l4.9-2.8c0.2-0.1,0.2-0.3,0-0.5l-5.6-3.2c-0.2-0.1-0.5-0.1-0.8,0l-4.9,2.8c-0.2,0.1-0.2,0.3,0,0.4
			L149.2,335.6z M171.6,341.6l4.9-2.8c0.2-0.1,0.2-0.3,0-0.4l-5.6-3.2c-0.2-0.1-0.5-0.1-0.8,0l-4.9,2.8c-0.2,0.1-0.2,0.3,0,0.5
			l5.6,3.2C171.1,341.7,171.3,341.7,171.6,341.6L171.6,341.6z M163.7,345.7c0.2,0.1,0.5,0.1,0.8,0l4.8-2.8c0.2-0.1,0.2-0.3,0-0.5
			l-5.6-3.2c-0.2-0.1-0.5-0.1-0.8,0l-4.9,2.8c-0.2,0.1-0.2,0.3,0,0.4L163.7,345.7z M144.9,321.9l-4.9,2.8c-0.2,0.1-0.2,0.3,0,0.4
			l5.6,3.2c0.2,0.1,0.5,0.1,0.8,0l4.9-2.8c0.2-0.1,0.2-0.3,0-0.5l-5.6-3.2C145.4,321.8,145.1,321.8,144.9,321.9L144.9,321.9z
			 M180.3,301.4l-4.9,2.8c-0.2,0.1-0.2,0.3,0,0.5l5.6,3.2c0.2,0.1,0.5,0.1,0.8,0l4.9-2.8c0.2-0.1,0.2-0.3,0-0.5l-5.6-3.2
			C180.8,301.3,180.6,301.3,180.3,301.4L180.3,301.4z M152,317.8l-4.9,2.8c-0.2,0.1-0.2,0.3,0,0.4l5.6,3.2c0.2,0.1,0.5,0.1,0.8,0
			l4.9-2.8c0.2-0.1,0.2-0.3,0-0.5l-5.6-3.2C152.5,317.7,152.2,317.7,152,317.8z M187.4,297.3l-4.8,2.8c-0.2,0.1-0.2,0.3,0,0.5
			l5.6,3.2c0.2,0.1,0.5,0.1,0.8,0l4.9-2.8c0.2-0.1,0.2-0.3,0-0.5l-5.6-3.2C188,297.2,187.7,297.2,187.4,297.3L187.4,297.3z
			 M173.3,305.5l-4.9,2.8c-0.2,0.1-0.2,0.3,0,0.5l5.6,3.2c0.2,0.1,0.5,0.1,0.8,0l4.9-2.8c0.2-0.1,0.2-0.3,0-0.4l-5.6-3.2
			C173.8,305.4,173.5,305.4,173.3,305.5L173.3,305.5z M166.2,309.6l-4.9,2.8c-0.2,0.1-0.2,0.3,0,0.5l5.6,3.2c0.2,0.1,0.5,0.1,0.8,0
			l4.9-2.8c0.2-0.1,0.2-0.3,0-0.4l-5.6-3.2C166.7,309.5,166.4,309.5,166.2,309.6L166.2,309.6z M159.1,313.7l-4.9,2.8
			c-0.2,0.1-0.2,0.3,0,0.4l5.6,3.2c0.2,0.1,0.5,0.1,0.8,0l4.9-2.8c0.2-0.1,0.2-0.3,0-0.5l-5.6-3.2
			C159.6,313.6,159.3,313.6,159.1,313.7L159.1,313.7z M195.3,318.7l4.9-2.8c0.2-0.1,0.2-0.3,0-0.5l-5.6-3.2c-0.2-0.1-0.5-0.1-0.8,0
			l-4.9,2.8c-0.2,0.1-0.2,0.3,0,0.4l5.6,3.2C194.8,318.8,195,318.8,195.3,318.7L195.3,318.7z M257.5,256.9l-4.9,2.8
			c-0.2,0.1-0.2,0.3,0,0.4l5.6,3.2c0.2,0.1,0.5,0.1,0.8,0l4.9-2.8c0.2-0.1,0.2-0.3,0-0.5l-5.6-3.2
			C258.1,256.7,257.8,256.7,257.5,256.9L257.5,256.9z M249,261.8l-4.8,2.8c-0.2,0.1-0.2,0.3,0,0.5l5.6,3.2c0.2,0.1,0.5,0.1,0.8,0
			l4.9-2.8c0.2-0.1,0.2-0.3,0-0.5l-5.6-3.2C249.5,261.7,249.2,261.7,249,261.8L249,261.8z M264.6,252.8l-4.9,2.8
			c-0.2,0.1-0.2,0.3,0,0.4l5.6,3.2c0.2,0.1,0.5,0.1,0.8,0l4.9-2.8c0.2-0.1,0.2-0.3,0-0.5l-5.6-3.2
			C265.2,252.7,264.9,252.7,264.6,252.8L264.6,252.8z M228,290.7l4.9-2.8c0.2-0.1,0.2-0.3,0-0.5l-5.6-3.2c-0.2-0.1-0.5-0.1-0.8,0
			l-4.9,2.8c-0.2,0.1-0.2,0.3,0,0.5l5.6,3.2C227.4,290.7,227.7,290.7,228,290.7L228,290.7z M272.5,248.8c-0.2-0.1-0.5-0.1-0.8,0
			l-4.8,2.8c-0.2,0.1-0.2,0.3,0,0.4l5.6,3.2c0.2,0.1,0.5,0.1,0.8,0l4.9-2.8c0.2-0.1,0.2-0.3,0-0.4L272.5,248.8z M202.4,314.7
			l4.9-2.8c0.2-0.1,0.2-0.3,0-0.5l-5.6-3.2c-0.2-0.1-0.5-0.1-0.8,0l-4.9,2.7c-0.2,0.1-0.2,0.3,0,0.4l5.6,3.2
			C201.8,314.7,202.1,314.7,202.4,314.7L202.4,314.7z M289.3,264.5l4.9-2.8c0.2-0.1,0.2-0.3,0-0.4l-5.6-3.2c-0.2-0.1-0.5-0.1-0.8,0
			l-4.8,2.8c-0.2,0.1-0.2,0.3,0,0.5l5.6,3.2C288.8,264.6,289,264.5,289.3,264.5L289.3,264.5z M274.2,264l4.9-2.8
			c0.2-0.1,0.2-0.3,0-0.5l-5.6-3.2c-0.2-0.1-0.5-0.1-0.8,0l-4.9,2.8c-0.2,0.1-0.2,0.3,0,0.5l5.6,3.2C273.7,264,274,264,274.2,264
			L274.2,264z M280.5,253.4c-0.2-0.1-0.5-0.1-0.8,0l-4.8,2.8c-0.2,0.1-0.2,0.3,0,0.5l5.6,3.2c0.2,0.1,0.5,0.1,0.8,0l4.9-2.8
			c0.2-0.1,0.2-0.3,0-0.5L280.5,253.4z M282,252.5l13.6,7.9c0.2,0.1,0.5,0.1,0.8,0l4.9-2.8c0.2-0.1,0.2-0.3,0-0.4l-13.6-7.9
			c-0.2-0.1-0.5-0.1-0.8,0l-4.9,2.8C281.7,252.1,281.8,252.3,282,252.5L282,252.5z M265.6,261.5l-4.9,2.8c-0.2,0.1-0.2,0.3,0,0.5
			l5.6,3.2c0.2,0.1,0.5,0.1,0.8,0l4.9-2.8c0.2-0.1,0.2-0.3,0-0.5l-5.6-3.2C266.1,261.4,265.8,261.4,265.6,261.5L265.6,261.5z
			 M212.2,292.3l-4.9,2.8c-0.2,0.1-0.2,0.3,0,0.5l5.6,3.2c0.2,0.1,0.5,0.1,0.8,0l4.8-2.8c0.2-0.1,0.2-0.3,0-0.4l-5.6-3.2
			C212.8,292.2,212.5,292.1,212.2,292.3z M281.4,268.5c0.2,0.1,0.5,0.1,0.8,0l4.9-2.8c0.2-0.1,0.2-0.3,0-0.4l-5.6-3.3
			c-0.2-0.1-0.5-0.1-0.8,0l-4.9,2.8c-0.2,0.1-0.2,0.3,0,0.5L281.4,268.5z M219.3,288.2l-4.8,2.8c-0.2,0.1-0.2,0.3,0,0.5l5.6,3.2
			c0.2,0.1,0.5,0.1,0.8,0l4.9-2.8c0.2-0.1,0.2-0.3,0-0.4l-5.6-3.2C219.8,288.1,219.5,288.1,219.3,288.2z M166.2,335
			c0.2,0.1,0.5,0.1,0.8,0l4.9-2.8c0.2-0.1,0.2-0.3,0-0.4l-5.6-3.2c-0.2-0.1-0.5-0.1-0.8,0l-4.9,2.8c-0.2,0.1-0.2,0.3,0,0.5
			L166.2,335z M155.5,325l-4.9,2.8c-0.2,0.1-0.2,0.3,0,0.5l5.6,3.2c0.2,0.1,0.5,0.1,0.8,0l4.8-2.8c0.2-0.1,0.2-0.3,0-0.4l-5.6-3.2
			C156,324.9,155.8,324.9,155.5,325z M174,331l4.8-2.8c0.2-0.1,0.2-0.3,0-0.5l-5.6-3.2c-0.2-0.1-0.5-0.1-0.8,0l-4.9,2.8
			c-0.2,0.1-0.2,0.3,0,0.5l5.6,3.2C173.5,331.1,173.8,331.1,174,331z M181.1,326.9l4.9-2.8c0.2-0.1,0.2-0.3,0-0.5l-5.6-3.2
			c-0.2-0.1-0.5-0.1-0.8,0l-4.9,2.8c-0.2,0.1-0.2,0.3,0,0.5l5.6,3.2C180.6,327,180.9,327,181.1,326.9L181.1,326.9z M188.2,322.8
			l4.9-2.8c0.2-0.1,0.2-0.3,0-0.5l-5.6-3.2c-0.2-0.1-0.5-0.1-0.8,0l-4.9,2.8c-0.2,0.1-0.2,0.3,0,0.4l5.6,3.2
			C187.6,322.9,188,322.9,188.2,322.8L188.2,322.8z M162.6,321l-4.9,2.8c-0.2,0.1-0.2,0.3,0,0.5l5.6,3.2c0.2,0.1,0.5,0.1,0.8,0
			l4.9-2.8c0.2-0.1,0.2-0.3,0-0.4l-5.6-3.2C163.1,320.8,162.8,320.8,162.6,321L162.6,321z M169.6,316.9l-4.9,2.8
			c-0.2,0.1-0.2,0.3,0,0.5l5.6,3.2c0.2,0.1,0.5,0.1,0.8,0l4.9-2.8c0.2-0.1,0.2-0.3,0-0.4l-5.6-3.2
			C170.2,316.7,169.9,316.7,169.6,316.9L169.6,316.9z M198,300.5l-4.8,2.8c-0.2,0.1-0.2,0.3,0,0.4l5.6,3.2c0.2,0.1,0.5,0.1,0.8,0
			l4.9-2.8c0.2-0.1,0.2-0.3,0-0.5l-5.6-3.2C198.5,300.3,198.2,300.3,198,300.5z M190.9,304.5l-4.9,2.8c-0.2,0.1-0.2,0.3,0,0.4
			l5.6,3.2c0.2,0.1,0.5,0.1,0.8,0l4.9-2.8c0.2-0.1,0.2-0.3,0-0.5l-5.6-3.2C191.5,304.4,191.2,304.4,190.9,304.5L190.9,304.5z
			 M205.1,296.4l-4.9,2.8c-0.2,0.1-0.2,0.3,0,0.4l5.6,3.2c0.2,0.1,0.5,0.1,0.8,0l4.9-2.8c0.2-0.1,0.2-0.3,0-0.5l-5.6-3.2
			C205.6,296.3,205.3,296.3,205.1,296.4L205.1,296.4z M176.8,312.7l-4.9,2.8c-0.2,0.1-0.2,0.3,0,0.5l5.6,3.2c0.2,0.1,0.5,0.1,0.8,0
			l4.9-2.8c0.2-0.1,0.2-0.3,0-0.5l-5.6-3.2C177.3,312.6,177,312.6,176.8,312.7L176.8,312.7z M183.8,308.6l-4.9,2.8
			c-0.2,0.1-0.2,0.3,0,0.5l5.6,3.2c0.2,0.1,0.5,0.1,0.8,0l4.9-2.8c0.2-0.1,0.2-0.3,0-0.5l-5.6-3.2
			C184.4,308.5,184.1,308.5,183.8,308.6L183.8,308.6z M178.7,337.5l4.9-2.8c0.2-0.1,0.2-0.3,0-0.4l-5.6-3.3c-0.2-0.1-0.5-0.1-0.8,0
			l-4.9,2.8c-0.2,0.1-0.2,0.3,0,0.5l5.6,3.2C178.1,337.6,178.4,337.6,178.7,337.5L178.7,337.5z M137.1,333.3l-5.6-3.2
			c-0.2-0.1-0.5-0.1-0.8,0l-4.8,2.8c-0.2,0.1-0.2,0.3,0,0.5l5.6,3.2c0.2,0.1,0.5,0.1,0.8,0l4.9-2.8
			C137.3,333.6,137.3,333.5,137.1,333.3L137.1,333.3z M147.7,336.4l-5.6-3.2c-0.2-0.1-0.5-0.1-0.8,0l-7.5,4.3
			c-0.2,0.1-0.2,0.3,0,0.5l5.6,3.2c0.2,0.1,0.5,0.1,0.8,0l7.5-4.3C148,336.8,147.9,336.6,147.7,336.4L147.7,336.4z M128.5,327.1
			l-5.6-3.2c-0.2-0.1-0.5-0.1-0.8,0l-6,3.5c-0.2,0.1-0.2,0.3,0,0.4l5.6,3.2c0.2,0.1,0.5,0.1,0.8,0l6-3.5
			C128.7,327.4,128.7,327.2,128.5,327.1L128.5,327.1z M133.1,324.4c0.2,0.1,0.5,0.1,0.8,0l4.9-2.8c0.2-0.1,0.2-0.3,0-0.5l-5.6-3.2
			c-0.2-0.1-0.5-0.1-0.8,0l-4.8,2.8c-0.2,0.1-0.2,0.3,0,0.5L133.1,324.4z M157.6,340l-5.6-3.2c-0.2-0.1-0.5-0.1-0.8,0l-9.3,5.4
			c-0.2,0.1-0.2,0.3,0,0.5l5.6,3.2c0.2,0.1,0.5,0.1,0.8,0l9.3-5.4C157.8,340.3,157.8,340.1,157.6,340z M162.2,346.6l-5.6-3.2
			c-0.2-0.1-0.5-0.1-0.8,0l-6,3.4c-0.2,0.1-0.2,0.3,0,0.5l5.6,3.2c0.2,0.1,0.5,0.1,0.8,0l6-3.4C162.5,346.9,162.5,346.7,162.2,346.6
			L162.2,346.6z M185.8,294c0.2,0.1,0.5,0.1,0.8,0l4.9-2.8c0.2-0.1,0.2-0.3,0-0.4l-5.6-3.2c-0.2-0.1-0.5-0.1-0.8,0l-4.9,2.8
			c-0.2,0.1-0.2,0.3,0,0.5L185.8,294z M171.6,302.2c0.2,0.1,0.5,0.1,0.8,0l4.8-2.8c0.2-0.1,0.2-0.3,0-0.4l-5.6-3.2
			c-0.2-0.1-0.5-0.1-0.8,0l-4.8,2.8c-0.2,0.1-0.2,0.3,0,0.5L171.6,302.2z M140.1,320.3c0.2,0.1,0.5,0.1,0.8,0l4.8-2.8
			c0.2-0.1,0.2-0.3,0-0.5l-5.6-3.2c-0.2-0.1-0.5-0.1-0.8,0l-4.9,2.8c-0.2,0.1-0.2,0.3,0,0.5L140.1,320.3z M178.7,298.1
			c0.2,0.1,0.5,0.1,0.8,0l4.9-2.8c0.2-0.1,0.2-0.3,0-0.4l-5.6-3.2c-0.2-0.1-0.5-0.1-0.8,0l-4.9,2.8c-0.2,0.1-0.2,0.3,0,0.5
			L178.7,298.1z M164.5,306.3c0.2,0.1,0.5,0.1,0.8,0l4.9-2.8c0.2-0.1,0.2-0.3,0-0.5l-5.6-3.2c-0.2-0.1-0.5-0.1-0.8,0l-4.9,2.8
			c-0.2,0.1-0.2,0.3,0,0.4L164.5,306.3z M166.1,347.1c-0.2-0.1-0.5-0.1-0.8,0l-7.5,4.3c-0.2,0.1-0.2,0.3,0,0.4l5.6,3.2
			c0.2,0.1,0.5,0.1,0.8,0l7.5-4.3c0.2-0.1,0.2-0.3,0-0.5L166.1,347.1z M154.3,312.1c0.2,0.1,0.5,0.1,0.8,0l4.9-2.8
			c0.2-0.1,0.2-0.3,0-0.5l-5.6-3.2c-0.2-0.1-0.5-0.1-0.8,0l-4.9,2.8c-0.2,0.1-0.2,0.3,0,0.4L154.3,312.1z M147.2,316.2
			c0.2,0.1,0.5,0.1,0.8,0l4.9-2.8c0.2-0.1,0.2-0.3,0-0.5l-5.6-3.2c-0.2-0.1-0.5-0.1-0.8,0l-4.8,2.8c-0.2,0.1-0.2,0.3,0,0.4
			L147.2,316.2z M297.4,271.2c-0.2-0.1-0.5-0.1-0.8,0l-11.9,6.9c-0.2,0.1-0.2,0.3,0,0.5l5.6,3.2c0.2,0.1,0.5,0.1,0.8,0l12-6.8
			c0.2-0.1,0.2-0.3,0-0.4L297.4,271.2z M281.7,280.2c-0.2-0.1-0.5-0.1-0.8,0l-4.9,2.8c-0.2,0.1-0.2,0.3,0,0.4l5.6,3.2
			c0.2,0.1,0.5,0.1,0.8,0l4.9-2.8c0.2-0.1,0.2-0.3,0-0.5L281.7,280.2z M185.7,333.3l4.9-2.8c0.2-0.1,0.2-0.3,0-0.4L185,327
			c-0.2-0.1-0.5-0.1-0.8,0l-4.9,2.8c-0.2,0.1-0.2,0.3,0,0.5l5.6,3.2C185.2,333.6,185.5,333.6,185.7,333.3L185.7,333.3z M267.6,288.4
			c-0.2-0.1-0.5-0.1-0.8,0l-4.9,2.8c-0.2,0.1-0.2,0.3,0,0.5l5.6,3.2c0.2,0.1,0.5,0.1,0.8,0l4.9-2.8c0.2-0.1,0.2-0.3,0-0.5
			L267.6,288.4z M304.5,267.1c-0.2-0.1-0.5-0.1-0.8,0l-4.9,2.8c-0.2,0.1-0.2,0.3,0,0.5l5.6,3.2c0.2,0.1,0.5,0.1,0.8,0l4.9-2.8
			c0.2-0.1,0.2-0.3,0-0.5L304.5,267.1z M317.2,266.2l-13.6-7.9c-0.2-0.1-0.5-0.1-0.8,0l-4.9,2.8c-0.2,0.1-0.2,0.3,0,0.4l13.6,7.9
			c0.2,0.1,0.5,0.1,0.8,0l4.9-2.8C317.4,266.7,317.4,266.5,317.2,266.2L317.2,266.2z M241.1,303.7c-0.2-0.1-0.5-0.1-0.8,0l-6,3.4
			c-0.2,0.1-0.2,0.3,0,0.5l5.6,3.2c0.2,0.1,0.5,0.1,0.8,0l6-3.4c0.2-0.1,0.2-0.3,0-0.5L241.1,303.7z M259,293.5
			c-0.2-0.1-0.5-0.1-0.8,0l-7.5,4.3c-0.2,0.1-0.2,0.3,0,0.5l5.6,3.2c0.2,0.1,0.5,0.1,0.8,0l7.5-4.3c0.2-0.1,0.2-0.3,0-0.4L259,293.5
			z M224.7,313.3c-0.2-0.1-0.5-0.1-0.8,0l-39.9,23c-0.2,0.1-0.2,0.3,0,0.5l5.6,3.2c0.2,0.1,0.5,0.1,0.8,0l39.9-23
			c0.2-0.1,0.2-0.3,0-0.4L224.7,313.3z M182.6,337.6c-0.2-0.1-0.5-0.1-0.8,0l-6,3.4c-0.2,0.1-0.2,0.3,0,0.5l5.6,3.2
			c0.2,0.1,0.5,0.1,0.8,0l6-3.5c0.2-0.1,0.2-0.3,0-0.4L182.6,337.6z M232.9,308.5c-0.2-0.1-0.5-0.1-0.8,0l-6,3.4
			c-0.2,0.1-0.2,0.3,0,0.5l5.6,3.2c0.2,0.1,0.5,0.1,0.8,0l6-3.5c0.2-0.1,0.2-0.3,0-0.4L232.9,308.5z M174.3,342.3
			c-0.2-0.1-0.5-0.1-0.8,0l-6,3.5c-0.2,0.1-0.2,0.3,0,0.5l5.6,3.2c0.2,0.1,0.5,0.1,0.8,0l6-3.5c0.2-0.1,0.2-0.3,0-0.4L174.3,342.3z
			 M249.3,299.1c-0.2-0.1-0.5-0.1-0.8,0l-6,3.5c-0.2,0.1-0.2,0.3,0,0.4l5.6,3.2c0.2,0.1,0.5,0.1,0.8,0l6-3.5c0.2-0.1,0.2-0.3,0-0.5
			L249.3,299.1z M274.7,284.4c-0.2-0.1-0.5-0.1-0.8,0l-4.8,2.8c-0.2,0.1-0.2,0.3,0,0.4l5.6,3.2c0.2,0.1,0.5,0.1,0.8,0l4.9-2.8
			c0.2-0.1,0.2-0.3,0-0.5L274.7,284.4z M290.2,273.1l4.8-2.8c0.2-0.1,0.2-0.3,0-0.5l-5.6-3.2c-0.2-0.1-0.5-0.1-0.8,0l-4.9,2.8
			c-0.2,0.1-0.2,0.3,0,0.5l5.6,3.2C289.7,273.3,290,273.3,290.2,273.1L290.2,273.1z M258.5,272.9l4.9-2.8c0.2-0.1,0.2-0.3,0-0.4
			l-5.6-3.2c-0.2-0.1-0.5-0.1-0.8,0l-4.9,2.8c-0.2,0.1-0.2,0.3,0,0.5l5.6,3.2C258,273.1,258.3,273,258.5,272.9L258.5,272.9z
			 M242.5,300.7l14.2-8.2c0.2-0.1,0.2-0.3,0-0.5l-5.7-3.2c-0.2-0.1-0.5-0.1-0.8,0l-14.2,8.2c-0.2,0.1-0.2,0.3,0,0.5l5.6,3.2
			C241.9,300.8,242.2,300.8,242.5,300.7L242.5,300.7z M282.4,277.2c0.2,0.1,0.5,0.1,0.8,0l4.9-2.8c0.2-0.1,0.2-0.3,0-0.5l-5.6-3.2
			c-0.2-0.1-0.5-0.1-0.8,0l-4.9,2.8c-0.2,0.1-0.2,0.3,0,0.5L282.4,277.2z M275.2,272.6l4.9-2.8c0.2-0.1,0.2-0.3,0-0.5l-5.6-3.2
			c-0.2-0.1-0.5-0.1-0.8,0l-4.9,2.8c-0.2,0.1-0.2,0.3,0,0.4l5.6,3.2C274.6,272.7,274.9,272.7,275.2,272.6L275.2,272.6z M235.5,304.8
			l4.9-2.8c0.2-0.1,0.2-0.3,0-0.4l-5.6-3.2c-0.2-0.1-0.5-0.1-0.8,0l-4.9,2.8c-0.2,0.1-0.2,0.3,0,0.5l5.6,3.2
			C234.9,304.9,235.2,304.9,235.5,304.8L235.5,304.8z M266.8,286.3c0.2,0.1,0.5,0.1,0.8,0l4.9-2.8c0.2-0.1,0.2-0.3,0-0.4l-5.6-3.2
			c-0.2-0.1-0.5-0.1-0.8,0l-4.9,2.8c-0.2,0.1-0.2,0.3,0,0.5L266.8,286.3z M200,325.3l4.9-2.8c0.2-0.1,0.2-0.3,0-0.5l-5.6-3.2
			c-0.2-0.1-0.5-0.1-0.8,0l-4.9,2.8c-0.2,0.1-0.2,0.3,0,0.5l5.6,3.2C199.5,325.4,199.7,325.4,200,325.3L200,325.3z M207.1,321.2
			l4.9-2.8c0.2-0.1,0.2-0.3,0-0.5l-5.6-3.2c-0.2-0.1-0.5-0.1-0.8,0l-4.9,2.8c-0.2,0.1-0.2,0.3,0,0.4l5.6,3.2c0.2,0.1,0.4,0.1,0.7,0
			L207.1,321.2z M192.9,329.4l4.9-2.8c0.2-0.1,0.2-0.3,0-0.5l-5.6-3.2c-0.2-0.1-0.5-0.1-0.8,0l-4.9,2.8c-0.2,0.1-0.2,0.3,0,0.5
			l5.6,3.2C192.4,329.4,192.6,329.4,192.9,329.4L192.9,329.4z M221.2,313l4.8-2.8c0.2-0.1,0.2-0.3,0-0.5l-5.6-3.2
			c-0.2-0.1-0.5-0.1-0.8,0l-4.9,2.8c-0.2,0.1-0.2,0.3,0,0.4l5.6,3.2C220.7,313.1,221,313.1,221.2,313z M214.1,317.1l4.9-2.8
			c0.2-0.1,0.2-0.3,0-0.5l-5.6-3.2c-0.2-0.1-0.5-0.1-0.8,0l-4.9,2.8c-0.2,0.1-0.2,0.3,0,0.4l5.6,3.2
			C213.6,317.2,213.9,317.2,214.1,317.1L214.1,317.1z M228.3,308.9l4.9-2.8c0.2-0.1,0.2-0.3,0-0.4l-5.6-3.2c-0.2-0.1-0.5-0.1-0.8,0
			l-4.8,2.8c-0.2,0.1-0.2,0.3,0,0.5l5.6,3.2C227.8,309,228,309,228.3,308.9L228.3,308.9z M260.7,248.4c0.2,0.1,0.5,0.1,0.8,0
			l4.9-2.8c0.2-0.1,0.2-0.3,0-0.4l-1.5-0.9c-0.2-0.1-0.5-0.1-0.8,0l-4.9,2.8c-0.2,0.1-0.2,0.3,0,0.4L260.7,248.4z M225.8,270.9
			c0.2,0.1,0.5,0.1,0.8,0l4.9-2.8c0.2-0.1,0.2-0.3,0-0.5l-5.6-3.2c-0.2-0.1-0.5-0.1-0.8,0l-4.9,2.8c-0.2,0.1-0.2,0.3,0,0.5
			L225.8,270.9z M240,262.7c0.2,0.1,0.5,0.1,0.8,0l4.9-2.8c0.2-0.1,0.2-0.3,0-0.5l-5.6-3.2c-0.2-0.1-0.5-0.1-0.8,0l-4.9,2.8
			c-0.2,0.1-0.2,0.3,0,0.4L240,262.7z M217.2,275.9c0.2,0.1,0.5,0.1,0.8,0l4.9-2.8c0.2-0.1,0.2-0.3,0-0.5l-5.6-3.2
			c-0.2-0.1-0.5-0.1-0.8,0l-4.9,2.8c-0.2,0.1-0.2,0.3,0,0.4L217.2,275.9z M232.9,266.8c0.2,0.1,0.5,0.1,0.8,0l4.8-2.8
			c0.2-0.1,0.2-0.3,0-0.5l-5.6-3.2c-0.2-0.1-0.5-0.1-0.8,0l-4.9,2.8c-0.2,0.1-0.2,0.3,0,0.5L232.9,266.8z M203,284
			c0.2,0.1,0.5,0.1,0.8,0l4.9-2.8c0.2-0.1,0.2-0.3,0-0.5l-5.6-3.2c-0.2-0.1-0.5-0.1-0.8,0l-4.9,2.8c-0.2,0.1-0.2,0.3,0,0.5L203,284z
			 M210.1,280c0.2,0.1,0.5,0.1,0.8,0l4.9-2.8c0.2-0.1,0.2-0.3,0-0.5l-5.6-3.2c-0.2-0.1-0.5-0.1-0.8,0l-4.9,2.8
			c-0.2,0.1-0.2,0.3,0,0.4L210.1,280z M246.5,256.6c0.2,0.1,0.5,0.1,0.8,0l4.9-2.8c0.2-0.1,0.2-0.3,0-0.4l-1.5-0.9
			c-0.2-0.1-0.5-0.1-0.8,0l-4.9,2.8c-0.2,0.1-0.2,0.3,0,0.4L246.5,256.6z M267.8,244.3c0.2,0.1,0.5,0.1,0.8,0l4.9-2.8
			c0.2-0.1,0.2-0.3,0-0.4l-1.5-0.9c-0.2-0.1-0.5-0.1-0.8,0l-4.9,2.8c-0.2,0.1-0.2,0.3,0,0.4L267.8,244.3z M279.6,251.1
			c0.2,0.1,0.5,0.1,0.8,0l4.9-2.8c0.2-0.1,0.2-0.3,0-0.4l-5.6-3.2c-0.2-0.1-0.5-0.1-0.8,0l-4.9,2.8c-0.2,0.1-0.2,0.3,0,0.4
			L279.6,251.1z M297.3,269.1l4.9-2.8c0.2-0.1,0.2-0.3,0-0.5l-5.6-3.2c-0.2-0.1-0.5-0.1-0.8,0l-4.9,2.8c-0.2,0.1-0.2,0.3,0,0.4
			l5.6,3.2C296.8,269.2,297,269.2,297.3,269.1L297.3,269.1z M253.6,252.5c0.2,0.1,0.5,0.1,0.8,0l4.8-2.8c0.2-0.1,0.2-0.3,0-0.4
			l-1.5-0.9c-0.2-0.1-0.5-0.1-0.8,0l-4.9,2.8c-0.2,0.1-0.2,0.3,0,0.4L253.6,252.5z M195.9,288.2c0.2,0.1,0.5,0.1,0.8,0l4.9-2.8
			c0.2-0.1,0.2-0.3,0-0.5l-5.6-3.2c-0.2-0.1-0.5-0.1-0.8,0l-4.9,2.8c-0.2,0.1-0.2,0.3,0,0.5L195.9,288.2z"/>
		<path class="st6" d="M227.4,330.7l47.9-27.7c1.6-0.8,3.6-0.8,5.2,0l27.4,15.8c1.4,0.8,1.4,2.2,0,3L260,349.5
			c-1.6,0.8-3.6,0.8-5.2,0l-27.4-15.8C225.9,332.9,225.9,331.5,227.4,330.7z"/>
		<g id="freepik--Window--inject-1">
			<path class="st2" d="M237.8,87.2v7.3l-108.9,62.9c-0.8,0.4-1.4,0.1-1.4-0.8l0.1-2.6c-0.6-0.3-1.3-0.5-2-0.6L93,172.2
				c-0.8,0.5-1.3,1.4-1.4,2.4v2.8c0,1-0.6,1.8-1.4,2.4l-3.8,2.2v-7.3c0-1,0.6-1.8,1.4-2.4l148.6-85.8
				C237.2,86,237.8,86.3,237.8,87.2z"/>
			<path class="st9" d="M237.8,196.7c-0.1,1-0.6,1.8-1.4,2.4L87.9,284.8c-0.8,0.4-1.4,0.1-1.4-0.8V181.9l3.8-2.2
				c0.8-0.4,2-7.1,2.7-7.5l32.6-18.8c0.8-0.4,2.5,4.5,3.3,4l108.9-62.9L237.8,196.7L237.8,196.7z"/>
			<path class="st8" d="M93,209.9l65.3-37.7c0.8-0.4,1.4-0.1,1.4,0.8v64.1c0,1-0.6,1.8-1.4,2.4L93,277.2c-0.8,0.4-1.4,0.1-1.4-0.8
				v-64.1C91.7,211.3,92.2,210.4,93,209.9z"/>
			<path class="st7" d="M93,192.9l138.3-79.9c0.8-0.4,1.4-0.1,1.4,0.8v9.6c0,1-0.6,1.8-1.4,2.4L93,205.7c-0.8,0.4-1.4,0.1-1.4-0.8
				v-9.6C91.7,194.3,92.2,193.5,93,192.9z"/>
			<path class="st8" d="M181.4,149.5v2.5c0,0.5,0.4,0.7,0.8,0.5l40.2-23.2v-4.4l-40.2,23.2C181.7,148.4,181.4,148.9,181.4,149.5z"/>
			<path class="st2" d="M226.7,122.4c0.5-0.3,0.8,0,0.8,0.5v2.6c0,0.6-0.3,1.1-0.8,1.4l-4.3,2.5v-4.4L226.7,122.4z"/>
			<path class="st8" d="M226.4,125.9l-0.5-0.2c0.1-0.2,0.1-0.4,0.1-0.6c0-0.4-0.1-0.8-0.4-1c-0.2-0.1-0.5-0.1-0.7,0
				c-0.6,0.5-1,1.2-1,2c0,0.4,0.1,0.8,0.4,1c0.1,0.1,0.2,0.1,0.3,0.1c0.1,0,0.3,0,0.4-0.1c0.4-0.2,0.6-0.6,0.8-1l0.5,0.2h0.1
				c0.1,0,0.1,0,0.2-0.1C226.5,126,226.5,125.9,226.4,125.9z M224.9,126.8c-0.1,0.1-0.2,0.1-0.3,0c-0.2-0.2-0.3-0.5-0.3-0.7
				c0-0.7,0.3-1.3,0.8-1.7c0.1,0,0.1-0.1,0.2-0.1c0,0,0.1,0,0.1,0c0.2,0.1,0.3,0.4,0.3,0.7C225.7,125.7,225.4,126.4,224.9,126.8
				L224.9,126.8z"/>
			<path class="st10" d="M237.8,94.5v8.9L86.5,190.8v-8.9l2.8-1.6c0.8-0.4,1-1.1,1.4-2.4l0.9-3.3c0.1-0.9,0.6-1.8,1.4-2.4l32.6-18.8
				c0.5-0.4,1.3-0.4,1.7,0.1c0.1,0.1,0.2,0.2,0.2,0.4l1.2,2.1c0.4,0.7,0.6,1.2,1.4,0.7L237.8,94.5z"/>
			<path class="st7" d="M231.4,91.8c1-0.6,1.7-0.1,1.7,1c-0.1,1.2-0.7,2.3-1.7,3c-1,0.6-1.7,0.1-1.7-1
				C229.7,93.6,230.4,92.5,231.4,91.8z"/>
			<path class="st7" d="M225.2,95.4c0.9-0.6,1.7-0.1,1.7,1c-0.1,1.2-0.7,2.3-1.7,3c-1,0.6-1.7,0.1-1.7-1
				C223.5,97.2,224.2,96,225.2,95.4z"/>
			<path class="st7" d="M219,99c0.9-0.6,1.7-0.1,1.7,1c-0.1,1.2-0.7,2.3-1.7,3c-1,0.6-1.7,0.1-1.7-1C217.3,100.8,218,99.7,219,99z"
				/>
			<path class="st11" d="M92.8,182.5l-2.2,1.2l0.8-1.6c0.1-0.1,0.1-0.3,0-0.4c-0.1-0.1-0.2,0-0.2,0.1l-1.2,2.2l0,0v0.1l0,0
				c0,0,0,0.1,0,0.1c0,0,0,0.1,0,0.1l0,0v0.1l0,0l1.2,0.9c0,0,0.1,0,0.1,0c0.1,0,0.1-0.1,0.1-0.2c0.1-0.1,0.1-0.3,0-0.4l-0.8-0.6
				l2.2-1.2c0.1-0.1,0.2-0.2,0.2-0.4C93,182.5,92.9,182.5,92.8,182.5z"/>
			<path class="st11" d="M94.6,181.5l2.2-1.2l-0.8-0.6c-0.1-0.1-0.1-0.2,0-0.4s0.2-0.2,0.2-0.2l1.2,0.9l0,0l0,0l0,0c0,0,0,0.1,0,0.1
				c0,0,0,0.1,0,0.1l0,0c0,0,0,0.1,0,0.1l0,0l-1.2,2.2c0,0.1-0.1,0.1-0.1,0.1c0,0-0.1,0-0.1,0c-0.1-0.1-0.1-0.3,0-0.4l0.8-1.6
				l-2.2,1.3c-0.1,0.1-0.2,0-0.2-0.2C94.4,181.7,94.5,181.6,94.6,181.5z"/>
			<path class="st11" d="M101.6,175.3c0-0.1-0.1-0.1-0.2,0l-0.3,0.7c-0.5-0.1-1.1,0.4-1.5,1.3c-0.5,1.1-0.5,2.5,0,3
				c0.3,0.3,0.7,0.3,1,0.1c0.4-0.3,0.8-0.7,1-1.2c0.1-0.1,0.1-0.3,0-0.4s-0.2,0-0.2,0.1c-0.4,0.8-1,1.2-1.4,0.8
				c-0.4-0.7-0.4-1.5,0-2.2c0.3-0.6,0.7-1,1-1l-0.2,0.5c-0.1,0.1,0,0.3,0.1,0.2l0.9-0.6c0.1-0.1,0.1-0.1,0.1-0.2L101.6,175.3z"/>
			<path class="st11" d="M124.7,157.4l0.8-1.7c0.1-0.2,0.1-0.4,0-0.5c-0.1-0.1-0.2,0-0.3,0.2l-0.8,1.7l-0.8-0.8
				c-0.1-0.1-0.2,0-0.3,0.2c-0.1,0.2-0.1,0.4,0,0.5l0.8,0.8l-0.8,1.6c-0.1,0.2-0.1,0.4,0,0.5c0.1,0,0.1,0,0.2,0
				c0.1-0.1,0.1-0.1,0.2-0.2l0.8-1.6l0.8,0.8c0,0,0.1,0,0.2,0c0,0,0,0,0,0c0.1,0,0.1-0.1,0.2-0.2c0.1-0.2,0.1-0.4,0-0.5L124.7,157.4
				z"/>
			<path class="st8" d="M104.5,177.4v-2.8c0-1,0.6-1.8,1.4-2.4l122.9-70.9c0.8-0.4,1.4-0.1,1.4,0.8v2.8c0,1-0.6,1.8-1.4,2.4
				l-122.9,70.9C105.1,178.6,104.5,178.2,104.5,177.4z"/>
			<path class="st12" d="M228,102.7l0.4,0.8c0,0,0.1,0,0.1,0l0.8-0.3c0.1,0,0.2,0.1,0.1,0.3l-0.6,1.1c0,0.1,0,0.1,0,0.2l0.1,1
				c0,0.2-0.1,0.4-0.2,0.3l-0.7-0.1c-0.1,0-0.1,0-0.1,0.1l-0.7,0.9c-0.1,0.1-0.2,0.1-0.2-0.1l0.1-1.1c0-0.1,0-0.1,0-0.2l-0.6-0.4
				c-0.1-0.1,0-0.3,0.1-0.4l0.8-0.6c0.1,0,0.1-0.1,0.1-0.2l0.4-1.2C227.7,102.7,227.9,102.6,228,102.7z"/>
			<g class="st13">
				<path class="st7" d="M231.7,100.9c-0.2,0-0.3-0.1-0.4-0.2c-0.1-0.2,0-0.5,0.2-0.7l3.8-2.2c0.2-0.1,0.5,0,0.6,0.3
					c0.1,0.2,0,0.4-0.1,0.6l-3.8,2.2C231.9,100.9,231.8,100.9,231.7,100.9z"/>
				<path class="st7" d="M231.7,103.2c-0.2,0-0.3-0.1-0.4-0.2c-0.1-0.2,0-0.5,0.2-0.6c0,0,0,0,0,0l3.8-2.2c0.2-0.1,0.5,0,0.6,0.3
					c0.1,0.2,0,0.4-0.1,0.6l-3.8,2.2C231.9,103.1,231.8,103.2,231.7,103.2z"/>
				<path class="st7" d="M231.7,105.4c-0.3,0-0.5-0.2-0.5-0.5c0-0.2,0.1-0.3,0.2-0.4l3.8-2.2c0.2-0.1,0.5-0.1,0.6,0.1c0,0,0,0,0,0
					c0.1,0.2,0.1,0.5-0.2,0.7l-3.8,2.2C231.9,105.4,231.8,105.4,231.7,105.4z"/>
			</g>
		</g>
		<g id="freepik--question-mark--inject-1">
			<path class="st7" d="M122.9,225c5.5-5.6,6.9-8.1,6.9-10.4s-0.9-3.6-3.9-2c-2.1,1.2-3.6,3-4.3,5.3c-0.4,1-1.2,1.7-2.1,2l-3.8,0.8
				c-0.9,0.2-1.5-0.4-1.3-1.3c1.7-6.8,5.9-13.1,11.8-16.5c7.1-4.1,11.2-1,11.2,5.9c0,6.6-3.5,12.2-7,16.2c-0.7,0.8-1,1.9-1.1,2.9
				v2.3c-0.1,1-0.6,2-1.5,2.5l-4.7,2.7c-0.8,0.5-1.5,0.1-1.5-0.8v-6.8C121.8,226.8,122.2,225.8,122.9,225z"/>
			<path class="st7" d="M121.6,244.9c0-2.8,1.5-5.5,3.9-6.9c2.5-1.5,3.8-0.2,3.8,2.5c0,2.8-1.4,5.5-3.8,6.9
				C122.9,248.9,121.6,247.5,121.6,244.9z"/>
		</g>
	</g>
</g>
<g id="freepik--support-character--inject-1">
	<path class="st2" d="M276.7,63.9l-3.7-2.1l0,0c-0.7-0.3-1.6-0.3-2.2,0.2l-91.4,52.7c-1.9,1.2-3,3.2-3.1,5.4v131.4
		c-0.1,0.8,0.3,1.5,0.9,2l0,0l0,0l0,0l3.7,2.1l89.9-55.1c1.8-1.2,3-3.2,3.1-5.4L276.7,63.9z"/>
	<path class="st14" d="M180.8,255.7l-3.6-2.1l0,0l0,0l0,0c-0.6-0.5-1-1.2-0.9-2V120.1c0-1.2,0.4-2.3,1-3.2l3.7,2.1
		c-0.6,1-1,2.1-1,3.3v131.4C179.9,254.4,180.2,255.2,180.8,255.7z"/>
	<path class="st2" d="M183.1,116.8l91.4-52.8c1.7-1,3.1-0.2,3.1,1.8v131.4c-0.1,2.2-1.3,4.2-3.1,5.4l-91.4,52.8
		c-1.7,1-3.1,0.2-3.1-1.8V122.3C180.1,120.1,181.2,118,183.1,116.8z"/>
	<path class="st15" d="M273,61.7l3.6,2.1c-0.7-0.3-1.5-0.1-2.1,0.3l-91.4,52.8c-0.9,0.5-1.6,1.3-2.1,2.2l-3.7-2.1
		c0.5-0.9,1.2-1.6,2.1-2.2L270.7,62C271.4,61.5,272.2,61.4,273,61.7L273,61.7z"/>
	<path class="st4" d="M193.4,122l73.2-42.2c1.3-0.8,2.4-0.1,2.4,1.4v112.4c-0.1,1.7-1,3.2-2.4,4.1l-73.2,42.2
		c-1.3,0.8-2.4,0.1-2.4-1.4V126.1C191.1,124.4,192,122.9,193.4,122z"/>
	<path class="st5" d="M251.4,146.8l0.7-0.6c-1.2-1.3-2.8-2.3-4.6-2.7l-0.2,0.9C248.9,144.8,250.3,145.6,251.4,146.8z"/>
	<path class="st2" d="M253.1,150.5l-1.5-1.5c-0.7-0.8-0.7-2,0-2.8l0,0c0.8-0.7,2-0.7,2.8,0l1.5,1.5c0.7,0.8,0.7,2,0,2.8l0,0
		C255,151.2,253.8,151.2,253.1,150.5z"/>
	<g>
		<defs>
			<path id="SVGID_1_" d="M193.4,122l73.2-42.2c1.3-0.8,2.4-0.1,2.4,1.4v112.4c-0.1,1.7-1,3.2-2.4,4.1l-73.2,42.2
				c-1.3,0.8-2.4,0.1-2.4-1.4V126.1C191.1,124.4,192,122.9,193.4,122z"/>
		</defs>
		<clipPath id="SVGID_2_">
			<use xlink:href="#SVGID_1_"  style="overflow:visible;"/>
		</clipPath>
		<g class="st16">
			<g id="freepik--character-boy--inject-1_1_">
				<path class="st17" d="M266.4,184.7l3.4,5.8c0,0,22.1-11.7,23.4-13.3s1.2-4.6,1.4-6.3c0.3-2.8-0.7-5.2-0.9-6.2
					c-0.2-1.8,2.3-1.9,3.5,0.6c0.9,1.8,1,3.8,1.8,3.8c1.1-0.8,2.2-1.7,3.1-2.6c1.4-1.5,3.9-4,5.7-3.7c0.7,0.2,1.1,0.7,1.2,1.4
					c0.1,1,0.3,2,0.7,3c0.3,0.4,0.6,0.8,0.7,1.2c0.1,0.6,0.1,1.3,0,1.9c0.1,0.9,1,1.3,1.1,2.2c0,0.7-0.1,1.4-0.2,2.1
					c0,0.4,0.1,0.8,0.1,1.3c-0.1,0.9-0.5,1.8-1.1,2.5c-1.9,2.2-4.1,4-6.6,5.5c-2,1.3-4.7,2.5-7,3.7s-28.4,21.3-31.9,18.9
					c-1.4-1-5.2-5.8-9.1-11.1"/>
				<path class="st17" d="M255,196c-4-5.6-7.7-11.3-11-17.3c-4-11.2,0.5-18.7,0.5-18.7s5.8-1.8,10.5,5.8c2.1,3.3,7.6,12.7,11.3,18.9
					"/>
				<path class="st7" d="M234.5,160.2c0,0,6.3-2.6,10.4-2.3s7.1,1.4,10.2,6.3c4,6.5,10.7,17.6,10.7,17.6
					c-2.8,5.8-7.3,10.6-12.9,13.9l-12.3-18.5L234.5,160.2z"/>
				<g id="freepik--character-boy--inject-1">
					<path class="st18" d="M214.4,171.4c-2.1,1.7-3.7,4-4.5,6.6c-0.9,3.1-1.4,6.4-1.4,9.7v21.1l-0.3,39.8
						c13.4,4.6,30.3,0.5,44.6-15.3c0,0-0.8-51-0.8-59.3c0-0.4,0-0.8,0-1.1c-0.5-11.8-10.7-17.3-20.8-11.6l-8.4,4.8L214.4,171.4
						L214.4,171.4z"/>
					<path class="st6" d="M219,122.9c0,0-6.6-0.5-8,5.6c-1.3,5.4,8.6,26.8,8.3,26.5S219,122.9,219,122.9z"/>
					<path class="st2" d="M242.1,110.7c0,0-2.4-6.5-14.2-1.9c-6,2.4-8.2,9.8-8.2,9.8L242.1,110.7z"/>
					<path class="st19" d="M242.1,110.7c0,0-2.4-6.5-14.2-1.9c-6,2.4-8.2,9.8-8.2,9.8L242.1,110.7z"/>
					<path class="st6" d="M223.5,128.1c0,9,6.3,14.6,14.1,12.5s14.1-11,14.1-20s-6.7-9-14.5-6.9S223.5,119.1,223.5,128.1z"/>
					<path class="st6" d="M216.1,142.3c0,0,2.1,10.7,2.9,12.3c0.5,1,1.5,1.6,2.6,1.7l-0.1-7.9L216.1,142.3z"/>
					<path class="st6" d="M218.8,125.4c-1.7,0.3-3.1,1.2-4,2.7c-1.7,2.5-0.8,8.5,1.4,14.1l3.9-0.5L218.8,125.4z"/>
					<path class="st17" d="M221.2,141.4c-0.8,0.8-1.9-0.7-2.9-1.6s-4.1-1.7-5.7,2.6s1.4,8.7,3.9,8.9c4.3,0.4,4.9-2.9,4.9-2.9
						l0.1,18.3c7.2,7.6,19.8-1.4,14.1-4.7v-5.4c2-0.2,3.9-0.6,5.8-1.2c3.1-1.4,5.1-4.8,6.1-9c1.5-6.7,2.1-12,0.8-24.1
						c-1.4-13.2-15.1-9.7-22.6-2.3S221.2,141.4,221.2,141.4z"/>
					<path class="st6" d="M221.2,143c-0.4,0.1-1.9-2.4-2.9-3.1c-1.4-1.1,0.4-14.4,0.4-14.4c-1.6-3.4,1.3-8.6,4.3-10.7
						c2.2-1.4,4.6-2.3,7.1-2.6c2.2-0.4,4.3-0.7,6.5-0.9c2.6-0.1,5.2-0.5,7.8-0.9c2-0.5,4-1.2,5.8-2.1c1.6-0.8,3,0.9,1.6,3.8
						c-1.3,2.6-3.1,4.8-5.3,6.7c-6.4,4.8-13.8,5.9-20.2,6.7c-1.4,0.2-1.8,1.9-2.6,6.5C223.1,135.8,222.6,142.6,221.2,143z"/>
					<path class="st6" d="M213.8,125.6l-4.7-1.7c0.7-1.8,2.3-2.8,3.6-2.3S214.5,123.8,213.8,125.6z"/>
					<path class="st20" d="M235.7,156.5c0,0-7,0.2-9.5-0.6c-1.5-0.5-2.7-1.6-3.4-3c0.3,1.5,1,2.9,1.9,4.1c1.8,2.2,10.9,1.7,10.9,1.7
						V156.5z"/>
					<path class="st6" d="M234,136c0,0.9-0.6,1.7-1.4,2c-0.8,0.2-1.4-0.4-1.4-1.3c0-0.9,0.5-1.7,1.4-2.1
						C233.4,134.4,234,135,234,136z"/>
					<path class="st6" d="M231.8,129.9l-3,2.7c-0.4-1-0.2-2.3,0.7-3c0.5-0.6,1.4-0.7,2-0.2C231.6,129.5,231.7,129.7,231.8,129.9z"/>
					<path class="st20" d="M235.1,146.9l3.2,0.5c-0.2,1.1-1.1,1.8-2.2,1.8C235.2,149.1,234.8,148.1,235.1,146.9z"/>
					<path class="st6" d="M246.9,127.2l-2.8-1.7c0.6-1,1.6-1.5,2.4-1.1C247.4,125.1,247.5,126.3,246.9,127.2z"/>
					<path class="st6" d="M245.7,132.4c0,0.9-0.5,1.7-1.4,2.1c-0.8,0.2-1.4-0.4-1.4-1.3c0-0.9,0.6-1.7,1.4-2.1
						C245.1,130.9,245.7,131.4,245.7,132.4z"/>
					<polygon class="st20" points="238.8,132.9 238.9,142.8 244,140.1 					"/>
				</g>
			</g>
			<path class="st17" d="M193.2,231c3.9-40.5,10.3-54.9,20.3-58.9c3.4,2.6,3.9,14.6,0.1,23.5c0,0-8.3,26.9-9,36
				c-0.4,8.5-0.1,17.1,0.9,25.6c0.1,1,0.6,2,1.5,2.6c2.1,1.5,1.9,3.5,3.4,5.5c1.2,1.5,2.3,1.8,2,2.4c-0.5,1.2-1.8,1.8-3,1.5
				c-1-0.3-1.8-0.8-2.6-1.5c0.6,2.2,1.5,4.2,2.6,6.1c2.7,4.4,2.5,7.3-4.1,8.1c-4.1,0.5-7.1-2.1-8.9-12.5c-0.5-3-1.8-8.4-2.3-12.3
				C192.7,246,192.6,237.5,193.2,231z"/>
			<path class="st7" d="M216.3,170.2c0,0-7.3,2.3-11,8.1s-7.5,15.2-10.3,32c0,0,4.4,6.3,16.4,1.4c0,0,5.7-21.4,6.4-29.9
				C218.5,172.6,216.3,170.2,216.3,170.2z"/>
			<path class="st2" d="M223.1,111c-6.8,4.2-9.7,9.4-9.9,15.6c-0.1,4.3,0.1,8.5,0.5,12.8c-2.6,1.9-4.2,4.8-4.3,8
				c0,4.2,3.4,6.7,7.6,5.6c4.3-1.3,7.4-5.2,7.6-9.7c0.2-2.8-1.8-5.3-4.6-5.8c-0.9-5.9-0.8-12,0.1-17.9c1.5-9,18.3-14.2,22.1-9
				C241,106.2,232.5,105.1,223.1,111z"/>
			<path class="st14" d="M223.1,111c-6.8,4.2-9.7,9.4-9.9,15.6c-0.1,4.3,0.1,8.5,0.5,12.8c-2.6,1.9-4.2,4.8-4.3,8
				c0,4.2,3.4,6.7,7.6,5.6c4.3-1.3,7.4-5.2,7.6-9.7c0.2-2.8-1.8-5.3-4.6-5.8c-0.9-5.9-0.8-12,0.1-17.9c1.5-9,18.3-14.2,22.1-9
				C241,106.2,232.5,105.1,223.1,111z"/>
			<path class="st2" d="M220.6,144.4c0.1-1.5-1.1-2.8-2.6-2.8c-0.4,0-0.7,0-1.1,0.2c-2.1,0.6-3.5,2.5-3.6,4.6
				c-0.1,1.5,1.1,2.7,2.6,2.8c0.4,0,0.7,0,1-0.2C219.1,148.4,220.5,146.6,220.6,144.4z"/>
		</g>
	</g>
	<path class="st2" d="M163.1,208.7c-0.2,0.2-0.3,0.3-0.4,0.5l0,0c-0.2,0.3-0.4,0.6-0.5,1l0,0c-0.1,0.2-0.1,0.4,0,0.6
		c0,0.1,0.1,0.3,0.2,0.4c0.1,0.1,0.1,0.1,0.2,0.2l-3.7-2.1c-0.1-0.1-0.3-0.2-0.4-0.4c-0.1-0.3-0.1-0.6,0-0.9l0,0
		c0.1-0.2,0.2-0.5,0.3-0.7c0.2-0.3,0.4-0.6,0.6-0.8L163.1,208.7z"/>
	<path class="st2" d="M163.1,208.6c-1.9,2-1.2,3.4,1.5,3l15.3-1.8v-18.7L163.1,208.6z"/>
	<path class="st2" d="M163.1,208.6c-1.2,1.3-1.4,2.3-0.7,2.8l-3.7-2.1c-0.8-0.5-0.6-1.5,0.6-2.8l16.9-17.5l3.7,2.1L163.1,208.6z"/>
	<path class="st14" d="M163.1,208.7c-0.2,0.2-0.3,0.3-0.4,0.5l0,0c-0.2,0.3-0.4,0.6-0.5,1l0,0c-0.1,0.2-0.1,0.4,0,0.6
		c0,0.1,0.1,0.3,0.2,0.4c0.1,0.1,0.1,0.1,0.2,0.2l-3.7-2.1c-0.1-0.1-0.3-0.2-0.4-0.4c-0.1-0.3-0.1-0.6,0-0.9l0,0
		c0.1-0.2,0.2-0.5,0.3-0.7c0.2-0.3,0.4-0.6,0.6-0.8L163.1,208.7z"/>
	<path class="st15" d="M179.9,191.1l-16.9,17.5l0,0l-3.7-2.1l0,0l16.9-17.5L179.9,191.1z"/>
	<path class="st17" d="M266.4,184.7l3.4,5.8c0,0,22.1-11.7,23.4-13.3s1.2-4.6,1.4-6.3c0.3-2.8-0.7-5.2-0.9-6.2
		c-0.3-2.1,2.8-1.6,3.8-0.8c0.6,0.7,1.2,1.5,1.6,2.3c0.5,0.8,1.4,3.4,2.3,3.6c0.7,0.1,2.1-0.9,2.7-1.3c2.4-1.8,3.9-4.4,5.8-6.7
		c0.3-0.5,0.8-0.9,1.3-1.2c1-0.2,2,0.1,2.7,0.7c0.8,0.4,1.5,1,2,1.8c0.3,0.5,0.6,1.1,0.7,1.8c1,4.2-1.2,7.8-3.8,11
		c-2.6,3.1-5.6,5.8-9.1,8c-2,1.3-4.7,2.5-7,3.7s-27.2,22.1-30.7,19.7c-4.2-3.2-7.9-7-11.1-11.2"/>
</g>
<g id="freepik--Character--inject-1">
	<path class="st17" d="M429.7,148.5c8,0,12.2,2.4,15.5,9.8c3.2,7.1,13,27.6,12.6,32.6S437,217,437,217l-5.8-7l12.6-21.1L431.4,171
		L429.7,148.5z"/>
	<g id="freepik--character--inject-1">
		<path class="st6" d="M410.3,366.2c0,0,0.9,2.7,1.4,5.1c0.4,1.9,0.9,5.1,0.3,6.5s-3.3,2.4-7.3,2.3c-2.6,0-6.7,1.8-9.5,3.3
			s-8.9,2.2-11.9,1.9c-3.6-0.4-7.3-2.5-7.9-4s-1.1-3.5,8.6-6.6c0.1,0,11.7-3.8,15.8-8.3L410.3,366.2z"/>
		<path class="st17" d="M410.3,366.4l-1.9-0.2l-8.5,0.2c-4.1,4.5-15.7,8.3-15.8,8.3l-1.5,0.5c-1.7,1.4-0.3,3.7,3.7,4
			s16.5-3.8,19.2-5.2C408.4,372.7,410.3,369.7,410.3,366.4z"/>
		<path class="st17" d="M410.3,362.8c0,0,0,2.3,0,3.7s-1.6,3.3-5.6,3.2c-2.9-0.1-4.9-0.9-4.8-3.2V363L410.3,362.8z"/>
		<path class="st6" d="M437.6,350.8c0.7,0.3,0.9,1.7,0.9,4.5c0,2.1,0.4,5.8-2.1,6.5s-6.1,0.2-7.7-1.9c-1.9-2.5-3.2-4.8-6-7.9
			c-2.4-2.7-5-5.2-5.9-9c-0.8-3.4,0-4.8,2.3-5.7s4.4-0.2,7.6,2.5c0.9,0.6,1.8,1.1,2.9,1.5C431.7,342.1,436.9,350.5,437.6,350.8z"/>
		<path class="st17" d="M437.7,348.2l-0.1,3.5c0,0-2.3,4.5-8.7,0c-0.1-0.3-0.7-7-0.7-7L437.7,348.2z"/>
		<path class="st17" d="M429.6,341.4c-1-0.4-2-0.9-2.9-1.5l0,0c-2.6-0.8-8,0.1-5.6,3.9c2,3.1,4.6,5.8,7.7,7.9
			c2.9,1.4,3.9-0.3,3.9-0.3l-1-8.1C431.2,342.5,430.5,341.9,429.6,341.4z"/>
		<path class="st2" d="M442.4,300.5c-1.3-11.3-3.7-17.8-3.7-17.8s2.2-15.2,3.9-29.8c4-34.3,1.3-34.8-3.5-46.7
			c0,0-43.9-5.6-45.8,12.6c-2.3,22.8-1.2,66.9-0.9,74.9s1,11.7,3.4,28.6c1.8,12.9,3.5,41,3.5,41c5.8,3.3,11.3-0.6,11.3-0.6
			s5.5-34.6,5.4-43.9c-0.1-6.9-1.1-13.7-3-20.4c0,0,3.7-37.1,4.7-43c0,0,1.1,11.8,1.5,19.9s2.6,15.8,4.5,30.9
			c1.7,13,4.5,40.2,4.5,40.2c5.8,3.3,9.8,1.8,9.8,1.8S443.7,311.9,442.4,300.5z"/>
		<polygon class="st17" points="411.1,141.1 412.7,158.2 427.7,157.3 426.5,138.3 		"/>
		<path class="st7" d="M441.2,155.8c-1.5-4.5-4.6-7.2-11.5-7.2l-2.5,0.1c-0.5,2.5-7.9,4.6-15.2,2c-1,0.3-3.9,0.8-5.4,1l-3.5,0.5
			c-5.3,1.7-7.7,11-8.2,25.6s-2.7,45.9-2.7,45.9s11.4,6.1,29.5,3.8c16.1-2.1,22.4-11.7,21.9-10.4c-1.9-8.1-4.7-16-8.3-23.4
			C443.7,172.6,443.4,162.5,441.2,155.8z"/>
		<path class="st5" d="M412.7,227.9c3,0,6-0.1,8.9-0.5c14.7-1.9,21.2-10,21.9-10.5c-1.9-8.1-4.7-15.9-8.3-23.4
			c4.3-10.6,6.4-18.4,7.1-24.4c-0.7,4.4-7.2,21.3-15.6,26.4c0,0,4.8,0.7,8.9,6.4S436.2,226.7,412.7,227.9z"/>
		<path class="st17" d="M406.5,151.6c-7,0.9-13.1,2.1-15.7,9.1c-3.4,9.4-8.6,18.1-15.3,25.5c-4.4,4.7-22.4,13.7-26.4,13
			s-7.7-6.4-9.8-5.2s2.5,5.3,2.2,6.3s-7.5-1.1-11-3.6s-5.5,4.6-1,9.8s12.9,5.7,22.1,3.8s25.9-7.3,32.5-13.5
			c8.7-8.1,10.3-12.6,14.1-19.6C410.3,168,406.5,151.6,406.5,151.6z"/>
		<path class="st6" d="M403.2,119.9c0,0-5.7-6.8-1.2-13.3c5.2-7.8,14.5-10.4,25.9-7c5.6,1.7,13.9,9.5,14.4,20.4
			c0.3,8.4-23.3,14-22.9,19.8L403.2,119.9z"/>
		<path class="st20" d="M400,122.4c0,0-3.3,5-2.9,5.6c0.8,0.5,1.6,0.9,2.5,1.1L400,122.4z"/>
		<path class="st17" d="M410.1,106.5c-3.2,1.7-8.8,4.8-10.2,16.7c-1.5,12.2,1.2,16.4,2.9,18.1c1.1,1.1,6.9,1.5,10,0.5
			c3.8-1.2,12-5.2,15.8-11.5c4.5-7.4,5.5-17.3,0.2-21.2C421.4,103.6,412.8,105.1,410.1,106.5z"/>
		<path class="st6" d="M409.2,107c0,0-2.8,11.1,0.5,18.2c0,0,2-4.3,5.7-3.1s3.4,6.3,0.5,8.8c-1.5,1.5-3.8,2-5.8,1.2
			c0,0,0.1,6.2,5.4,8.6c0,0,11,5.3,21-5.4c9-9.7,7.9-27-5.4-31.4S409.2,107,409.2,107z"/>
		<path class="st6" d="M453.9,154L453.9,154c-8.8,0-15.9-7.1-15.9-15.9c0,0,0,0,0-0.1v-20.4l0,0c8.8,0,15.9,7.1,15.9,15.9L453.9,154
			z"/>
		<path class="st6" d="M400.6,102c-5,5-5.2,19.6,9.1,23.2l9.4-25.8C413.6,95.8,405,97.5,400.6,102z"/>
		<path class="st6" d="M408.3,129.2c-1.5-0.5-2.3-2.1-1.8-3.6c0.5-1.5,2.1-2.3,3.6-1.8c0,0,0.1,0,0.1,0.1L408.3,129.2z"/>
		<path class="st21" d="M417.8,255.5l2.4-15.3c4.8-0.6,9.4-2.2,13.6-4.7c0,0-3,4.5-10.9,6.4l-2.4,17.7l-1,18.5L417.8,255.5z"/>
	</g>
</g>
</svg>
