<svg xmlns="http://www.w3.org/2000/svg" width="1161.994" height="1153.185" viewBox="0 0 1161.994 1153.185">
  <g id="Grupo_4" data-name="Grupo 4" transform="translate(-148.115 -93.643)">
    <g id="HATCH" transform="translate(365.151 805.207)">
      <path id="Trazado_4" data-name="Trazado 4" d="M784.927,876.883l388.527-389.675-193.6-51.945L710.413,704.235,373.7,613.889,252.313,733.974Z" transform="translate(-252.313 -435.263)" fill="#ffcb52"/>
    </g>
    <g id="HATCH-2" data-name="HATCH" transform="translate(636.227 93.643)">
      <path id="Trazado_5" data-name="Trazado 5" d="M382.456,93.643l145.5,532.963,528.387,141.778L915.069,236.554,382.456,93.643h0M548.6,259.06l271.012,72.719,72.146,271.606L622.9,531.244,548.6,259.06Z" transform="translate(-382.456 -93.643)" fill="#ffcb52"/>
    </g>
    <g id="HATCH-3" data-name="HATCH" transform="translate(148.115 99.345)">
      <path id="Trazado_6" data-name="Trazado 6" d="M441.246,912.413,335.711,568.92,605.033,281.734,556.152,96.381,148.115,502.471,302.639,1052.46Z" transform="translate(-148.115 -96.381)" fill="#ffcb52"/>
    </g>
  </g>
</svg>
