<?xml version="1.0" encoding="utf-8"?>
<!-- Generator: Adobe Illustrator 25.2.1, SVG Export Plug-In . SVG Version: 6.00 Build 0)  -->
<svg version="1.1" id="Capa_1" xmlns="http://www.w3.org/2000/svg" xmlns:xlink="http://www.w3.org/1999/xlink" x="0px" y="0px"
	 viewBox="0 0 30 30" style="enable-background:new 0 0 30 30;" xml:space="preserve">
<g>
	<path d="M20.2,11.1c-0.2-0.2-0.5-0.4-0.9-0.4c-0.3,0-0.6,0.1-0.9,0.4l-5.2,5.2l-1.7-1.7c-0.5-0.5-1.3-0.5-1.7,0
		c-0.5,0.5-0.5,1.3,0,1.8l2.5,2.6c0.2,0.2,0.5,0.4,0.9,0.4c0.3,0,0.6-0.1,0.9-0.4l6.1-6C20.7,12.4,20.7,11.6,20.2,11.1L20.2,11.1
		L20.2,11.1z"/>
	<path d="M28.8,9.2c-0.8-1.8-1.8-3.4-3.2-4.8c-1.4-1.4-3-2.5-4.8-3.2C19,0.4,17,0,15,0C6.7,0,0,6.7,0,15s6.7,15,15,15s15-6.7,15-15
		C30,13,29.6,11,28.8,9.2L28.8,9.2z M15,27.5C8.1,27.5,2.5,21.9,2.5,15S8.1,2.5,15,2.5S27.5,8.1,27.5,15S21.9,27.5,15,27.5z"/>
</g>
</svg>
